<svg width="353" height="507" viewBox="0 0 353 507" fill="none" xmlns="http://www.w3.org/2000/svg">
<g clip-path="url(#clip0_8_596)">
<rect x="12.5806" y="12.5806" width="327.097" height="710.806" rx="30.1935" fill="white"/>
<rect x="12.5806" y="12.5806" width="327.097" height="710.806" rx="30.1935" fill="black" fill-opacity="0.2"/>
<g filter="url(#filter0_d_8_596)">
<g clip-path="url(#clip1_8_596)">
<path d="M260.901 291.501L257.379 295.024L256.037 293.011L253.353 295.695" stroke="white" stroke-width="0.813673" stroke-linecap="round" stroke-linejoin="round"/>
<path d="M259.224 291.501H260.901V293.179" stroke="white" stroke-width="0.813673" stroke-linecap="round" stroke-linejoin="round"/>
<path d="M254.611 301.985H259.643C263.837 301.985 265.514 300.308 265.514 296.114V291.082C265.514 286.889 263.837 285.211 259.643 285.211H254.611C250.417 285.211 248.74 286.889 248.74 291.082V296.114C248.74 300.308 250.417 301.985 254.611 301.985Z" stroke="white" stroke-width="0.813673" stroke-linecap="round" stroke-linejoin="round"/>
<path d="M276.112 298.794C275.458 298.794 274.864 298.636 274.33 298.319C273.797 298.002 273.374 297.579 273.062 297.051C272.755 296.517 272.602 295.931 272.602 295.292H273.87C273.87 295.7 273.971 296.074 274.172 296.417C274.373 296.754 274.642 297.023 274.98 297.224C275.322 297.426 275.699 297.526 276.112 297.526C276.519 297.526 276.892 297.426 277.229 297.224C277.566 297.023 277.835 296.754 278.037 296.417C278.238 296.074 278.339 295.7 278.339 295.292C278.339 294.884 278.243 294.509 278.052 294.167C277.866 293.825 277.591 293.553 277.229 293.352C276.867 293.146 276.426 293.043 275.908 293.043H273.304L274.33 288.03H279.343V289.299H275.357L274.866 291.774L275.961 291.782C276.68 291.797 277.312 291.958 277.855 292.265C278.404 292.567 278.832 292.98 279.139 293.503C279.451 294.021 279.607 294.618 279.607 295.292C279.607 295.77 279.516 296.223 279.335 296.651C279.154 297.073 278.902 297.446 278.58 297.768C278.258 298.09 277.886 298.341 277.463 298.523C277.045 298.704 276.595 298.794 276.112 298.794ZM281.495 298.794C281.304 298.794 281.14 298.726 281.005 298.591C280.874 298.455 280.808 298.289 280.808 298.092C280.808 297.906 280.874 297.745 281.005 297.609C281.14 297.473 281.304 297.405 281.495 297.405C281.691 297.405 281.858 297.473 281.993 297.609C282.129 297.745 282.197 297.906 282.197 298.092C282.197 298.289 282.129 298.455 281.993 298.591C281.858 298.726 281.691 298.794 281.495 298.794ZM283.411 298.598V297.473C283.798 297.126 284.234 296.739 284.717 296.311C285.2 295.878 285.68 295.428 286.158 294.96C286.641 294.487 287.084 294.019 287.487 293.556C287.889 293.093 288.214 292.655 288.461 292.242C288.707 291.825 288.83 291.46 288.83 291.148C288.83 290.775 288.74 290.436 288.559 290.129C288.378 289.817 288.134 289.568 287.827 289.382C287.525 289.195 287.187 289.102 286.815 289.102C286.443 289.102 286.1 289.195 285.788 289.382C285.482 289.568 285.235 289.817 285.049 290.129C284.868 290.436 284.777 290.775 284.777 291.148H283.509C283.509 290.529 283.66 289.97 283.962 289.472C284.264 288.969 284.664 288.571 285.162 288.279C285.66 287.983 286.211 287.834 286.815 287.834C287.419 287.834 287.967 287.983 288.461 288.279C288.959 288.576 289.356 288.976 289.653 289.48C289.95 289.978 290.099 290.534 290.099 291.148C290.099 291.5 290.013 291.88 289.842 292.288C289.671 292.69 289.437 293.105 289.14 293.533C288.843 293.961 288.506 294.394 288.128 294.831C287.751 295.264 287.354 295.692 286.936 296.115C286.518 296.537 286.103 296.943 285.69 297.33H290.234V298.598H283.411ZM292.118 298.598L298.217 288.03H299.681L293.582 298.598H292.118ZM293.371 292.28C293.014 292.28 292.689 292.195 292.397 292.023C292.11 291.852 291.879 291.621 291.703 291.329C291.527 291.037 291.439 290.713 291.439 290.355C291.439 289.988 291.527 289.661 291.703 289.374C291.879 289.082 292.113 288.851 292.405 288.68C292.697 288.508 293.019 288.423 293.371 288.423C293.723 288.423 294.045 288.511 294.337 288.687C294.629 288.858 294.861 289.09 295.032 289.382C295.208 289.668 295.296 289.993 295.296 290.355C295.296 290.718 295.208 291.045 295.032 291.337C294.855 291.623 294.621 291.852 294.33 292.023C294.038 292.195 293.718 292.28 293.371 292.28ZM293.371 291.352C293.648 291.352 293.882 291.256 294.073 291.065C294.269 290.869 294.367 290.632 294.367 290.355C294.367 290.073 294.269 289.837 294.073 289.646C293.882 289.449 293.648 289.351 293.371 289.351C293.094 289.351 292.858 289.449 292.661 289.646C292.465 289.837 292.367 290.073 292.367 290.355C292.367 290.632 292.465 290.869 292.661 291.065C292.858 291.256 293.094 291.352 293.371 291.352ZM298.436 298.213C298.084 298.213 297.759 298.125 297.462 297.949C297.17 297.768 296.936 297.531 296.76 297.239C296.589 296.943 296.504 296.623 296.504 296.281C296.504 295.918 296.592 295.591 296.768 295.299C296.949 295.008 297.185 294.776 297.477 294.605C297.769 294.434 298.089 294.348 298.436 294.348C298.798 294.348 299.125 294.439 299.417 294.62C299.709 294.796 299.941 295.03 300.112 295.322C300.283 295.614 300.368 295.934 300.368 296.281C300.368 296.638 300.28 296.963 300.104 297.255C299.933 297.546 299.702 297.78 299.41 297.957C299.118 298.128 298.793 298.213 298.436 298.213ZM298.436 297.285C298.713 297.285 298.949 297.187 299.145 296.99C299.342 296.794 299.44 296.558 299.44 296.281C299.44 296.004 299.342 295.767 299.145 295.571C298.949 295.375 298.713 295.277 298.436 295.277C298.159 295.277 297.923 295.375 297.726 295.571C297.53 295.767 297.432 296.004 297.432 296.281C297.432 296.558 297.53 296.794 297.726 296.99C297.923 297.187 298.159 297.285 298.436 297.285Z" fill="white"/>
<path d="M53.72 371.59V365.914C54.8483 365.063 56.1849 364.013 57.7298 362.763C59.2747 361.496 60.863 360.134 62.4947 358.675C64.1264 357.2 65.6365 355.725 67.0252 354.249C68.4139 352.774 69.5422 351.368 70.4101 350.031C71.2954 348.694 71.738 347.549 71.738 346.594C71.738 345.535 71.4776 344.572 70.9569 343.704C70.4361 342.819 69.7418 342.116 68.8739 341.595C68.0233 341.074 67.0686 340.814 66.0098 340.814C64.9509 340.814 63.9875 341.074 63.1196 341.595C62.2517 342.116 61.5573 342.819 61.0366 343.704C60.5158 344.572 60.2555 345.535 60.2555 346.594H53.9023C53.9023 344.303 54.4578 342.246 55.5687 340.423C56.6796 338.583 58.1464 337.134 59.969 336.075C61.809 334.999 63.8226 334.461 66.0098 334.461C68.2316 334.461 70.2539 335.007 72.0765 336.101C73.8991 337.177 75.3572 338.635 76.4508 340.475C77.5444 342.315 78.0912 344.355 78.0912 346.594C78.0912 347.774 77.8742 348.963 77.4402 350.161C77.0063 351.359 76.3987 352.565 75.6176 353.78C74.8365 354.995 73.9165 356.228 72.8576 357.478C71.7988 358.71 70.6271 359.977 69.3426 361.279C68.0754 362.564 66.7388 363.883 65.3328 365.237H78.2734V371.59H53.72ZM94.6661 372.267C92.3227 372.267 90.205 371.703 88.313 370.575C86.4209 369.429 84.9194 367.91 83.8085 366.018C82.7149 364.126 82.1681 362.052 82.1681 359.795H88.5213C88.5213 360.923 88.799 361.956 89.3545 362.894C89.9099 363.814 90.6477 364.551 91.5676 365.107C92.505 365.645 93.5378 365.914 94.6661 365.914C95.7944 365.914 96.8186 365.645 97.7385 365.107C98.6585 364.551 99.3963 363.814 99.9517 362.894C100.507 361.956 100.785 360.923 100.785 359.795C100.785 358.667 100.542 357.634 100.056 356.697C99.5872 355.742 98.8148 354.987 97.7385 354.431C96.6797 353.859 95.2737 353.572 93.5205 353.572H84.1469L88.0005 335.138H105.914V341.491H93.1559L91.9842 347.219L94.562 347.245C97.0269 347.332 99.2053 347.931 101.097 349.042C102.989 350.153 104.465 351.645 105.524 353.52C106.6 355.377 107.138 357.469 107.138 359.795C107.138 361.496 106.817 363.102 106.175 364.612C105.532 366.122 104.638 367.45 103.493 368.596C102.347 369.741 101.019 370.644 99.5091 371.304C98.0163 371.946 96.402 372.267 94.6661 372.267ZM138.967 371.59H130.687L120.455 357.295L118.684 359.405V371.59H112.331V335.138H118.684V349.536L130.74 335.138H139.045L124.595 352.322L138.967 371.59Z" fill="white"/>
<path d="M60.5366 389.022V390.29H57.019V399.59H55.7509V390.29H52.2409V389.022H60.5366ZM63.9067 399.786C63.2122 399.786 62.5782 399.608 62.0045 399.25C61.4359 398.893 60.9804 398.415 60.6382 397.816C60.3011 397.212 60.1325 396.546 60.1325 395.816C60.1325 395.262 60.2306 394.747 60.4269 394.268C60.6231 393.785 60.8924 393.363 61.2346 393C61.5818 392.633 61.9844 392.346 62.4423 392.14C62.9002 391.934 63.3884 391.83 63.9067 391.83C64.6011 391.83 65.2327 392.009 65.8013 392.366C66.375 392.724 66.8304 393.204 67.1676 393.808C67.5098 394.412 67.6809 395.081 67.6809 395.816C67.6809 396.364 67.5828 396.878 67.3865 397.356C67.1902 397.834 66.9185 398.257 66.5713 398.624C66.2291 398.986 65.829 399.271 65.3711 399.477C64.9182 399.683 64.43 399.786 63.9067 399.786ZM63.9067 398.518C64.3797 398.518 64.805 398.395 65.1824 398.148C65.5648 397.897 65.8642 397.567 66.0806 397.16C66.302 396.747 66.4128 396.299 66.4128 395.816C66.4128 395.323 66.2995 394.87 66.0731 394.457C65.8517 394.045 65.5522 393.715 65.1748 393.468C64.7974 393.222 64.3747 393.098 63.9067 393.098C63.4337 393.098 63.0084 393.224 62.631 393.476C62.2536 393.722 61.9542 394.052 61.7328 394.465C61.5113 394.877 61.4006 395.328 61.4006 395.816C61.4006 396.319 61.5139 396.777 61.7403 397.19C61.9668 397.597 62.2712 397.922 62.6537 398.163C63.0361 398.4 63.4538 398.518 63.9067 398.518ZM72.4496 393.31H70.7361L70.7285 399.59H69.4604L69.468 393.31H68.1696V392.042H69.468L69.4604 389.672H70.7285L70.7361 392.042H72.4496V393.31ZM79.3781 392.042H80.6462V399.59H79.3781L79.3252 398.314C79.0887 398.752 78.7616 399.107 78.3439 399.379C77.9313 399.65 77.4381 399.786 76.8644 399.786C76.3109 399.786 75.7926 399.683 75.3095 399.477C74.8264 399.266 74.3986 398.976 74.0262 398.609C73.6589 398.236 73.3721 397.809 73.1657 397.326C72.9594 396.842 72.8562 396.322 72.8562 395.763C72.8562 395.225 72.9569 394.716 73.1582 394.238C73.3595 393.76 73.6388 393.343 73.9961 392.985C74.3584 392.623 74.7761 392.341 75.2491 392.14C75.7221 391.934 76.2304 391.83 76.7739 391.83C77.3677 391.83 77.8885 391.971 78.3364 392.253C78.7842 392.53 79.1466 392.89 79.4233 393.332L79.3781 392.042ZM76.8418 398.556C77.34 398.556 77.7702 398.435 78.1326 398.194C78.4999 397.947 78.7817 397.615 78.978 397.197C79.1793 396.78 79.2799 396.319 79.2799 395.816C79.2799 395.303 79.1793 394.84 78.978 394.427C78.7767 394.009 78.4924 393.68 78.125 393.438C77.7627 393.192 77.335 393.068 76.8418 393.068C76.3436 393.068 75.8907 393.192 75.4831 393.438C75.0755 393.685 74.7509 394.017 74.5093 394.435C74.2728 394.847 74.1546 395.308 74.1546 395.816C74.1546 396.324 74.2779 396.787 74.5244 397.205C74.771 397.617 75.0981 397.947 75.5057 398.194C75.9133 398.435 76.3587 398.556 76.8418 398.556ZM81.9414 399.59V388.268H83.2096V399.59H81.9414ZM91.767 399.786C91.1983 399.786 90.6498 399.698 90.1214 399.522C89.593 399.341 89.1301 399.084 88.7325 398.752C88.34 398.42 88.0607 398.025 87.8946 397.567L89.0797 397.122C89.1804 397.404 89.3666 397.65 89.6383 397.862C89.9151 398.068 90.2397 398.229 90.6121 398.345C90.9844 398.46 91.3694 398.518 91.767 398.518C92.2199 398.518 92.6401 398.445 93.0275 398.299C93.4201 398.148 93.7371 397.94 93.9786 397.673C94.2202 397.406 94.341 397.094 94.341 396.737C94.341 396.369 94.2152 396.07 93.9635 395.839C93.7119 395.602 93.3899 395.416 92.9973 395.28C92.6048 395.139 92.1947 395.031 91.767 394.955C91.0373 394.835 90.3831 394.664 89.8044 394.442C89.2307 394.216 88.7753 393.901 88.4381 393.499C88.106 393.096 87.9399 392.565 87.9399 391.906C87.9399 391.292 88.1161 390.756 88.4683 390.298C88.8256 389.84 89.2961 389.485 89.8799 389.234C90.4636 388.982 91.0926 388.856 91.767 388.856C92.3255 388.856 92.8665 388.944 93.3899 389.12C93.9183 389.292 94.3837 389.543 94.7863 389.875C95.1889 390.207 95.4783 390.613 95.6544 391.091L94.4542 391.528C94.3535 391.242 94.1648 390.995 93.8881 390.789C93.6163 390.577 93.2943 390.416 92.9219 390.306C92.5545 390.19 92.1695 390.132 91.767 390.132C91.3191 390.127 90.9014 390.2 90.5139 390.351C90.1264 390.502 89.8119 390.711 89.5704 390.977C89.3288 391.244 89.2081 391.554 89.2081 391.906C89.2081 392.329 89.3188 392.653 89.5402 392.88C89.7666 393.101 90.0736 393.267 90.4611 393.378C90.8486 393.488 91.2839 393.587 91.767 393.672C92.4513 393.788 93.0854 393.972 93.6692 394.223C94.2529 394.47 94.7209 394.799 95.0732 395.212C95.4304 395.625 95.6091 396.133 95.6091 396.737C95.6091 397.351 95.4304 397.887 95.0732 398.345C94.7209 398.803 94.2529 399.157 93.6692 399.409C93.0854 399.661 92.4513 399.786 91.767 399.786ZM103.778 394.895V399.59H102.51V395.174C102.51 394.792 102.417 394.445 102.231 394.133C102.045 393.821 101.796 393.574 101.484 393.393C101.172 393.207 100.824 393.114 100.442 393.114C100.064 393.114 99.7172 393.207 99.4002 393.393C99.0882 393.574 98.8391 393.821 98.6529 394.133C98.4667 394.445 98.3736 394.792 98.3736 395.174V399.59H97.1054V388.268H98.3736V392.985C98.6403 392.633 98.9774 392.354 99.3851 392.147C99.7927 391.936 100.236 391.83 100.714 391.83C101.277 391.83 101.79 391.969 102.253 392.246C102.721 392.517 103.091 392.885 103.363 393.348C103.64 393.811 103.778 394.326 103.778 394.895ZM104.986 392.042H106.254V399.59H104.986V392.042ZM105.635 390.811C105.434 390.811 105.265 390.746 105.129 390.615C104.993 390.484 104.925 390.321 104.925 390.124C104.925 389.928 104.993 389.765 105.129 389.634C105.265 389.503 105.431 389.438 105.627 389.438C105.824 389.438 105.99 389.503 106.126 389.634C106.262 389.765 106.329 389.928 106.329 390.124C106.329 390.321 106.262 390.484 106.126 390.615C105.995 390.746 105.831 390.811 105.635 390.811ZM108.96 403.364H107.691V392.042H108.96V393.332C109.216 392.89 109.558 392.532 109.986 392.261C110.414 391.984 110.922 391.845 111.511 391.845C112.059 391.845 112.573 391.949 113.051 392.155C113.534 392.361 113.957 392.648 114.319 393.015C114.681 393.378 114.966 393.798 115.172 394.276C115.378 394.754 115.481 395.267 115.481 395.816C115.481 396.364 115.378 396.88 115.172 397.363C114.966 397.846 114.681 398.272 114.319 398.639C113.957 399.001 113.534 399.286 113.051 399.492C112.573 399.698 112.059 399.801 111.511 399.801C110.922 399.801 110.414 399.666 109.986 399.394C109.558 399.117 109.216 398.757 108.96 398.314V403.364ZM111.496 393.076C111.008 393.076 110.58 393.199 110.213 393.446C109.845 393.692 109.561 394.022 109.36 394.435C109.163 394.847 109.065 395.308 109.065 395.816C109.065 396.319 109.163 396.78 109.36 397.197C109.561 397.615 109.843 397.947 110.205 398.194C110.572 398.44 111.003 398.564 111.496 398.564C111.984 398.564 112.432 398.443 112.839 398.201C113.247 397.955 113.574 397.625 113.821 397.212C114.067 396.795 114.191 396.329 114.191 395.816C114.191 395.313 114.07 394.855 113.828 394.442C113.587 394.024 113.262 393.692 112.855 393.446C112.447 393.199 111.994 393.076 111.496 393.076ZM116.442 399.59V392.042H117.71V392.985C117.977 392.633 118.311 392.354 118.714 392.147C119.121 391.936 119.564 391.83 120.042 391.83C120.601 391.83 121.112 391.966 121.575 392.238C122.038 392.51 122.402 392.87 122.669 393.317C122.936 392.87 123.298 392.51 123.756 392.238C124.219 391.966 124.727 391.83 125.281 391.83C125.85 391.83 126.365 391.969 126.828 392.246C127.291 392.517 127.659 392.885 127.93 393.348C128.207 393.811 128.346 394.326 128.346 394.895V399.59H127.077V395.197C127.077 394.825 126.987 394.48 126.806 394.163C126.624 393.846 126.38 393.592 126.073 393.4C125.766 393.209 125.427 393.114 125.054 393.114C124.682 393.114 124.342 393.204 124.035 393.385C123.728 393.561 123.484 393.808 123.303 394.125C123.122 394.437 123.031 394.794 123.031 395.197V399.59H121.763V395.197C121.763 394.794 121.673 394.437 121.492 394.125C121.31 393.808 121.064 393.561 120.752 393.385C120.445 393.204 120.105 393.114 119.733 393.114C119.365 393.114 119.026 393.209 118.714 393.4C118.407 393.592 118.163 393.846 117.982 394.163C117.8 394.48 117.71 394.825 117.71 395.197V399.59H116.442ZM132.73 399.786C132.035 399.786 131.401 399.608 130.828 399.25C130.259 398.893 129.803 398.415 129.461 397.816C129.124 397.212 128.956 396.546 128.956 395.816C128.956 395.262 129.054 394.747 129.25 394.268C129.446 393.785 129.715 393.363 130.058 393C130.405 392.633 130.807 392.346 131.265 392.14C131.723 391.934 132.211 391.83 132.73 391.83C133.298 391.83 133.819 391.946 134.292 392.178C134.77 392.404 135.178 392.721 135.515 393.129C135.857 393.536 136.111 394.009 136.277 394.548C136.449 395.086 136.511 395.662 136.466 396.276H130.307C130.367 396.704 130.508 397.087 130.729 397.424C130.951 397.756 131.233 398.02 131.575 398.216C131.922 398.413 132.307 398.513 132.73 398.518C133.183 398.518 133.593 398.402 133.96 398.171C134.327 397.934 134.624 397.612 134.851 397.205L136.142 397.507C135.84 398.176 135.384 398.725 134.775 399.152C134.166 399.575 133.485 399.786 132.73 399.786ZM130.269 395.28H135.19C135.15 394.857 135.014 394.472 134.783 394.125C134.551 393.773 134.257 393.491 133.9 393.28C133.542 393.068 133.152 392.963 132.73 392.963C132.307 392.963 131.92 393.066 131.567 393.272C131.215 393.478 130.923 393.758 130.692 394.11C130.465 394.457 130.324 394.847 130.269 395.28ZM144.109 394.895V399.59H142.841V395.174C142.841 394.792 142.748 394.445 142.562 394.133C142.375 393.821 142.126 393.574 141.814 393.393C141.502 393.207 141.155 393.114 140.773 393.114C140.395 393.114 140.048 393.207 139.731 393.393C139.419 393.574 139.17 393.821 138.984 394.133C138.797 394.445 138.704 394.792 138.704 395.174V399.59H137.436V392.042H138.704V392.985C138.971 392.633 139.308 392.354 139.716 392.147C140.123 391.936 140.566 391.83 141.044 391.83C141.608 391.83 142.121 391.969 142.584 392.246C143.052 392.517 143.422 392.885 143.694 393.348C143.971 393.811 144.109 394.326 144.109 394.895ZM149.227 393.31H147.513L147.506 399.59H146.238L146.245 393.31H144.947V392.042H146.245L146.238 389.672H147.506L147.513 392.042H149.227V393.31Z" fill="white" fill-opacity="0.6"/>
<rect x="51.637" y="283.534" width="29.2922" height="29.2922" rx="14.6461" fill="white"/>
<path d="M61.4933 295.707L66.2831 298.479L71.0404 295.723" stroke="black" stroke-width="0.813673" stroke-linecap="round" stroke-linejoin="round"/>
<path d="M66.2831 303.394V298.474" stroke="black" stroke-width="0.813673" stroke-linecap="round" stroke-linejoin="round"/>
<path d="M65.1603 293.016L62.2636 294.622C61.6072 294.986 61.0702 295.897 61.0702 296.645V299.71C61.0702 300.459 61.6072 301.37 62.2636 301.734L65.1603 303.345C65.7786 303.686 66.793 303.686 67.4114 303.345L70.3081 301.734C70.9645 301.37 71.5015 300.459 71.5015 299.71V296.645C71.5015 295.897 70.9645 294.986 70.3081 294.622L67.4114 293.011C66.7876 292.669 65.7786 292.669 65.1603 293.016Z" stroke="black" stroke-width="0.813673" stroke-linecap="round" stroke-linejoin="round"/>
<path d="M51.6346 523.839L94.009 485.768C95.8036 484.155 98.5069 484.095 100.371 485.627L120.297 501.997C122.13 503.504 124.782 503.474 126.58 501.925L136.967 492.986C138.831 491.381 141.599 491.414 143.425 493.064L160.164 508.192C162.31 510.131 165.662 509.79 167.373 507.458L192.055 473.822C194.352 470.692 199.245 471.571 200.308 475.306L200.583 476.276C201.436 479.271 205.195 480.243 207.393 478.037C209.535 475.886 213.193 476.748 214.15 479.629L216.09 485.474C217.372 489.337 222.54 490.027 224.791 486.636L225.518 485.541C227.227 482.968 230.865 482.608 233.045 484.796L234.32 486.077C236.455 488.22 240.004 487.926 241.758 485.462L257.299 463.613C259.51 460.505 264.27 461.019 265.767 464.527L266.475 466.185C267.889 469.498 272.28 470.192 274.646 467.476L303.054 434.875" stroke="#FFD3BD" stroke-width="3.86799"/>
<path d="M94.009 485.768L53.2539 522.384C52.2233 523.31 51.6346 524.63 51.6346 526.016V582.779C51.6346 585.475 53.8204 587.661 56.5167 587.661H298.172C300.868 587.661 303.054 585.475 303.054 582.779V434.875L274.646 467.476C272.28 470.192 267.889 469.498 266.475 466.185L265.767 464.527C264.27 461.019 259.51 460.505 257.299 463.613L241.758 485.462C240.004 487.926 236.455 488.22 234.32 486.077L233.045 484.796C230.865 482.608 227.227 482.968 225.518 485.541L224.791 486.636C222.54 490.027 217.372 489.337 216.09 485.474L214.15 479.629C213.193 476.748 209.535 475.886 207.393 478.037C205.195 480.243 201.436 479.271 200.583 476.276L200.308 475.306C199.245 471.571 194.352 470.692 192.055 473.822L167.373 507.458C165.662 509.79 162.31 510.131 160.164 508.192L143.425 493.064C141.599 491.414 138.831 491.381 136.967 492.986L126.58 501.925C124.782 503.474 122.13 503.504 120.297 501.997L100.371 485.627C98.5069 484.095 95.8036 484.155 94.009 485.768Z" fill="url(#paint0_linear_8_596)"/>
</g>
<rect x="32.5159" y="264.413" width="287.227" height="410.091" rx="19.1213" stroke="white" stroke-width="0.813673" shape-rendering="crispEdges"/>
</g>
<path d="M60.8751 41.8725C63.3372 41.8725 64.7997 40.0216 64.7997 36.8873C64.7997 35.707 64.5649 34.7139 64.1154 33.9464C63.4646 32.7533 62.3443 32.1084 60.9287 32.1084C58.8222 32.1084 57.3328 33.4692 57.3328 35.3781C57.3328 37.171 58.6746 38.4738 60.5195 38.4738C61.6533 38.4738 62.5724 37.9643 63.0286 37.0807H63.0487C63.0487 37.0807 63.0755 37.0807 63.0822 37.0807C63.0957 37.0807 63.1426 37.0807 63.1426 37.0807C63.1426 39.209 62.304 40.4795 60.8885 40.4795C60.0566 40.4795 59.4125 40.0409 59.1912 39.3379H57.467C57.7555 40.8664 59.1039 41.8725 60.8751 41.8725ZM60.9354 37.1517C59.8218 37.1517 59.0301 36.3907 59.0301 35.3265C59.0301 34.2882 59.862 33.495 60.9421 33.495C62.0223 33.495 62.8541 34.3011 62.8541 35.3523C62.8541 36.3907 62.0424 37.1517 60.9354 37.1517Z" fill="white"/>
<path d="M67.6311 41.7822C68.2684 41.7822 68.7045 41.3436 68.7045 40.7632C68.7045 40.1763 68.2684 39.7442 67.6311 39.7442C67.0004 39.7442 66.5577 40.1763 66.5577 40.7632C66.5577 41.3436 67.0004 41.7822 67.6311 41.7822ZM67.6311 36.9453C68.2684 36.9453 68.7045 36.5132 68.7045 35.9328C68.7045 35.3459 68.2684 34.9138 67.6311 34.9138C67.0004 34.9138 66.5577 35.3459 66.5577 35.9328C66.5577 36.5132 67.0004 36.9453 67.6311 36.9453Z" fill="white"/>
<path d="M74.9841 41.6468H76.6412V39.9119H77.9494V38.506H76.6412V32.3406H74.1992C72.4885 34.8171 71.1266 36.8873 70.2545 38.4286V39.9119H74.9841V41.6468ZM71.8579 38.448C72.9849 36.539 73.9912 35.0105 74.9171 33.6949H75.011V38.5447H71.8579V38.448Z" fill="white"/>
<path d="M81.6395 41.6468H83.3704V32.3406H81.6462L79.117 34.0432V35.6426L81.5255 34.0174H81.6395V41.6468Z" fill="white"/>
<path opacity="0.35" d="M285.418 31.7791H301.511C302.66 31.7791 303.592 32.7102 303.592 33.8591V39.3132C303.592 40.4622 302.66 41.3933 301.511 41.3933H285.418C284.269 41.3933 283.338 40.4622 283.338 39.3132V33.8591C283.338 32.7102 284.269 31.7791 285.418 31.7791Z" fill="white" stroke="white" stroke-width="0.960146"/>
<path opacity="0.4" d="M305.036 34.7207V38.4531C305.812 38.137 306.316 37.4017 306.316 36.5869C306.316 35.7722 305.812 35.0368 305.036 34.7207Z" fill="white"/>
<path d="M284.786 34.4443C284.786 33.7372 285.359 33.1641 286.066 33.1641H300.863C301.57 33.1641 302.143 33.7372 302.143 34.4443V38.7267C302.143 39.4337 301.57 40.0069 300.863 40.0069H286.066C285.359 40.0069 284.786 39.4337 284.786 38.7267V34.4443Z" fill="white"/>
<path d="M268.51 39.1345C269.74 38.1278 271.542 38.1278 272.772 39.1345C272.833 39.1886 272.869 39.2649 272.871 39.3455C272.873 39.4262 272.84 39.5047 272.78 39.5613L270.855 41.4421C270.798 41.4973 270.721 41.5281 270.641 41.5281C270.56 41.528 270.483 41.4973 270.427 41.4421L268.501 39.5613C268.442 39.5047 268.408 39.4262 268.41 39.3455C268.412 39.2649 268.448 39.1886 268.51 39.1345ZM265.94 36.6267C268.59 34.2418 272.694 34.2418 275.344 36.6267C275.404 36.6826 275.438 36.7601 275.439 36.8406C275.439 36.921 275.407 36.9984 275.349 37.0554L274.235 38.1443C274.121 38.2554 273.935 38.2574 273.817 38.1492C272.947 37.3866 271.815 36.9645 270.641 36.9646C269.468 36.9652 268.336 37.3872 267.467 38.1492C267.349 38.2574 267.164 38.2554 267.049 38.1443L265.936 37.0554C265.877 36.9985 265.845 36.9209 265.846 36.8406C265.847 36.7601 265.881 36.6826 265.94 36.6267ZM263.369 34.1238C267.434 30.3544 273.847 30.3544 277.911 34.1238C277.97 34.1797 278.002 34.256 278.003 34.3357C278.003 34.4155 277.971 34.4929 277.913 34.5496L276.799 35.6375C276.684 35.7491 276.498 35.751 276.381 35.6414C274.832 34.2168 272.777 33.4218 270.641 33.4216C268.504 33.4216 266.448 34.2166 264.899 35.6414C264.783 35.7513 264.596 35.7493 264.482 35.6375L263.366 34.5496C263.308 34.4929 263.276 34.4155 263.276 34.3357C263.277 34.256 263.31 34.1797 263.369 34.1238Z" fill="white"/>
<path d="M248.464 35.9639C248.997 35.9639 249.429 36.3812 249.429 36.8965V40.6289C249.429 41.1442 248.997 41.5625 248.464 41.5625H247.5C246.968 41.5625 246.536 41.1442 246.536 40.6289V36.8965C246.536 36.3812 246.968 35.9639 247.5 35.9639H248.464ZM243.965 37.8291C244.498 37.8293 244.929 38.2465 244.929 38.7617V40.6279C244.929 41.1432 244.498 41.5614 243.965 41.5615H243C242.468 41.5614 242.036 41.1432 242.036 40.6279V38.7617C242.036 38.2465 242.468 37.8292 243 37.8291H243.965ZM257.464 31.6084C257.997 31.6084 258.429 32.0266 258.429 32.542V40.6289C258.429 41.1441 257.997 41.5615 257.464 41.5615H256.5C255.968 41.5615 255.536 41.1441 255.535 40.6289V32.542C255.535 32.0266 255.968 31.6084 256.5 31.6084H257.464ZM252.964 33.7852C253.497 33.7852 253.929 34.2025 253.929 34.7178V40.6279C253.929 41.1431 253.497 41.5605 252.964 41.5605H252C251.468 41.5605 251.036 41.1431 251.035 40.6279V34.7178C251.036 34.2025 251.468 33.7852 252 33.7852H252.964Z" fill="white"/>
<rect x="124.054" y="21.531" width="103.337" height="30.1059" rx="15.053" fill="black"/>
</g>
<rect x="6.29031" y="6.29024" width="339.677" height="723.387" rx="36.4839" stroke="url(#paint1_linear_8_596)" stroke-width="12.5806"/>
<defs>
<filter id="filter0_d_8_596" x="-32.9848" y="198.913" width="418.228" height="541.093" filterUnits="userSpaceOnUse" color-interpolation-filters="sRGB">
<feFlood flood-opacity="0" result="BackgroundImageFix"/>
<feColorMatrix in="SourceAlpha" type="matrix" values="0 0 0 0 0 0 0 0 0 0 0 0 0 0 0 0 0 0 127 0" result="hardAlpha"/>
<feOffset/>
<feGaussianBlur stdDeviation="32.5469"/>
<feComposite in2="hardAlpha" operator="out"/>
<feColorMatrix type="matrix" values="0 0 0 0 0 0 0 0 0 0 0 0 0 0 0 0 0 0 0.08 0"/>
<feBlend mode="normal" in2="BackgroundImageFix" result="effect1_dropShadow_8_596"/>
<feBlend mode="normal" in="SourceGraphic" in2="effect1_dropShadow_8_596" result="shape"/>
</filter>
<linearGradient id="paint0_linear_8_596" x1="177.344" y1="434.875" x2="177.344" y2="552.849" gradientUnits="userSpaceOnUse">
<stop stop-color="#CABDFF"/>
<stop offset="1" stop-color="#CABDFF" stop-opacity="0"/>
</linearGradient>
<linearGradient id="paint1_linear_8_596" x1="176.129" y1="12.5806" x2="176.129" y2="723.387" gradientUnits="userSpaceOnUse">
<stop/>
<stop offset="1"/>
</linearGradient>
<clipPath id="clip0_8_596">
<rect x="12.5806" y="12.5806" width="327.097" height="710.806" rx="30.1935" fill="white"/>
</clipPath>
<clipPath id="clip1_8_596">
<rect x="32.1091" y="264.007" width="288.04" height="410.905" rx="19.5282" fill="white"/>
</clipPath>
</defs>
</svg>
