<svg width="333" height="261" viewBox="0 0 333 261" fill="none" xmlns="http://www.w3.org/2000/svg">
<g filter="url(#filter0_d_8_770)">
<rect x="62.1344" y="62.1345" width="208.15" height="135.919" rx="18.6403" fill="white"/>
<path d="M223.684 171.138L221.509 173.313L220.681 172.07L219.024 173.727" stroke="#2BB048" stroke-width="0.77668" stroke-linecap="round" stroke-linejoin="round"/>
<path d="M222.648 171.138H223.684V172.174" stroke="#2BB048" stroke-width="0.77668" stroke-linecap="round" stroke-linejoin="round"/>
<path d="M219.801 177.61H222.907C225.496 177.61 226.532 176.575 226.532 173.986V170.879C226.532 168.29 225.496 167.255 222.907 167.255H219.801C217.212 167.255 216.176 168.29 216.176 170.879V173.986C216.176 176.575 217.212 177.61 219.801 177.61Z" stroke="#2BB048" stroke-width="0.77668" stroke-linecap="round" stroke-linejoin="round"/>
<path d="M232.662 176.433V175.623C232.941 175.372 233.255 175.093 233.603 174.785C233.951 174.474 234.297 174.149 234.641 173.812C234.989 173.471 235.308 173.134 235.598 172.801C235.888 172.467 236.122 172.152 236.3 171.855C236.477 171.554 236.566 171.291 236.566 171.067C236.566 170.798 236.501 170.554 236.37 170.333C236.24 170.108 236.064 169.928 235.843 169.794C235.625 169.66 235.383 169.593 235.114 169.593C234.846 169.593 234.6 169.66 234.375 169.794C234.154 169.928 233.976 170.108 233.842 170.333C233.712 170.554 233.646 170.798 233.646 171.067H232.733C232.733 170.621 232.842 170.218 233.059 169.86C233.277 169.497 233.565 169.211 233.924 169.001C234.283 168.787 234.679 168.68 235.114 168.68C235.549 168.68 235.944 168.787 236.3 169.001C236.658 169.214 236.945 169.503 237.159 169.865C237.372 170.224 237.479 170.624 237.479 171.067C237.479 171.32 237.418 171.594 237.294 171.887C237.171 172.177 237.003 172.476 236.789 172.785C236.575 173.093 236.332 173.404 236.06 173.72C235.788 174.031 235.502 174.339 235.201 174.644C234.9 174.948 234.601 175.24 234.304 175.519H237.577V176.433H232.662ZM238.939 176.574C238.801 176.574 238.684 176.525 238.586 176.427C238.492 176.329 238.444 176.21 238.444 176.068C238.444 175.934 238.492 175.818 238.586 175.72C238.684 175.623 238.801 175.574 238.939 175.574C239.081 175.574 239.2 175.623 239.298 175.72C239.396 175.818 239.445 175.934 239.445 176.068C239.445 176.21 239.396 176.329 239.298 176.427C239.2 176.525 239.081 176.574 238.939 176.574ZM243.592 176.433V174.378H240.319V173.453L243.363 168.821H244.505V173.464H245.261V174.378H244.505V176.433H243.592ZM241.39 173.453L243.592 173.464L243.575 170.104L241.39 173.453ZM246.622 176.433L251.015 168.821H252.07L247.677 176.433H246.622ZM247.525 171.882C247.267 171.882 247.033 171.82 246.823 171.697C246.617 171.574 246.45 171.407 246.323 171.197C246.196 170.987 246.133 170.753 246.133 170.496C246.133 170.231 246.196 169.995 246.323 169.789C246.45 169.579 246.618 169.412 246.829 169.289C247.039 169.165 247.271 169.104 247.525 169.104C247.778 169.104 248.01 169.167 248.22 169.294C248.431 169.417 248.597 169.584 248.721 169.794C248.848 170.001 248.911 170.235 248.911 170.496C248.911 170.757 248.848 170.992 248.721 171.202C248.594 171.409 248.425 171.574 248.215 171.697C248.005 171.82 247.775 171.882 247.525 171.882ZM247.525 171.213C247.724 171.213 247.892 171.144 248.03 171.007C248.172 170.865 248.242 170.695 248.242 170.496C248.242 170.293 248.172 170.122 248.03 169.985C247.892 169.843 247.724 169.773 247.525 169.773C247.325 169.773 247.155 169.843 247.014 169.985C246.872 170.122 246.802 170.293 246.802 170.496C246.802 170.695 246.872 170.865 247.014 171.007C247.155 171.144 247.325 171.213 247.525 171.213ZM251.173 176.155C250.919 176.155 250.685 176.092 250.471 175.965C250.261 175.835 250.093 175.664 249.966 175.454C249.842 175.24 249.781 175.01 249.781 174.764C249.781 174.503 249.844 174.267 249.971 174.057C250.102 173.847 250.272 173.68 250.482 173.557C250.692 173.433 250.923 173.372 251.173 173.372C251.434 173.372 251.669 173.437 251.879 173.567C252.09 173.694 252.256 173.863 252.38 174.073C252.503 174.283 252.564 174.513 252.564 174.764C252.564 175.021 252.501 175.255 252.374 175.465C252.251 175.675 252.084 175.844 251.874 175.97C251.664 176.094 251.43 176.155 251.173 176.155ZM251.173 175.487C251.372 175.487 251.542 175.416 251.684 175.275C251.825 175.133 251.896 174.963 251.896 174.764C251.896 174.564 251.825 174.394 251.684 174.252C251.542 174.111 251.372 174.04 251.173 174.04C250.973 174.04 250.803 174.111 250.662 174.252C250.52 174.394 250.45 174.564 250.45 174.764C250.45 174.963 250.52 175.133 250.662 175.275C250.803 175.416 250.973 175.487 251.173 175.487Z" fill="#2BB048"/>
<path d="M85.5466 154.055V132.507H82.2659L83.4962 127.959H90.0949V154.055H85.5466ZM103.612 154.54C102.096 154.54 100.717 154.192 99.4739 153.496C98.2312 152.788 97.1563 151.812 96.2491 150.569C95.3544 149.327 94.6647 147.891 94.18 146.264C93.6954 144.623 93.4531 142.871 93.4531 141.007C93.4531 139.143 93.6954 137.397 94.18 135.769C94.6647 134.129 95.3544 132.687 96.2491 131.444C97.1563 130.202 98.2312 129.232 99.4739 128.537C100.717 127.828 102.096 127.474 103.612 127.474C105.128 127.474 106.507 127.828 107.75 128.537C108.993 129.232 110.055 130.202 110.938 131.444C111.832 132.687 112.522 134.129 113.007 135.769C113.504 137.397 113.752 139.143 113.752 141.007C113.752 142.871 113.504 144.623 113.007 146.264C112.522 147.891 111.832 149.327 110.938 150.569C110.055 151.812 108.993 152.788 107.75 153.496C106.507 154.192 105.128 154.54 103.612 154.54ZM103.612 149.992C104.942 149.992 106.041 149.569 106.911 148.724C107.781 147.879 108.427 146.773 108.85 145.406C109.272 144.039 109.484 142.573 109.484 141.007C109.484 139.354 109.26 137.851 108.813 136.496C108.365 135.129 107.707 134.042 106.837 133.234C105.967 132.426 104.892 132.022 103.612 132.022C102.605 132.022 101.729 132.271 100.984 132.768C100.251 133.253 99.6416 133.917 99.157 134.762C98.6723 135.607 98.312 136.571 98.0759 137.652C97.8397 138.72 97.7217 139.839 97.7217 141.007C97.7217 142.56 97.9329 144.027 98.3555 145.406C98.7904 146.773 99.4428 147.879 100.313 148.724C101.195 149.569 102.295 149.992 103.612 149.992ZM135.431 154.055H129.503L122.177 143.822L120.91 145.332V154.055H116.362V127.959H120.91V138.267L129.54 127.959H135.487L125.141 140.261L135.431 154.055Z" fill="#000019"/>
<path d="M84.4344 166.356H85.6958L88.8584 175.055H87.7524L87.1062 173.278H83.024L82.384 175.055H81.2718L84.4344 166.356ZM83.4092 172.234H86.721L85.062 167.692L83.4092 172.234ZM93.5138 173.415L94.4458 173.918C94.1642 174.312 93.8059 174.626 93.3709 174.863C92.9401 175.099 92.472 175.217 91.9667 175.217C91.395 175.217 90.8731 175.07 90.4009 174.776C89.9328 174.481 89.5579 174.088 89.2763 173.595C88.9987 173.098 88.86 172.549 88.86 171.948C88.86 171.493 88.9407 171.068 89.1023 170.675C89.2638 170.277 89.4854 169.929 89.7671 169.631C90.0529 169.328 90.3843 169.092 90.7613 168.923C91.1382 168.753 91.54 168.668 91.9667 168.668C92.472 168.668 92.9401 168.786 93.3709 169.022C93.8059 169.258 94.1642 169.575 94.4458 169.973L93.5138 170.476C93.315 170.231 93.0789 170.043 92.8055 169.91C92.5321 169.778 92.2525 169.712 91.9667 169.712C91.5814 169.712 91.2314 169.815 90.9166 170.022C90.6059 170.225 90.3595 170.497 90.1772 170.836C89.9949 171.176 89.9038 171.547 89.9038 171.948C89.9038 172.35 89.9949 172.721 90.1772 173.061C90.3636 173.396 90.6121 173.665 90.9228 173.868C91.2376 174.071 91.5856 174.173 91.9667 174.173C92.2732 174.173 92.5611 174.102 92.8303 173.962C93.0996 173.821 93.3274 173.639 93.5138 173.415ZM98.5376 169.886H97.1271L97.1209 175.055H96.0771L96.0833 169.886H95.0146V168.842H96.0833L96.0771 166.891H97.1209L97.1271 168.842H98.5376V169.886ZM99.3422 168.842H100.386V175.055H99.3422V168.842ZM99.8766 167.829C99.7109 167.829 99.5721 167.775 99.4603 167.667C99.3484 167.56 99.2925 167.425 99.2925 167.264C99.2925 167.102 99.3484 166.967 99.4603 166.86C99.5721 166.752 99.7088 166.698 99.8704 166.698C100.032 166.698 100.169 166.752 100.28 166.86C100.392 166.967 100.448 167.102 100.448 167.264C100.448 167.425 100.392 167.56 100.28 167.667C100.173 167.775 100.038 167.829 99.8766 167.829ZM104.752 175.055H103.416L101.148 168.829H102.26L104.081 173.844L105.901 168.829H107.013L104.752 175.055ZM110.268 175.217C109.697 175.217 109.175 175.07 108.702 174.776C108.234 174.481 107.859 174.088 107.578 173.595C107.3 173.098 107.161 172.549 107.161 171.948C107.161 171.493 107.242 171.068 107.404 170.675C107.565 170.277 107.787 169.929 108.069 169.631C108.354 169.328 108.686 169.092 109.063 168.923C109.44 168.753 109.842 168.668 110.268 168.668C110.736 168.668 111.165 168.763 111.554 168.954C111.948 169.14 112.283 169.401 112.561 169.736C112.843 170.072 113.052 170.461 113.188 170.905C113.329 171.348 113.381 171.822 113.344 172.327H108.274C108.323 172.68 108.439 172.994 108.622 173.272C108.804 173.545 109.036 173.763 109.318 173.924C109.603 174.086 109.92 174.169 110.268 174.173C110.641 174.173 110.979 174.078 111.281 173.887C111.583 173.692 111.828 173.427 112.014 173.092L113.077 173.34C112.828 173.891 112.453 174.343 111.952 174.695C111.451 175.043 110.89 175.217 110.268 175.217ZM108.243 171.507H112.294C112.261 171.159 112.149 170.842 111.958 170.557C111.768 170.267 111.525 170.035 111.231 169.861C110.937 169.687 110.616 169.6 110.268 169.6C109.92 169.6 109.601 169.685 109.311 169.855C109.021 170.024 108.781 170.254 108.591 170.544C108.404 170.83 108.288 171.151 108.243 171.507ZM116.964 175.055V166.356H119.835C120.303 166.356 120.723 166.47 121.096 166.698C121.473 166.926 121.771 167.235 121.991 167.624C122.214 168.009 122.326 168.44 122.326 168.916C122.326 169.401 122.212 169.838 121.985 170.227C121.761 170.613 121.459 170.919 121.077 171.147C120.7 171.371 120.286 171.482 119.835 171.482H118.008V175.055H116.964ZM118.008 170.439H119.742C120.023 170.439 120.28 170.37 120.512 170.234C120.748 170.093 120.935 169.904 121.071 169.668C121.212 169.428 121.282 169.159 121.282 168.86C121.282 168.558 121.212 168.289 121.071 168.053C120.935 167.812 120.748 167.624 120.512 167.487C120.28 167.346 120.023 167.276 119.742 167.276H118.008V170.439ZM123.147 175.055V168.842H124.191V169.618C124.411 169.328 124.688 169.099 125.024 168.929C125.359 168.755 125.724 168.668 126.118 168.668C126.358 168.668 126.59 168.699 126.813 168.761L126.391 169.805C126.221 169.751 126.055 169.724 125.894 169.724C125.583 169.724 125.297 169.801 125.036 169.954C124.78 170.103 124.574 170.306 124.421 170.563C124.268 170.82 124.191 171.105 124.191 171.42V175.055H123.147ZM129.747 175.217C129.175 175.217 128.653 175.07 128.181 174.776C127.713 174.481 127.338 174.088 127.056 173.595C126.779 173.098 126.64 172.549 126.64 171.948C126.64 171.493 126.721 171.068 126.882 170.675C127.044 170.277 127.266 169.929 127.547 169.631C127.833 169.328 128.164 169.092 128.541 168.923C128.918 168.753 129.32 168.668 129.747 168.668C130.318 168.668 130.838 168.815 131.306 169.109C131.779 169.403 132.153 169.799 132.431 170.296C132.713 170.793 132.854 171.344 132.854 171.948C132.854 172.4 132.773 172.822 132.611 173.216C132.45 173.61 132.226 173.957 131.94 174.26C131.658 174.558 131.329 174.792 130.952 174.962C130.579 175.132 130.178 175.217 129.747 175.217ZM129.747 174.173C130.136 174.173 130.486 174.071 130.797 173.868C131.112 173.661 131.358 173.39 131.536 173.054C131.719 172.715 131.81 172.346 131.81 171.948C131.81 171.543 131.716 171.17 131.53 170.83C131.348 170.49 131.101 170.219 130.791 170.016C130.48 169.813 130.132 169.712 129.747 169.712C129.357 169.712 129.007 169.815 128.697 170.022C128.386 170.225 128.14 170.497 127.957 170.836C127.775 171.176 127.684 171.547 127.684 171.948C127.684 172.363 127.777 172.74 127.964 173.079C128.15 173.415 128.401 173.682 128.715 173.881C129.03 174.076 129.374 174.173 129.747 174.173ZM132.378 178.162V177.118C132.668 177.118 132.927 177.054 133.155 176.925C133.387 176.797 133.569 176.619 133.702 176.391C133.834 176.167 133.901 175.917 133.901 175.639V168.842H134.944V175.639C134.944 176.103 134.833 176.526 134.609 176.907C134.385 177.288 134.079 177.592 133.689 177.82C133.304 178.048 132.867 178.162 132.378 178.162ZM134.435 167.829C134.269 167.829 134.131 167.775 134.019 167.667C133.907 167.56 133.851 167.425 133.851 167.264C133.851 167.102 133.907 166.967 134.019 166.86C134.131 166.752 134.267 166.698 134.429 166.698C134.59 166.698 134.727 166.752 134.839 166.86C134.951 166.967 135.007 167.102 135.007 167.264C135.007 167.425 134.951 167.56 134.839 167.667C134.731 167.775 134.597 167.829 134.435 167.829ZM138.837 175.217C138.265 175.217 137.743 175.07 137.271 174.776C136.803 174.481 136.428 174.088 136.146 173.595C135.869 173.098 135.73 172.549 135.73 171.948C135.73 171.493 135.811 171.068 135.973 170.675C136.134 170.277 136.356 169.929 136.637 169.631C136.923 169.328 137.255 169.092 137.631 168.923C138.008 168.753 138.41 168.668 138.837 168.668C139.305 168.668 139.734 168.763 140.123 168.954C140.517 169.14 140.852 169.401 141.13 169.736C141.411 170.072 141.621 170.461 141.757 170.905C141.898 171.348 141.95 171.822 141.913 172.327H136.842C136.892 172.68 137.008 172.994 137.19 173.272C137.373 173.545 137.605 173.763 137.886 173.924C138.172 174.086 138.489 174.169 138.837 174.173C139.21 174.173 139.547 174.078 139.85 173.887C140.152 173.692 140.396 173.427 140.583 173.092L141.645 173.34C141.397 173.891 141.022 174.343 140.521 174.695C140.02 175.043 139.458 175.217 138.837 175.217ZM136.811 171.507H140.862C140.829 171.159 140.718 170.842 140.527 170.557C140.336 170.267 140.094 170.035 139.8 169.861C139.506 169.687 139.185 169.6 138.837 169.6C138.489 169.6 138.17 169.685 137.88 169.855C137.59 170.024 137.35 170.254 137.159 170.544C136.973 170.83 136.857 171.151 136.811 171.507ZM146.956 173.415L147.888 173.918C147.606 174.312 147.248 174.626 146.813 174.863C146.382 175.099 145.914 175.217 145.409 175.217C144.837 175.217 144.315 175.07 143.843 174.776C143.375 174.481 143 174.088 142.718 173.595C142.441 173.098 142.302 172.549 142.302 171.948C142.302 171.493 142.383 171.068 142.544 170.675C142.706 170.277 142.927 169.929 143.209 169.631C143.495 169.328 143.826 169.092 144.203 168.923C144.58 168.753 144.982 168.668 145.409 168.668C145.914 168.668 146.382 168.786 146.813 169.022C147.248 169.258 147.606 169.575 147.888 169.973L146.956 170.476C146.757 170.231 146.521 170.043 146.247 169.91C145.974 169.778 145.694 169.712 145.409 169.712C145.023 169.712 144.673 169.815 144.359 170.022C144.048 170.225 143.801 170.497 143.619 170.836C143.437 171.176 143.346 171.547 143.346 171.948C143.346 172.35 143.437 172.721 143.619 173.061C143.806 173.396 144.054 173.665 144.365 173.868C144.68 174.071 145.027 174.173 145.409 174.173C145.715 174.173 146.003 174.102 146.272 173.962C146.541 173.821 146.769 173.639 146.956 173.415ZM151.979 169.886H150.569L150.563 175.055H149.519L149.525 169.886H148.456V168.842H149.525L149.519 166.891H150.563L150.569 168.842H151.979V169.886ZM154.679 175.173C154.344 175.161 154.016 175.099 153.698 174.987C153.383 174.871 153.105 174.716 152.865 174.521C152.629 174.322 152.457 174.094 152.349 173.837L153.244 173.452C153.306 173.593 153.418 173.725 153.579 173.85C153.741 173.974 153.927 174.073 154.139 174.148C154.35 174.223 154.563 174.26 154.779 174.26C155.006 174.26 155.22 174.225 155.419 174.154C155.617 174.084 155.779 173.98 155.903 173.844C156.032 173.703 156.096 173.535 156.096 173.34C156.096 173.133 156.025 172.972 155.885 172.856C155.748 172.735 155.574 172.642 155.363 172.576C155.156 172.506 154.944 172.439 154.729 172.377C154.302 172.269 153.921 172.141 153.586 171.992C153.25 171.839 152.985 171.646 152.79 171.414C152.6 171.178 152.505 170.878 152.505 170.513C152.505 170.128 152.61 169.794 152.821 169.513C153.037 169.231 153.318 169.014 153.666 168.86C154.014 168.707 154.387 168.63 154.785 168.63C155.286 168.63 155.744 168.738 156.158 168.954C156.572 169.169 156.881 169.461 157.084 169.83L156.245 170.321C156.175 170.171 156.067 170.041 155.922 169.929C155.777 169.813 155.611 169.722 155.425 169.656C155.238 169.589 155.048 169.554 154.853 169.55C154.613 169.542 154.387 169.573 154.176 169.643C153.969 169.714 153.801 169.821 153.673 169.966C153.548 170.107 153.486 170.283 153.486 170.495C153.486 170.702 153.553 170.859 153.685 170.967C153.822 171.074 153.998 171.161 154.213 171.228C154.433 171.29 154.671 171.362 154.928 171.445C155.305 171.565 155.657 171.704 155.984 171.861C156.311 172.019 156.574 172.216 156.773 172.452C156.976 172.688 157.076 172.98 157.071 173.328C157.071 173.709 156.957 174.042 156.73 174.328C156.502 174.61 156.206 174.825 155.841 174.974C155.481 175.124 155.093 175.19 154.679 175.173Z" fill="black" fill-opacity="0.6"/>
<rect x="80.7747" y="80.7747" width="27.9605" height="27.9605" rx="13.9802" fill="#FCCAB1"/>
<path d="M90.1829 92.3938L94.755 95.0397L99.296 92.4093" stroke="black" stroke-width="0.77668" stroke-linecap="round" stroke-linejoin="round"/>
<path d="M94.7549 99.731V95.0347" stroke="black" stroke-width="0.77668" stroke-linecap="round" stroke-linejoin="round"/>
<path d="M93.6831 89.8256L90.9181 91.3583C90.2916 91.7052 89.779 92.5751 89.779 93.2896V96.2151C89.779 96.9296 90.2916 97.7995 90.9181 98.1464L93.6831 99.6843C94.2734 100.01 95.2416 100.01 95.8319 99.6843L98.5969 98.1464C99.2234 97.7995 99.736 96.9296 99.736 96.2151V93.2896C99.736 92.5751 99.2234 91.7052 98.5969 91.3583L95.8319 89.8204C95.2365 89.4942 94.2734 89.4942 93.6831 89.8256Z" stroke="black" stroke-width="0.77668" stroke-linecap="round" stroke-linejoin="round"/>
<path d="M184.849 105.196L195.981 95.1948C196.761 94.4935 197.937 94.4675 198.748 95.1337L203.189 98.7819C203.986 99.4372 205.14 99.424 205.922 98.7506L207.75 97.1772C208.561 96.4791 209.765 96.4936 210.559 97.2112L213.998 100.319C214.931 101.163 216.389 101.014 217.134 99.9997L223.396 91.4659C224.026 90.6065 225.37 90.848 225.661 91.8732L225.737 92.1395C225.971 92.9617 227.003 93.2285 227.606 92.6229C228.194 92.0323 229.198 92.2689 229.461 93.0599L229.922 94.4498C230.303 95.5973 231.838 95.8023 232.507 94.7951C233.015 94.0307 234.096 93.9237 234.743 94.5739L234.826 94.657C235.502 95.3357 236.626 95.2427 237.181 94.4622L241.154 88.8765C241.827 87.9301 243.277 88.0865 243.733 89.1546C244.164 90.1633 245.501 90.3746 246.221 89.5477L253.866 80.7747" stroke="#FCCAB1" stroke-width="1.06179"/>
<path d="M195.981 95.1948L185.554 104.563C185.106 104.966 184.849 105.54 184.849 106.143V120.592C184.849 121.765 185.8 122.715 186.973 122.715H251.742C252.915 122.715 253.866 121.765 253.866 120.592V80.7747L246.221 89.5477C245.501 90.3746 244.164 90.1633 243.733 89.1546C243.277 88.0865 241.827 87.9301 241.154 88.8765L237.181 94.4622C236.626 95.2427 235.502 95.3357 234.826 94.657L234.743 94.5739C234.096 93.9237 233.015 94.0307 232.507 94.7951C231.838 95.8023 230.303 95.5973 229.922 94.4499L229.461 93.0599C229.198 92.2689 228.194 92.0323 227.606 92.6229C227.003 93.2285 225.971 92.9616 225.737 92.1395L225.661 91.8732C225.37 90.848 224.026 90.6065 223.396 91.4659L217.134 99.9997C216.389 101.014 214.931 101.163 213.998 100.319L210.559 97.2112C209.765 96.4936 208.561 96.4791 207.75 97.1772L205.922 98.7506C205.14 99.424 203.986 99.4372 203.189 98.7819L198.748 95.1337C197.937 94.4675 196.761 94.4935 195.981 95.1948Z" fill="url(#paint0_linear_8_770)"/>
</g>
<defs>
<filter id="filter0_d_8_770" x="-7.62939e-06" y="0.000114441" width="332.419" height="260.188" filterUnits="userSpaceOnUse" color-interpolation-filters="sRGB">
<feFlood flood-opacity="0" result="BackgroundImageFix"/>
<feColorMatrix in="SourceAlpha" type="matrix" values="0 0 0 0 0 0 0 0 0 0 0 0 0 0 0 0 0 0 127 0" result="hardAlpha"/>
<feOffset/>
<feGaussianBlur stdDeviation="31.0672"/>
<feComposite in2="hardAlpha" operator="out"/>
<feColorMatrix type="matrix" values="0 0 0 0 0 0 0 0 0 0 0 0 0 0 0 0 0 0 0.08 0"/>
<feBlend mode="normal" in2="BackgroundImageFix" result="effect1_dropShadow_8_770"/>
<feBlend mode="normal" in="SourceGraphic" in2="effect1_dropShadow_8_770" result="shape"/>
</filter>
<linearGradient id="paint0_linear_8_770" x1="219.358" y1="80.7747" x2="219.358" y2="113.159" gradientUnits="userSpaceOnUse">
<stop stop-color="#B1E5FC"/>
<stop offset="1" stop-color="#B1E5FC" stop-opacity="0"/>
</linearGradient>
</defs>
</svg>
