<svg width="333" height="261" viewBox="0 0 333 261" fill="none" xmlns="http://www.w3.org/2000/svg">
<g filter="url(#filter0_d_8_756)">
<g clip-path="url(#clip0_8_756)">
<rect x="62.1344" y="62.1345" width="208.15" height="135.919" rx="18.6403" fill="white"/>
<path d="M223.684 171.138L221.509 173.313L220.681 172.07L219.024 173.727" stroke="#2BB048" stroke-width="0.77668" stroke-linecap="round" stroke-linejoin="round"/>
<path d="M222.648 171.138H223.684V172.174" stroke="#2BB048" stroke-width="0.77668" stroke-linecap="round" stroke-linejoin="round"/>
<path d="M219.801 177.611H222.907C225.496 177.611 226.532 176.575 226.532 173.986V170.879C226.532 168.29 225.496 167.255 222.907 167.255H219.801C217.212 167.255 216.176 168.29 216.176 170.879V173.986C216.176 176.575 217.212 177.611 219.801 177.611Z" stroke="#2BB048" stroke-width="0.77668" stroke-linecap="round" stroke-linejoin="round"/>
<path d="M235.136 176.574C234.665 176.574 234.237 176.46 233.853 176.231C233.469 176.003 233.164 175.699 232.94 175.318C232.719 174.934 232.608 174.512 232.608 174.051H233.521C233.521 174.345 233.594 174.615 233.739 174.861C233.884 175.104 234.078 175.298 234.321 175.443C234.567 175.588 234.839 175.661 235.136 175.661C235.43 175.661 235.698 175.588 235.941 175.443C236.184 175.298 236.377 175.104 236.522 174.861C236.667 174.615 236.74 174.345 236.74 174.051C236.74 173.758 236.671 173.488 236.533 173.241C236.399 172.995 236.202 172.799 235.941 172.654C235.68 172.505 235.363 172.431 234.989 172.431H233.114L233.853 168.821H237.463V169.735H234.592L234.239 171.518L235.027 171.523C235.546 171.534 236.001 171.65 236.392 171.871C236.787 172.089 237.095 172.386 237.316 172.763C237.541 173.136 237.653 173.566 237.653 174.051C237.653 174.396 237.588 174.722 237.458 175.03C237.327 175.334 237.146 175.603 236.914 175.835C236.682 176.067 236.414 176.248 236.109 176.378C235.808 176.509 235.484 176.574 235.136 176.574ZM239.014 176.574C238.876 176.574 238.758 176.525 238.66 176.427C238.566 176.329 238.519 176.21 238.519 176.068C238.519 175.934 238.566 175.818 238.66 175.72C238.758 175.623 238.876 175.574 239.014 175.574C239.155 175.574 239.274 175.623 239.372 175.72C239.47 175.818 239.519 175.934 239.519 176.068C239.519 176.21 239.47 176.329 239.372 176.427C239.274 176.525 239.155 176.574 239.014 176.574ZM240.393 176.433V175.623C240.672 175.372 240.986 175.093 241.334 174.785C241.682 174.474 242.028 174.149 242.372 173.812C242.72 173.471 243.039 173.134 243.329 172.801C243.619 172.467 243.853 172.152 244.03 171.855C244.208 171.554 244.297 171.291 244.297 171.067C244.297 170.798 244.232 170.554 244.101 170.333C243.971 170.108 243.795 169.928 243.574 169.794C243.356 169.66 243.113 169.593 242.845 169.593C242.577 169.593 242.33 169.66 242.106 169.794C241.885 169.928 241.707 170.108 241.573 170.333C241.442 170.554 241.377 170.798 241.377 171.067H240.464C240.464 170.621 240.573 170.218 240.79 169.86C241.008 169.497 241.296 169.211 241.655 169.001C242.013 168.787 242.41 168.68 242.845 168.68C243.28 168.68 243.675 168.787 244.03 169.001C244.389 169.214 244.676 169.503 244.889 169.865C245.103 170.224 245.21 170.624 245.21 171.067C245.21 171.32 245.149 171.594 245.025 171.887C244.902 172.177 244.734 172.476 244.52 172.785C244.306 173.093 244.063 173.404 243.791 173.72C243.519 174.031 243.233 174.339 242.932 174.644C242.631 174.948 242.332 175.24 242.035 175.519H245.308V176.433H240.393ZM246.665 176.433L251.057 168.821H252.112L247.719 176.433H246.665ZM247.567 171.882C247.31 171.882 247.076 171.82 246.866 171.697C246.659 171.574 246.492 171.407 246.366 171.197C246.239 170.987 246.175 170.753 246.175 170.496C246.175 170.231 246.239 169.995 246.366 169.789C246.492 169.579 246.661 169.412 246.871 169.289C247.081 169.165 247.313 169.104 247.567 169.104C247.821 169.104 248.053 169.167 248.263 169.294C248.473 169.417 248.64 169.584 248.763 169.794C248.89 170.001 248.953 170.235 248.953 170.496C248.953 170.757 248.89 170.992 248.763 171.202C248.636 171.409 248.468 171.574 248.258 171.697C248.047 171.82 247.817 171.882 247.567 171.882ZM247.567 171.213C247.766 171.213 247.935 171.144 248.073 171.007C248.214 170.865 248.285 170.695 248.285 170.496C248.285 170.293 248.214 170.122 248.073 169.985C247.935 169.843 247.766 169.773 247.567 169.773C247.368 169.773 247.197 169.843 247.056 169.985C246.915 170.122 246.844 170.293 246.844 170.496C246.844 170.695 246.915 170.865 247.056 171.007C247.197 171.144 247.368 171.213 247.567 171.213ZM251.215 176.155C250.961 176.155 250.728 176.092 250.514 175.965C250.304 175.835 250.135 175.664 250.008 175.454C249.885 175.24 249.823 175.01 249.823 174.764C249.823 174.503 249.887 174.267 250.014 174.057C250.144 173.847 250.314 173.68 250.525 173.557C250.735 173.433 250.965 173.372 251.215 173.372C251.476 173.372 251.712 173.437 251.922 173.567C252.132 173.694 252.299 173.863 252.422 174.073C252.545 174.283 252.607 174.513 252.607 174.764C252.607 175.021 252.544 175.255 252.417 175.465C252.293 175.675 252.127 175.844 251.916 175.97C251.706 176.094 251.472 176.155 251.215 176.155ZM251.215 175.487C251.414 175.487 251.585 175.416 251.726 175.275C251.868 175.133 251.938 174.963 251.938 174.764C251.938 174.564 251.868 174.394 251.726 174.252C251.585 174.111 251.414 174.04 251.215 174.04C251.016 174.04 250.845 174.111 250.704 174.252C250.563 174.394 250.492 174.564 250.492 174.764C250.492 174.963 250.563 175.133 250.704 175.275C250.845 175.416 251.016 175.487 251.215 175.487Z" fill="#2BB048"/>
<path d="M82.2661 154.055V149.992C83.0739 149.383 84.0307 148.631 85.1367 147.736C86.2427 146.829 87.3798 145.853 88.5479 144.81C89.716 143.753 90.7972 142.697 91.7913 141.641C92.7855 140.584 93.5932 139.578 94.2146 138.621C94.8483 137.664 95.1652 136.844 95.1652 136.16C95.1652 135.402 94.9788 134.713 94.606 134.091C94.2332 133.458 93.7361 132.954 93.1148 132.582C92.5059 132.209 91.8224 132.022 91.0644 132.022C90.3063 132.022 89.6166 132.209 88.9953 132.582C88.3739 132.954 87.8769 133.458 87.5041 134.091C87.1313 134.713 86.9449 135.402 86.9449 136.16H82.3966C82.3966 134.52 82.7943 133.048 83.5896 131.743C84.3849 130.425 85.435 129.388 86.7398 128.63C88.0571 127.859 89.4986 127.474 91.0644 127.474C92.655 127.474 94.1027 127.866 95.4076 128.648C96.7124 129.419 97.7562 130.463 98.5391 131.78C99.322 133.097 99.7135 134.557 99.7135 136.16C99.7135 137.005 99.5581 137.857 99.2475 138.714C98.9368 139.572 98.5019 140.435 97.9426 141.305C97.3834 142.175 96.7248 143.057 95.9668 143.952C95.2087 144.834 94.3699 145.742 93.4503 146.674C92.5432 147.593 91.5863 148.538 90.5797 149.507H99.844V154.055H82.2661ZM111.579 154.54C109.902 154.54 108.386 154.136 107.031 153.328C105.677 152.508 104.602 151.421 103.806 150.066C103.024 148.712 102.632 147.227 102.632 145.611H107.18C107.18 146.419 107.379 147.158 107.777 147.829C108.175 148.488 108.703 149.016 109.361 149.414C110.032 149.799 110.772 149.992 111.579 149.992C112.387 149.992 113.12 149.799 113.779 149.414C114.438 149.016 114.966 148.488 115.363 147.829C115.761 147.158 115.96 146.419 115.96 145.611C115.96 144.803 115.786 144.064 115.438 143.393C115.103 142.709 114.55 142.169 113.779 141.771C113.021 141.361 112.014 141.156 110.759 141.156H104.049L106.808 127.959H119.632V132.507H110.498L109.66 136.608L111.505 136.626C113.27 136.689 114.829 137.117 116.184 137.913C117.538 138.708 118.594 139.777 119.353 141.119C120.123 142.448 120.508 143.946 120.508 145.611C120.508 146.829 120.278 147.978 119.819 149.06C119.359 150.141 118.719 151.091 117.899 151.912C117.078 152.732 116.128 153.378 115.047 153.85C113.978 154.31 112.822 154.54 111.579 154.54ZM143.295 154.055H137.367L130.042 143.822L128.774 145.332V154.055H124.226V127.959H128.774V138.267L137.404 127.959H143.351L133.005 140.261L143.295 154.055Z" fill="#000019"/>
<path d="M88.1005 166.356V167.4H85.2051V175.055H84.1612V167.4H81.272V166.356H88.1005ZM90.8747 175.217C90.303 175.217 89.7811 175.07 89.3089 174.776C88.8408 174.481 88.4659 174.088 88.1842 173.595C87.9067 173.098 87.7679 172.549 87.7679 171.948C87.7679 171.493 87.8487 171.068 88.0103 170.675C88.1718 170.277 88.3934 169.929 88.6751 169.631C88.9609 169.328 89.2923 169.092 89.6692 168.923C90.0462 168.753 90.448 168.668 90.8747 168.668C91.4463 168.668 91.9662 168.815 92.4342 169.109C92.9065 169.403 93.2813 169.799 93.5589 170.296C93.8405 170.793 93.9814 171.344 93.9814 171.948C93.9814 172.4 93.9006 172.822 93.7391 173.216C93.5775 173.61 93.3538 173.957 93.068 174.26C92.7863 174.558 92.457 174.792 92.0801 174.962C91.7073 175.132 91.3055 175.217 90.8747 175.217ZM90.8747 174.173C91.264 174.173 91.6141 174.071 91.9247 173.868C92.2395 173.661 92.486 173.39 92.6641 173.054C92.8464 172.715 92.9375 172.346 92.9375 171.948C92.9375 171.543 92.8443 171.17 92.6579 170.83C92.4757 170.49 92.2292 170.219 91.9185 170.016C91.6078 169.813 91.2599 169.712 90.8747 169.712C90.4853 169.712 90.1353 169.815 89.8246 170.022C89.5139 170.225 89.2674 170.497 89.0852 170.836C88.9029 171.176 88.8118 171.547 88.8118 171.948C88.8118 172.363 88.905 172.74 89.0914 173.079C89.2778 173.415 89.5284 173.682 89.8432 173.881C90.158 174.076 90.5019 174.173 90.8747 174.173ZM97.9067 169.886H96.4963L96.4901 175.055H95.4462L95.4524 169.886H94.3837V168.842H95.4524L95.4462 166.891H96.4901L96.4963 168.842H97.9067V169.886ZM103.61 168.842H104.654V175.055H103.61L103.566 174.005C103.372 174.365 103.102 174.658 102.759 174.881C102.419 175.105 102.013 175.217 101.541 175.217C101.085 175.217 100.658 175.132 100.261 174.962C99.8632 174.788 99.5111 174.55 99.2045 174.247C98.9022 173.941 98.6661 173.589 98.4962 173.191C98.3264 172.793 98.2415 172.365 98.2415 171.905C98.2415 171.462 98.3243 171.043 98.49 170.65C98.6557 170.256 98.8856 169.913 99.1797 169.618C99.4779 169.32 99.8218 169.088 100.211 168.923C100.601 168.753 101.019 168.668 101.466 168.668C101.955 168.668 102.384 168.784 102.752 169.016C103.121 169.244 103.419 169.54 103.647 169.904L103.61 168.842ZM101.522 174.204C101.932 174.204 102.286 174.105 102.585 173.906C102.887 173.703 103.119 173.429 103.281 173.086C103.446 172.742 103.529 172.363 103.529 171.948C103.529 171.526 103.446 171.145 103.281 170.805C103.115 170.461 102.881 170.19 102.578 169.991C102.28 169.788 101.928 169.687 101.522 169.687C101.112 169.687 100.739 169.788 100.404 169.991C100.068 170.194 99.801 170.468 99.6022 170.811C99.4075 171.151 99.3102 171.53 99.3102 171.948C99.3102 172.367 99.4117 172.748 99.6146 173.092C99.8176 173.431 100.087 173.703 100.422 173.906C100.758 174.105 101.125 174.204 101.522 174.204ZM105.72 175.055V165.735H106.764V175.055H105.72ZM110.745 175.055V166.356H113.615C114.083 166.356 114.504 166.47 114.876 166.698C115.253 166.926 115.552 167.235 115.771 167.624C115.995 168.009 116.107 168.44 116.107 168.916C116.107 169.401 115.993 169.838 115.765 170.227C115.541 170.613 115.239 170.919 114.858 171.147C114.481 171.371 114.067 171.482 113.615 171.482H111.788V175.055H110.745ZM111.788 170.439H113.522C113.804 170.439 114.06 170.37 114.292 170.234C114.529 170.093 114.715 169.904 114.852 169.668C114.992 169.428 115.063 169.159 115.063 168.86C115.063 168.558 114.992 168.289 114.852 168.053C114.715 167.812 114.529 167.624 114.292 167.487C114.06 167.346 113.804 167.276 113.522 167.276H111.788V170.439ZM116.928 175.055V168.842H117.972V169.618C118.191 169.328 118.469 169.099 118.804 168.929C119.14 168.755 119.504 168.668 119.898 168.668C120.138 168.668 120.37 168.699 120.594 168.761L120.171 169.805C120.001 169.751 119.836 169.724 119.674 169.724C119.364 169.724 119.078 169.801 118.817 169.954C118.56 170.103 118.355 170.306 118.202 170.563C118.048 170.82 117.972 171.105 117.972 171.42V175.055H116.928ZM123.527 175.217C122.956 175.217 122.434 175.07 121.961 174.776C121.493 174.481 121.119 174.088 120.837 173.595C120.559 173.098 120.421 172.549 120.421 171.948C120.421 171.493 120.501 171.068 120.663 170.675C120.824 170.277 121.046 169.929 121.328 169.631C121.614 169.328 121.945 169.092 122.322 168.923C122.699 168.753 123.101 168.668 123.527 168.668C124.099 168.668 124.619 168.815 125.087 169.109C125.559 169.403 125.934 169.799 126.211 170.296C126.493 170.793 126.634 171.344 126.634 171.948C126.634 172.4 126.553 172.822 126.392 173.216C126.23 173.61 126.006 173.957 125.721 174.26C125.439 174.558 125.11 174.792 124.733 174.962C124.36 175.132 123.958 175.217 123.527 175.217ZM123.527 174.173C123.917 174.173 124.267 174.071 124.577 173.868C124.892 173.661 125.139 173.39 125.317 173.054C125.499 172.715 125.59 172.346 125.59 171.948C125.59 171.543 125.497 171.17 125.311 170.83C125.128 170.49 124.882 170.219 124.571 170.016C124.26 169.813 123.912 169.712 123.527 169.712C123.138 169.712 122.788 169.815 122.477 170.022C122.167 170.225 121.92 170.497 121.738 170.836C121.556 171.176 121.464 171.547 121.464 171.948C121.464 172.363 121.558 172.74 121.744 173.079C121.93 173.415 122.181 173.682 122.496 173.881C122.811 174.076 123.154 174.173 123.527 174.173ZM126.159 178.162V177.118C126.449 177.118 126.708 177.054 126.935 176.925C127.167 176.797 127.35 176.619 127.482 176.391C127.615 176.167 127.681 175.917 127.681 175.639V168.842H128.725V175.639C128.725 176.103 128.613 176.526 128.389 176.907C128.166 177.288 127.859 177.592 127.47 177.82C127.085 178.048 126.648 178.162 126.159 178.162ZM128.215 167.829C128.05 167.829 127.911 167.775 127.799 167.667C127.687 167.56 127.631 167.425 127.631 167.264C127.631 167.102 127.687 166.967 127.799 166.86C127.911 166.752 128.048 166.698 128.209 166.698C128.371 166.698 128.507 166.752 128.619 166.86C128.731 166.967 128.787 167.102 128.787 167.264C128.787 167.425 128.731 167.56 128.619 167.667C128.512 167.775 128.377 167.829 128.215 167.829ZM132.617 175.217C132.046 175.217 131.524 175.07 131.052 174.776C130.583 174.481 130.209 174.088 129.927 173.595C129.649 173.098 129.511 172.549 129.511 171.948C129.511 171.493 129.591 171.068 129.753 170.675C129.914 170.277 130.136 169.929 130.418 169.631C130.704 169.328 131.035 169.092 131.412 168.923C131.789 168.753 132.191 168.668 132.617 168.668C133.085 168.668 133.514 168.763 133.904 168.954C134.297 169.14 134.633 169.401 134.91 169.736C135.192 170.072 135.401 170.461 135.538 170.905C135.678 171.348 135.73 171.822 135.693 172.327H130.623C130.673 172.68 130.789 172.994 130.971 173.272C131.153 173.545 131.385 173.763 131.667 173.924C131.952 174.086 132.269 174.169 132.617 174.173C132.99 174.173 133.328 174.078 133.63 173.887C133.933 173.692 134.177 173.427 134.363 173.092L135.426 173.34C135.177 173.891 134.802 174.343 134.301 174.695C133.8 175.043 133.239 175.217 132.617 175.217ZM130.592 171.507H134.643C134.61 171.159 134.498 170.842 134.307 170.557C134.117 170.267 133.875 170.035 133.58 169.861C133.286 169.687 132.965 169.6 132.617 169.6C132.269 169.6 131.95 169.685 131.66 169.855C131.37 170.024 131.13 170.254 130.94 170.544C130.753 170.83 130.637 171.151 130.592 171.507ZM140.736 173.415L141.668 173.918C141.387 174.312 141.028 174.626 140.593 174.863C140.162 175.099 139.694 175.217 139.189 175.217C138.617 175.217 138.095 175.07 137.623 174.776C137.155 174.481 136.78 174.088 136.499 173.595C136.221 173.098 136.082 172.549 136.082 171.948C136.082 171.493 136.163 171.068 136.325 170.675C136.486 170.277 136.708 169.929 136.989 169.631C137.275 169.328 137.607 169.092 137.984 168.923C138.361 168.753 138.762 168.668 139.189 168.668C139.694 168.668 140.162 168.786 140.593 169.022C141.028 169.258 141.387 169.575 141.668 169.973L140.736 170.476C140.537 170.231 140.301 170.043 140.028 169.91C139.754 169.778 139.475 169.712 139.189 169.712C138.804 169.712 138.454 169.815 138.139 170.022C137.828 170.225 137.582 170.497 137.4 170.836C137.217 171.176 137.126 171.547 137.126 171.948C137.126 172.35 137.217 172.721 137.4 173.061C137.586 173.396 137.834 173.665 138.145 173.868C138.46 174.071 138.808 174.173 139.189 174.173C139.496 174.173 139.783 174.102 140.053 173.962C140.322 173.821 140.55 173.639 140.736 173.415ZM145.76 169.886H144.349L144.343 175.055H143.299L143.306 169.886H142.237V168.842H143.306L143.299 166.891H144.343L144.349 168.842H145.76V169.886ZM148.46 175.173C148.124 175.161 147.797 175.099 147.478 174.987C147.163 174.871 146.886 174.716 146.645 174.521C146.409 174.322 146.237 174.094 146.13 173.837L147.024 173.452C147.086 173.593 147.198 173.725 147.36 173.85C147.521 173.974 147.708 174.073 147.919 174.148C148.13 174.223 148.344 174.26 148.559 174.26C148.787 174.26 149 174.225 149.199 174.154C149.398 174.084 149.559 173.98 149.684 173.844C149.812 173.703 149.876 173.535 149.876 173.34C149.876 173.133 149.806 172.972 149.665 172.856C149.528 172.735 149.354 172.642 149.143 172.576C148.936 172.506 148.725 172.439 148.509 172.377C148.083 172.269 147.702 172.141 147.366 171.992C147.031 171.839 146.765 171.646 146.571 171.414C146.38 171.178 146.285 170.878 146.285 170.513C146.285 170.128 146.391 169.794 146.602 169.513C146.817 169.231 147.099 169.014 147.447 168.86C147.795 168.707 148.168 168.63 148.565 168.63C149.067 168.63 149.524 168.738 149.938 168.954C150.353 169.169 150.661 169.461 150.864 169.83L150.025 170.321C149.955 170.171 149.847 170.041 149.702 169.929C149.557 169.813 149.392 169.722 149.205 169.656C149.019 169.589 148.828 169.554 148.634 169.55C148.393 169.542 148.168 169.573 147.956 169.643C147.749 169.714 147.581 169.821 147.453 169.966C147.329 170.107 147.267 170.283 147.267 170.495C147.267 170.702 147.333 170.859 147.466 170.967C147.602 171.074 147.778 171.161 147.994 171.228C148.213 171.29 148.451 171.362 148.708 171.445C149.085 171.565 149.437 171.704 149.764 171.861C150.092 172.019 150.355 172.216 150.554 172.452C150.757 172.688 150.856 172.98 150.852 173.328C150.852 173.709 150.738 174.042 150.51 174.328C150.282 174.61 149.986 174.825 149.622 174.974C149.261 175.124 148.874 175.19 148.46 175.173Z" fill="black" fill-opacity="0.6"/>
<rect x="80.7749" y="80.7744" width="27.9605" height="27.9605" rx="13.9802" fill="#FFD3BD"/>
<path d="M90.1831 92.3936L94.7552 95.0394L99.2962 92.4091" stroke="black" stroke-width="0.77668" stroke-linecap="round" stroke-linejoin="round"/>
<path d="M94.7551 99.7305V95.0342" stroke="black" stroke-width="0.77668" stroke-linecap="round" stroke-linejoin="round"/>
<path d="M93.6833 89.8254L90.9183 91.358C90.2918 91.7049 89.7792 92.5748 89.7792 93.2894V96.2148C89.7792 96.9294 90.2918 97.7993 90.9183 98.1462L93.6833 99.684C94.2736 100.01 95.2418 100.01 95.8321 99.684L98.5971 98.1462C99.2236 97.7993 99.7362 96.9294 99.7362 96.2148V93.2894C99.7362 92.5748 99.2236 91.7049 98.5971 91.358L95.8321 89.8202C95.2366 89.494 94.2736 89.494 93.6833 89.8254Z" stroke="black" stroke-width="0.77668" stroke-linecap="round" stroke-linejoin="round"/>
<path d="M184.849 105.196L195.981 95.1946C196.761 94.4933 197.937 94.4673 198.748 95.1334L203.189 98.7817C203.986 99.437 205.14 99.4238 205.922 98.7504L207.75 97.177C208.561 96.4788 209.765 96.4934 210.559 97.211L213.998 100.319C214.931 101.162 216.389 101.014 217.134 99.9995L223.396 91.4656C224.026 90.6063 225.37 90.8478 225.661 91.873L225.737 92.1392C225.971 92.9614 227.003 93.2283 227.606 92.6226C228.194 92.0321 229.198 92.2687 229.461 93.0597L229.922 94.4496C230.303 95.597 231.838 95.8021 232.507 94.7949C233.015 94.0304 234.096 93.9235 234.743 94.5736L234.826 94.6567C235.502 95.3354 236.626 95.2425 237.181 94.4619L241.154 88.8762C241.827 87.9299 243.277 88.0862 243.733 89.1544C244.164 90.1631 245.501 90.3743 246.221 89.5475L253.866 80.7744" stroke="#FFD3BD" stroke-width="1.06179"/>
<path d="M195.981 95.1946L185.554 104.563C185.106 104.966 184.849 105.54 184.849 106.142V120.592C184.849 121.764 185.8 122.715 186.973 122.715H251.742C252.915 122.715 253.866 121.764 253.866 120.592V80.7744L246.221 89.5475C245.501 90.3743 244.164 90.1631 243.733 89.1544C243.277 88.0862 241.827 87.9299 241.154 88.8762L237.181 94.4619C236.626 95.2425 235.502 95.3354 234.826 94.6567L234.743 94.5736C234.096 93.9235 233.015 94.0304 232.507 94.7949C231.838 95.8021 230.303 95.597 229.922 94.4496L229.461 93.0597C229.198 92.2687 228.194 92.0321 227.606 92.6226C227.003 93.2283 225.971 92.9614 225.737 92.1392L225.661 91.873C225.37 90.8478 224.026 90.6063 223.396 91.4656L217.134 99.9995C216.389 101.014 214.931 101.162 213.998 100.319L210.559 97.211C209.765 96.4934 208.561 96.4788 207.75 97.177L205.922 98.7504C205.14 99.4238 203.986 99.437 203.189 98.7817L198.748 95.1334C197.937 94.4673 196.761 94.4933 195.981 95.1946Z" fill="url(#paint0_linear_8_756)"/>
</g>
</g>
<defs>
<filter id="filter0_d_8_756" x="-7.62939e-06" y="0.000114441" width="332.419" height="260.188" filterUnits="userSpaceOnUse" color-interpolation-filters="sRGB">
<feFlood flood-opacity="0" result="BackgroundImageFix"/>
<feColorMatrix in="SourceAlpha" type="matrix" values="0 0 0 0 0 0 0 0 0 0 0 0 0 0 0 0 0 0 127 0" result="hardAlpha"/>
<feOffset/>
<feGaussianBlur stdDeviation="31.0672"/>
<feComposite in2="hardAlpha" operator="out"/>
<feColorMatrix type="matrix" values="0 0 0 0 0 0 0 0 0 0 0 0 0 0 0 0 0 0 0.08 0"/>
<feBlend mode="normal" in2="BackgroundImageFix" result="effect1_dropShadow_8_756"/>
<feBlend mode="normal" in="SourceGraphic" in2="effect1_dropShadow_8_756" result="shape"/>
</filter>
<linearGradient id="paint0_linear_8_756" x1="219.358" y1="80.7744" x2="219.358" y2="113.159" gradientUnits="userSpaceOnUse">
<stop stop-color="#FFD3BD"/>
<stop offset="1" stop-color="#FFD3BD" stop-opacity="0"/>
</linearGradient>
<clipPath id="clip0_8_756">
<rect x="62.1344" y="62.1345" width="208.15" height="135.919" rx="18.6403" fill="white"/>
</clipPath>
</defs>
</svg>
