<svg width="328" height="394" viewBox="0 0 328 394" fill="none" xmlns="http://www.w3.org/2000/svg">
<g opacity="0.5">
<g clip-path="url(#clip0_8_650)">
<rect width="327.097" height="710.806" rx="30.1935" fill="white"/>
<rect width="327.097" height="710.806" rx="30.1935" fill="black" fill-opacity="0.2"/>
<g filter="url(#filter0_d_8_650)">
<g clip-path="url(#clip1_8_650)">
<path d="M248.32 278.921L244.798 282.443L243.456 280.43L240.772 283.114" stroke="white" stroke-width="0.813673" stroke-linecap="round" stroke-linejoin="round"/>
<path d="M246.643 278.921H248.32V280.598" stroke="white" stroke-width="0.813673" stroke-linecap="round" stroke-linejoin="round"/>
<path d="M242.03 289.404H247.062C251.256 289.404 252.933 287.727 252.933 283.533V278.501C252.933 274.308 251.256 272.63 247.062 272.63H242.03C237.837 272.63 236.159 274.308 236.159 278.501V283.533C236.159 287.727 237.837 289.404 242.03 289.404Z" stroke="white" stroke-width="0.813673" stroke-linecap="round" stroke-linejoin="round"/>
<path d="M263.237 286.214C262.598 286.214 262.029 286.07 261.531 285.783C261.038 285.491 260.65 285.104 260.368 284.621C260.087 284.133 259.946 283.592 259.946 282.998H261.214C261.214 283.355 261.297 283.682 261.463 283.979C261.629 284.271 261.863 284.505 262.165 284.681C262.467 284.857 262.824 284.945 263.237 284.945C263.594 284.945 263.926 284.857 264.233 284.681C264.545 284.505 264.797 284.271 264.988 283.979C265.179 283.682 265.275 283.355 265.275 282.998C265.275 282.55 265.159 282.178 264.928 281.881C264.701 281.579 264.384 281.355 263.977 281.209C263.574 281.058 263.113 280.983 262.595 280.983V279.964C263.31 279.964 263.881 279.815 264.309 279.518C264.741 279.221 264.958 278.783 264.958 278.205C264.958 277.898 264.875 277.616 264.709 277.359C264.543 277.103 264.324 276.899 264.052 276.748C263.785 276.592 263.498 276.514 263.191 276.514C262.879 276.514 262.58 276.592 262.293 276.748C262.006 276.899 261.772 277.103 261.591 277.359C261.41 277.616 261.319 277.898 261.319 278.205H260.051C260.051 277.797 260.134 277.415 260.3 277.057C260.472 276.7 260.703 276.386 260.995 276.114C261.292 275.842 261.626 275.631 261.999 275.48C262.371 275.324 262.764 275.246 263.176 275.246C263.715 275.246 264.216 275.379 264.679 275.646C265.141 275.913 265.514 276.27 265.796 276.718C266.083 277.166 266.226 277.661 266.226 278.205C266.226 278.693 266.103 279.143 265.856 279.556C265.609 279.969 265.275 280.258 264.852 280.424C265.219 280.55 265.529 280.746 265.781 281.013C266.032 281.274 266.221 281.576 266.347 281.919C266.478 282.261 266.543 282.621 266.543 282.998C266.543 283.587 266.389 284.125 266.083 284.613C265.781 285.101 265.378 285.491 264.875 285.783C264.377 286.07 263.831 286.214 263.237 286.214ZM267.986 286.214C267.795 286.214 267.631 286.146 267.495 286.01C267.364 285.874 267.299 285.708 267.299 285.512C267.299 285.325 267.364 285.164 267.495 285.028C267.631 284.893 267.795 284.825 267.986 284.825C268.182 284.825 268.348 284.893 268.484 285.028C268.62 285.164 268.688 285.325 268.688 285.512C268.688 285.708 268.62 285.874 268.484 286.01C268.348 286.146 268.182 286.214 267.986 286.214ZM274.445 286.017V283.164H269.901V281.881L274.128 275.45H275.714V281.896H276.763V283.164H275.714V286.017H274.445ZM271.388 281.881L274.445 281.896L274.423 277.231L271.388 281.881ZM278.653 286.017L284.752 275.45H286.216L280.117 286.017H278.653ZM279.906 279.699C279.548 279.699 279.224 279.614 278.932 279.443C278.645 279.272 278.414 279.04 278.238 278.748C278.061 278.456 277.973 278.132 277.973 277.774C277.973 277.407 278.061 277.08 278.238 276.793C278.414 276.501 278.648 276.27 278.94 276.099C279.231 275.928 279.553 275.842 279.906 275.842C280.258 275.842 280.58 275.93 280.872 276.106C281.164 276.277 281.395 276.509 281.566 276.801C281.743 277.088 281.831 277.412 281.831 277.774C281.831 278.137 281.743 278.464 281.566 278.756C281.39 279.043 281.156 279.272 280.864 279.443C280.573 279.614 280.253 279.699 279.906 279.699ZM279.906 278.771C280.183 278.771 280.417 278.675 280.608 278.484C280.804 278.288 280.902 278.051 280.902 277.774C280.902 277.493 280.804 277.256 280.608 277.065C280.417 276.869 280.183 276.771 279.906 276.771C279.629 276.771 279.392 276.869 279.196 277.065C279 277.256 278.902 277.493 278.902 277.774C278.902 278.051 279 278.288 279.196 278.484C279.392 278.675 279.629 278.771 279.906 278.771ZM284.971 285.632C284.618 285.632 284.294 285.544 283.997 285.368C283.705 285.187 283.471 284.95 283.295 284.659C283.124 284.362 283.038 284.042 283.038 283.7C283.038 283.338 283.126 283.011 283.303 282.719C283.484 282.427 283.72 282.195 284.012 282.024C284.304 281.853 284.623 281.768 284.971 281.768C285.333 281.768 285.66 281.858 285.952 282.039C286.244 282.215 286.475 282.449 286.646 282.741C286.818 283.033 286.903 283.353 286.903 283.7C286.903 284.057 286.815 284.382 286.639 284.674C286.468 284.966 286.236 285.2 285.944 285.376C285.653 285.547 285.328 285.632 284.971 285.632ZM284.971 284.704C285.247 284.704 285.484 284.606 285.68 284.41C285.877 284.213 285.975 283.977 285.975 283.7C285.975 283.423 285.877 283.187 285.68 282.99C285.484 282.794 285.247 282.696 284.971 282.696C284.694 282.696 284.457 282.794 284.261 282.99C284.065 283.187 283.967 283.423 283.967 283.7C283.967 283.977 284.065 284.213 284.261 284.41C284.457 284.606 284.694 284.704 284.971 284.704Z" fill="white"/>
<path d="M45.722 359.01V328.91H41.1394L42.8578 322.557H52.0751V359.01H45.722ZM69.5244 359.686C67.181 359.686 65.0633 359.122 63.1712 357.994C61.2791 356.848 59.7776 355.33 58.6667 353.437C57.5731 351.545 57.0263 349.471 57.0263 347.215H63.3795C63.3795 348.343 63.6572 349.376 64.2127 350.313C64.7682 351.233 65.5059 351.971 66.4259 352.526C67.3633 353.064 68.3961 353.333 69.5244 353.333C70.6527 353.333 71.6768 353.064 72.5968 352.526C73.5168 351.971 74.2545 351.233 74.81 350.313C75.3655 349.376 75.6432 348.343 75.6432 347.215C75.6432 346.086 75.4002 345.053 74.9141 344.116C74.4455 343.161 73.673 342.406 72.5968 341.851C71.5379 341.278 70.1319 340.992 68.3787 340.992H59.0052L62.8588 322.557H80.7726V328.91H68.0142L66.8425 334.638L69.4202 334.664C71.8851 334.751 74.0636 335.35 75.9556 336.461C77.8477 337.572 79.3232 339.065 80.382 340.939C81.4582 342.797 81.9964 344.888 81.9964 347.215C81.9964 348.916 81.6752 350.521 81.033 352.031C80.3907 353.542 79.4968 354.87 78.3511 356.015C77.2054 357.161 75.8775 358.063 74.3674 358.723C72.8745 359.365 71.2602 359.686 69.5244 359.686ZM113.826 359.01H105.546L95.3129 344.715L93.5424 346.824V359.01H87.1892V322.557H93.5424V336.956L105.598 322.557H113.904L99.4529 339.742L113.826 359.01Z" fill="white"/>
<path d="M47.9559 376.442V377.71H44.4384V387.01H43.1702V377.71H39.6602V376.442H47.9559ZM51.326 387.206C50.6316 387.206 49.9975 387.027 49.4238 386.67C48.8552 386.313 48.3998 385.834 48.0576 385.236C47.7204 384.632 47.5518 383.965 47.5518 383.235C47.5518 382.682 47.65 382.166 47.8462 381.688C48.0425 381.205 48.3117 380.782 48.6539 380.42C49.0011 380.052 49.4037 379.766 49.8616 379.559C50.3196 379.353 50.8077 379.25 51.326 379.25C52.0205 379.25 52.652 379.428 53.2207 379.786C53.7944 380.143 54.2498 380.624 54.5869 381.227C54.9291 381.831 55.1002 382.501 55.1002 383.235C55.1002 383.784 55.0021 384.297 54.8058 384.775C54.6096 385.253 54.3378 385.676 53.9906 386.043C53.6484 386.406 53.2484 386.69 52.7904 386.896C52.3375 387.103 51.8494 387.206 51.326 387.206ZM51.326 385.938C51.7991 385.938 52.2243 385.814 52.6017 385.568C52.9842 385.316 53.2836 384.987 53.5 384.579C53.7214 384.166 53.8321 383.718 53.8321 383.235C53.8321 382.742 53.7189 382.289 53.4924 381.877C53.271 381.464 52.9716 381.134 52.5942 380.888C52.2167 380.641 51.794 380.518 51.326 380.518C50.853 380.518 50.4278 380.644 50.0504 380.895C49.6729 381.142 49.3735 381.472 49.1521 381.884C48.9307 382.297 48.82 382.747 48.82 383.235C48.82 383.739 48.9332 384.196 49.1596 384.609C49.3861 385.017 49.6906 385.341 50.073 385.583C50.4555 385.819 50.8731 385.938 51.326 385.938ZM59.8689 380.729H58.1554L58.1479 387.01H56.8798L56.8873 380.729H55.589V379.461H56.8873L56.8798 377.091H58.1479L58.1554 379.461H59.8689V380.729ZM66.7974 379.461H68.0655V387.01H66.7974L66.7446 385.734C66.508 386.172 66.1809 386.526 65.7633 386.798C65.3506 387.07 64.8575 387.206 64.2838 387.206C63.7302 387.206 63.2119 387.103 62.7288 386.896C62.2457 386.685 61.818 386.396 61.4456 386.028C61.0782 385.656 60.7914 385.228 60.5851 384.745C60.3788 384.262 60.2756 383.741 60.2756 383.182C60.2756 382.644 60.3762 382.136 60.5775 381.658C60.7788 381.18 61.0581 380.762 61.4154 380.405C61.7777 380.042 62.1954 379.761 62.6684 379.559C63.1415 379.353 63.6497 379.25 64.1932 379.25C64.787 379.25 65.3078 379.391 65.7557 379.672C66.2036 379.949 66.5659 380.309 66.8427 380.752L66.7974 379.461ZM64.2611 385.975C64.7593 385.975 65.1896 385.855 65.5519 385.613C65.9193 385.366 66.2011 385.034 66.3973 384.617C66.5986 384.199 66.6993 383.739 66.6993 383.235C66.6993 382.722 66.5986 382.259 66.3973 381.846C66.196 381.429 65.9117 381.099 65.5444 380.858C65.182 380.611 64.7543 380.488 64.2611 380.488C63.7629 380.488 63.31 380.611 62.9024 380.858C62.4948 381.104 62.1702 381.436 61.9287 381.854C61.6922 382.267 61.5739 382.727 61.5739 383.235C61.5739 383.744 61.6972 384.207 61.9438 384.624C62.1904 385.037 62.5175 385.366 62.9251 385.613C63.3327 385.855 63.778 385.975 64.2611 385.975ZM69.3608 387.01V375.687H70.6289V387.01H69.3608ZM79.1863 387.206C78.6177 387.206 78.0691 387.118 77.5408 386.942C77.0124 386.76 76.5494 386.504 76.1519 386.172C75.7593 385.84 75.48 385.444 75.314 384.987L76.4991 384.541C76.5997 384.823 76.7859 385.07 77.0577 385.281C77.3344 385.487 77.659 385.648 78.0314 385.764C78.4038 385.88 78.7888 385.938 79.1863 385.938C79.6392 385.938 80.0594 385.865 80.4469 385.719C80.8394 385.568 81.1564 385.359 81.398 385.092C81.6395 384.826 81.7603 384.514 81.7603 384.156C81.7603 383.789 81.6345 383.489 81.3829 383.258C81.1313 383.021 80.8092 382.835 80.4167 382.699C80.0242 382.558 79.614 382.45 79.1863 382.375C78.4566 382.254 77.8024 382.083 77.2237 381.862C76.65 381.635 76.1946 381.321 75.8575 380.918C75.5253 380.515 75.3593 379.984 75.3593 379.325C75.3593 378.711 75.5354 378.175 75.8877 377.717C76.2449 377.26 76.7155 376.905 77.2992 376.653C77.8829 376.402 78.512 376.276 79.1863 376.276C79.7449 376.276 80.2859 376.364 80.8092 376.54C81.3376 376.711 81.8031 376.963 82.2057 377.295C82.6082 377.627 82.8976 378.032 83.0737 378.51L81.8735 378.948C81.7729 378.661 81.5842 378.414 81.3074 378.208C81.0357 377.997 80.7136 377.836 80.3412 377.725C79.9739 377.609 79.5889 377.551 79.1863 377.551C78.7384 377.546 78.3208 377.619 77.9333 377.77C77.5458 377.921 77.2313 378.13 76.9897 378.397C76.7482 378.664 76.6274 378.973 76.6274 379.325C76.6274 379.748 76.7381 380.073 76.9595 380.299C77.186 380.52 77.4929 380.686 77.8804 380.797C78.2679 380.908 78.7032 381.006 79.1863 381.092C79.8707 381.207 80.5048 381.391 81.0885 381.643C81.6722 381.889 82.1402 382.219 82.4925 382.631C82.8498 383.044 83.0284 383.552 83.0284 384.156C83.0284 384.77 82.8498 385.306 82.4925 385.764C82.1402 386.222 81.6722 386.577 81.0885 386.828C80.5048 387.08 79.8707 387.206 79.1863 387.206ZM91.1976 382.314V387.01H89.9294V382.594C89.9294 382.211 89.8363 381.864 89.6501 381.552C89.4639 381.24 89.2148 380.993 88.9028 380.812C88.5908 380.626 88.2436 380.533 87.8612 380.533C87.4838 380.533 87.1365 380.626 86.8195 380.812C86.5075 380.993 86.2584 381.24 86.0722 381.552C85.886 381.864 85.7929 382.211 85.7929 382.594V387.01H84.5248V375.687H85.7929V380.405C86.0596 380.052 86.3968 379.773 86.8044 379.567C87.212 379.355 87.6548 379.25 88.1329 379.25C88.6965 379.25 89.2098 379.388 89.6728 379.665C90.1408 379.937 90.5107 380.304 90.7824 380.767C91.0592 381.23 91.1976 381.746 91.1976 382.314ZM92.4052 379.461H93.6733V387.01H92.4052V379.461ZM93.0543 378.231C92.8531 378.231 92.6845 378.165 92.5486 378.034C92.4127 377.904 92.3448 377.74 92.3448 377.544C92.3448 377.348 92.4127 377.184 92.5486 377.053C92.6845 376.922 92.8505 376.857 93.0468 376.857C93.2431 376.857 93.4091 376.922 93.545 377.053C93.6809 377.184 93.7488 377.348 93.7488 377.544C93.7488 377.74 93.6809 377.904 93.545 378.034C93.4141 378.165 93.2506 378.231 93.0543 378.231ZM96.3789 390.784H95.1108V379.461H96.3789V380.752C96.6356 380.309 96.9778 379.952 97.4055 379.68C97.8333 379.403 98.3415 379.265 98.9303 379.265C99.4788 379.265 99.9921 379.368 100.47 379.574C100.953 379.781 101.376 380.068 101.738 380.435C102.101 380.797 102.385 381.217 102.591 381.695C102.798 382.174 102.901 382.687 102.901 383.235C102.901 383.784 102.798 384.3 102.591 384.783C102.385 385.266 102.101 385.691 101.738 386.058C101.376 386.421 100.953 386.705 100.47 386.911C99.9921 387.118 99.4788 387.221 98.9303 387.221C98.3415 387.221 97.8333 387.085 97.4055 386.813C96.9778 386.536 96.6356 386.177 96.3789 385.734V390.784ZM98.9152 380.495C98.4271 380.495 97.9993 380.619 97.632 380.865C97.2646 381.112 96.9803 381.441 96.779 381.854C96.5827 382.267 96.4846 382.727 96.4846 383.235C96.4846 383.739 96.5827 384.199 96.779 384.617C96.9803 385.034 97.2621 385.366 97.6244 385.613C97.9918 385.86 98.422 385.983 98.9152 385.983C99.4033 385.983 99.8512 385.862 100.259 385.621C100.666 385.374 100.994 385.044 101.24 384.632C101.487 384.214 101.61 383.749 101.61 383.235C101.61 382.732 101.489 382.274 101.248 381.862C101.006 381.444 100.682 381.112 100.274 380.865C99.8663 380.619 99.4134 380.495 98.9152 380.495ZM103.861 387.01V379.461H105.129V380.405C105.396 380.052 105.731 379.773 106.133 379.567C106.541 379.355 106.984 379.25 107.462 379.25C108.02 379.25 108.531 379.386 108.994 379.657C109.457 379.929 109.822 380.289 110.088 380.737C110.355 380.289 110.717 379.929 111.175 379.657C111.638 379.386 112.147 379.25 112.7 379.25C113.269 379.25 113.785 379.388 114.248 379.665C114.711 379.937 115.078 380.304 115.35 380.767C115.626 381.23 115.765 381.746 115.765 382.314V387.01H114.497V382.616C114.497 382.244 114.406 381.899 114.225 381.582C114.044 381.265 113.8 381.011 113.493 380.82C113.186 380.629 112.846 380.533 112.474 380.533C112.101 380.533 111.762 380.624 111.455 380.805C111.148 380.981 110.904 381.227 110.723 381.544C110.541 381.856 110.451 382.214 110.451 382.616V387.01H109.183V382.616C109.183 382.214 109.092 381.856 108.911 381.544C108.73 381.227 108.483 380.981 108.171 380.805C107.864 380.624 107.525 380.533 107.152 380.533C106.785 380.533 106.445 380.629 106.133 380.82C105.826 381.011 105.582 381.265 105.401 381.582C105.22 381.899 105.129 382.244 105.129 382.616V387.01H103.861ZM120.149 387.206C119.455 387.206 118.821 387.027 118.247 386.67C117.678 386.313 117.223 385.834 116.881 385.236C116.543 384.632 116.375 383.965 116.375 383.235C116.375 382.682 116.473 382.166 116.669 381.688C116.865 381.205 117.135 380.782 117.477 380.42C117.824 380.052 118.227 379.766 118.685 379.559C119.143 379.353 119.631 379.25 120.149 379.25C120.718 379.25 121.239 379.366 121.712 379.597C122.19 379.823 122.597 380.14 122.934 380.548C123.277 380.956 123.531 381.429 123.697 381.967C123.868 382.506 123.931 383.082 123.885 383.696H117.726C117.786 384.124 117.927 384.506 118.149 384.843C118.37 385.175 118.652 385.439 118.994 385.636C119.341 385.832 119.726 385.933 120.149 385.938C120.602 385.938 121.012 385.822 121.379 385.59C121.747 385.354 122.044 385.032 122.27 384.624L123.561 384.926C123.259 385.595 122.804 386.144 122.195 386.572C121.586 386.994 120.904 387.206 120.149 387.206ZM117.688 382.699H122.61C122.57 382.277 122.434 381.892 122.202 381.544C121.971 381.192 121.676 380.91 121.319 380.699C120.962 380.488 120.572 380.382 120.149 380.382C119.726 380.382 119.339 380.485 118.987 380.692C118.634 380.898 118.342 381.177 118.111 381.529C117.885 381.877 117.744 382.267 117.688 382.699ZM131.528 382.314V387.01H130.26V382.594C130.26 382.211 130.167 381.864 129.981 381.552C129.795 381.24 129.546 380.993 129.234 380.812C128.922 380.626 128.574 380.533 128.192 380.533C127.815 380.533 127.467 380.626 127.15 380.812C126.838 380.993 126.589 381.24 126.403 381.552C126.217 381.864 126.124 382.211 126.124 382.594V387.01H124.856V379.461H126.124V380.405C126.39 380.052 126.728 379.773 127.135 379.567C127.543 379.355 127.986 379.25 128.464 379.25C129.027 379.25 129.541 379.388 130.004 379.665C130.472 379.937 130.841 380.304 131.113 380.767C131.39 381.23 131.528 381.746 131.528 382.314ZM136.646 380.729H134.933L134.925 387.01H133.657L133.664 380.729H132.366V379.461H133.664L133.657 377.091H134.925L134.933 379.461H136.646V380.729Z" fill="white" fill-opacity="0.6"/>
<rect x="39.0564" y="270.954" width="29.2922" height="29.2922" rx="14.6461" fill="white"/>
<path d="M48.9127 283.126L53.7025 285.898L58.4598 283.142" stroke="black" stroke-width="0.813673" stroke-linecap="round" stroke-linejoin="round"/>
<path d="M53.7025 290.813V285.893" stroke="black" stroke-width="0.813673" stroke-linecap="round" stroke-linejoin="round"/>
<path d="M52.5796 280.436L49.683 282.042C49.0266 282.405 48.4896 283.317 48.4896 284.065V287.13C48.4896 287.879 49.0266 288.79 49.683 289.153L52.5796 290.764C53.198 291.106 54.2124 291.106 54.8308 290.764L57.7275 289.153C58.3838 288.79 58.9209 287.879 58.9209 287.13V284.065C58.9209 283.317 58.3838 282.405 57.7275 282.042L54.8308 280.431C54.207 280.089 53.198 280.089 52.5796 280.436Z" stroke="black" stroke-width="0.813673" stroke-linecap="round" stroke-linejoin="round"/>
</g>
<rect x="19.9352" y="251.833" width="287.227" height="410.091" rx="19.1213" stroke="white" stroke-width="0.813673" shape-rendering="crispEdges"/>
</g>
<path d="M48.2944 29.2922C50.7565 29.2922 52.2191 27.4412 52.2191 24.3069C52.2191 23.1267 51.9843 22.1336 51.5348 21.3661C50.884 20.173 49.7637 19.5281 48.3481 19.5281C46.2415 19.5281 44.7522 20.8889 44.7522 22.7978C44.7522 24.5907 46.094 25.8934 47.9389 25.8934C49.0726 25.8934 49.9917 25.3839 50.4479 24.5004H50.4681C50.4681 24.5004 50.4949 24.5004 50.5016 24.5004C50.515 24.5004 50.562 24.5004 50.562 24.5004C50.562 26.6286 49.7234 27.8991 48.3078 27.8991C47.476 27.8991 46.8319 27.4606 46.6105 26.7576H44.8864C45.1748 28.2861 46.5233 29.2922 48.2944 29.2922ZM48.3548 24.5713C47.2412 24.5713 46.4495 23.8103 46.4495 22.7462C46.4495 21.7079 47.2814 20.9147 48.3615 20.9147C49.4416 20.9147 50.2735 21.7208 50.2735 22.772C50.2735 23.8103 49.4618 24.5713 48.3548 24.5713Z" fill="white"/>
<path d="M55.0504 29.2019C55.6878 29.2019 56.1238 28.7633 56.1238 28.1829C56.1238 27.596 55.6878 27.1639 55.0504 27.1639C54.4198 27.1639 53.977 27.596 53.977 28.1829C53.977 28.7633 54.4198 29.2019 55.0504 29.2019ZM55.0504 24.365C55.6878 24.365 56.1238 23.9329 56.1238 23.3524C56.1238 22.7656 55.6878 22.3335 55.0504 22.3335C54.4198 22.3335 53.977 22.7656 53.977 23.3524C53.977 23.9329 54.4198 24.365 55.0504 24.365Z" fill="white"/>
<path d="M62.4035 29.0664H64.0606V27.3316H65.3688V25.9257H64.0606V19.7602H61.6186C59.9079 22.2367 58.546 24.3069 57.6738 25.8483V27.3316H62.4035V29.0664ZM59.2772 25.8676C60.4043 23.9587 61.4106 22.4302 62.3364 21.1146H62.4304V25.9644H59.2772V25.8676Z" fill="white"/>
<path d="M69.0589 29.0664H70.7897V19.7602H69.0656L66.5364 21.4628V23.0622L68.9448 21.437H69.0589V29.0664Z" fill="white"/>
<path opacity="0.35" d="M272.838 19.1985H288.93C290.079 19.1985 291.011 20.1296 291.011 21.2786V26.7327C291.011 27.8816 290.079 28.8127 288.93 28.8127H272.838C271.689 28.8127 270.757 27.8816 270.757 26.7327V21.2786C270.757 20.1296 271.689 19.1985 272.838 19.1985Z" fill="white" stroke="white" stroke-width="0.960146"/>
<path opacity="0.4" d="M292.455 22.1404V25.8728C293.231 25.5567 293.736 24.8213 293.736 24.0066C293.736 23.1919 293.231 22.4565 292.455 22.1404Z" fill="white"/>
<path d="M272.205 21.8639C272.205 21.1569 272.778 20.5837 273.485 20.5837H288.282C288.989 20.5837 289.562 21.1569 289.562 21.8639V26.1464C289.562 26.8534 288.989 27.4265 288.282 27.4265H273.485C272.778 27.4265 272.205 26.8534 272.205 26.1464V21.8639Z" fill="white"/>
<path d="M255.929 26.5542C257.159 25.5475 258.961 25.5475 260.191 26.5542C260.253 26.6083 260.289 26.6845 260.29 26.7651C260.292 26.8459 260.259 26.9244 260.2 26.981L258.274 28.8608C258.217 28.9161 258.14 28.9478 258.06 28.9478C257.98 28.9477 257.902 28.916 257.846 28.8608L255.92 26.981C255.861 26.9244 255.828 26.8459 255.829 26.7651C255.831 26.6846 255.867 26.6083 255.929 26.5542ZM253.36 24.0464C256.01 21.6614 260.113 21.6614 262.763 24.0464C262.823 24.1023 262.857 24.1798 262.858 24.2603C262.859 24.3406 262.827 24.4181 262.768 24.4751L261.655 25.564C261.54 25.675 261.354 25.677 261.237 25.5688C260.366 24.8063 259.234 24.3842 258.06 24.3843C256.887 24.3848 255.756 24.8069 254.886 25.5688C254.768 25.677 254.583 25.675 254.468 25.564L253.355 24.4751C253.296 24.4182 253.264 24.3406 253.265 24.2603C253.266 24.1797 253.3 24.1023 253.36 24.0464ZM250.788 21.5435C254.853 17.7741 261.266 17.7741 265.33 21.5435C265.389 21.5994 265.422 21.6757 265.422 21.7554C265.423 21.8352 265.391 21.9126 265.332 21.9692L264.218 23.0571C264.103 23.1687 263.917 23.1707 263.8 23.061C262.252 21.6364 260.197 20.8415 258.06 20.8413C255.923 20.8413 253.868 21.6363 252.319 23.061C252.202 23.171 252.016 23.169 251.901 23.0571L250.786 21.9692C250.727 21.9125 250.695 21.8352 250.696 21.7554C250.696 21.6756 250.73 21.5994 250.788 21.5435Z" fill="white"/>
<path d="M231.384 25.2488C231.917 25.2489 232.348 25.6662 232.348 26.1814V28.0476C232.348 28.5629 231.917 28.981 231.384 28.9812H230.42C229.887 28.9811 229.456 28.5629 229.456 28.0476V26.1814C229.456 25.6661 229.887 25.2489 230.42 25.2488H231.384ZM235.884 23.3826C236.416 23.3826 236.848 23.8008 236.848 24.3162V28.0486C236.848 28.5639 236.416 28.9812 235.884 28.9812H234.92C234.387 28.9812 233.956 28.5639 233.956 28.0486V24.3162C233.956 23.8008 234.387 23.3826 234.92 23.3826H235.884ZM244.884 19.0281C245.416 19.0281 245.848 19.4455 245.848 19.9607V28.0476C245.848 28.563 245.416 28.9812 244.884 28.9812H243.92C243.387 28.9812 242.956 28.563 242.956 28.0476V19.9607C242.956 19.4455 243.387 19.0281 243.92 19.0281H244.884ZM240.384 21.2048C240.916 21.2048 241.348 21.6221 241.348 22.1375V28.0476C241.348 28.5628 240.916 28.9802 240.384 28.9802H239.42C238.887 28.9802 238.455 28.5628 238.455 28.0476V22.1375C238.455 21.6221 238.887 21.2048 239.42 21.2048H240.384Z" fill="white"/>
</g>
</g>
<defs>
<filter id="filter0_d_8_650" x="-45.5655" y="186.332" width="418.228" height="541.093" filterUnits="userSpaceOnUse" color-interpolation-filters="sRGB">
<feFlood flood-opacity="0" result="BackgroundImageFix"/>
<feColorMatrix in="SourceAlpha" type="matrix" values="0 0 0 0 0 0 0 0 0 0 0 0 0 0 0 0 0 0 127 0" result="hardAlpha"/>
<feOffset/>
<feGaussianBlur stdDeviation="32.5469"/>
<feComposite in2="hardAlpha" operator="out"/>
<feColorMatrix type="matrix" values="0 0 0 0 0 0 0 0 0 0 0 0 0 0 0 0 0 0 0.08 0"/>
<feBlend mode="normal" in2="BackgroundImageFix" result="effect1_dropShadow_8_650"/>
<feBlend mode="normal" in="SourceGraphic" in2="effect1_dropShadow_8_650" result="shape"/>
</filter>
<clipPath id="clip0_8_650">
<rect width="327.097" height="710.806" rx="30.1935" fill="white"/>
</clipPath>
<clipPath id="clip1_8_650">
<rect x="19.5284" y="251.426" width="288.04" height="410.905" rx="19.5282" fill="white"/>
</clipPath>
</defs>
</svg>
