<svg width="258" height="118" viewBox="0 0 258 118" fill="none" xmlns="http://www.w3.org/2000/svg">
<g clip-path="url(#clip0_170_345)">
<path d="M34.4668 61.1184C32.4398 61.1184 30.6554 60.6765 29.1135 59.7927C27.5718 58.8805 26.3727 57.6261 25.5162 56.0294C24.6597 54.4047 24.2314 52.5373 24.2314 50.4274C24.2314 47.8901 24.8596 45.6664 26.1158 43.7567C27.4005 41.8466 29.2134 40.3783 31.5547 39.3519C33.9243 38.3258 36.6937 37.8126 39.8629 37.8126C41.319 37.8126 42.5038 37.9123 43.4175 38.112V37.214C43.4175 35.0472 43.0177 33.4364 42.2184 32.3816C41.4189 31.2983 40.2055 30.7566 38.5782 30.7566C35.9516 30.7566 34.2671 32.1393 33.5248 34.9046C33.2964 35.7029 32.8254 36.045 32.1116 35.9309L26.2873 34.9046C25.859 34.8191 25.5592 34.6338 25.3879 34.3487C25.2452 34.0636 25.2309 33.6788 25.3451 33.1941C26.0874 30.2862 27.6577 28.034 30.0558 26.4374C32.4826 24.8124 35.5231 23.9999 39.1776 23.9999C43.5172 23.9999 46.8147 25.1688 49.0702 27.5066C51.3543 29.8443 52.4962 33.2512 52.4962 37.7273V59.237C52.4962 59.5506 52.3821 59.8212 52.1537 60.0493C51.9538 60.2489 51.6967 60.3486 51.3827 60.3486H45.8157C45.1305 60.3486 44.7023 59.978 44.531 59.237L43.6745 55.2173H43.3319C42.561 57.0988 41.4048 58.5526 39.863 59.579C38.3499 60.6054 36.5509 61.1184 34.4668 61.1184ZM33.5675 49.4011C33.5675 50.9122 33.9529 52.1238 34.7238 53.036C35.5232 53.9198 36.5938 54.3617 37.9357 54.3617C39.7058 54.3617 41.0619 53.5776 42.004 52.0096C42.9462 50.4132 43.4173 48.1324 43.4173 45.1674V42.9008C42.6179 42.7583 41.8613 42.687 41.1475 42.687C38.8065 42.687 36.9507 43.2999 35.5805 44.5259C34.2387 45.7232 33.5675 47.3486 33.5675 49.4011ZM57.8065 25.8814C57.8065 25.5678 57.9066 25.3112 58.1063 25.1116C58.3347 24.8836 58.6059 24.7695 58.92 24.7695H64.5731C64.8871 24.7695 65.1442 24.8693 65.3439 25.0689C65.5725 25.2684 65.7151 25.5393 65.7722 25.8813L66.6289 30.0721H66.9713C67.7423 28.1051 68.8413 26.6083 70.269 25.582C71.7249 24.5271 73.438 23.9998 75.4078 23.9998C77.5204 23.9998 79.3337 24.5557 80.8467 25.6675C82.3885 26.7794 83.5732 28.3616 84.4013 30.4142H84.7437C85.9999 28.2475 87.4136 26.6368 88.9837 25.5819C90.5539 24.5271 92.3095 23.9997 94.2509 23.9997C96.3636 23.9997 98.1911 24.5699 99.7324 25.7102C101.303 26.8506 102.502 28.4756 103.33 30.5852C104.158 32.6949 104.572 35.1894 104.572 38.0687V59.2365C104.572 59.55 104.458 59.8207 104.229 60.0487C104.029 60.2484 103.772 60.3481 103.458 60.3481H96.6062C96.2921 60.3481 96.0212 60.2484 95.7927 60.0487C95.5927 59.8207 95.4929 59.55 95.4929 59.2365V38.7525C95.4929 36.6713 95.0932 35.0749 94.294 33.963C93.4942 32.8512 92.3383 32.2953 90.8249 32.2953C89.1691 32.2953 87.8988 32.951 87.0134 34.2624C86.1569 35.5738 85.7289 37.4696 85.7289 39.9499V59.2362C85.7289 59.5497 85.6144 59.8204 85.386 60.0485C85.1864 60.2481 84.9291 60.3478 84.6151 60.3478H77.763C77.4495 60.3478 77.178 60.2481 76.9496 60.0485C76.7495 59.8204 76.6498 59.5497 76.6498 59.2362V38.7522C76.6498 36.671 76.2502 35.0746 75.4507 33.9628C74.6512 32.851 73.4951 32.295 71.982 32.295C70.3259 32.295 69.0554 32.9507 68.1704 34.2622C67.314 35.5735 66.8856 37.4693 66.8856 39.9496V59.2359C66.8856 59.5495 66.7716 59.8202 66.5432 60.0482C66.3433 60.2478 66.0862 60.3475 65.7722 60.3475H58.9201C58.6061 60.3475 58.3348 60.2478 58.1064 60.0482C57.9068 59.8202 57.8066 59.5495 57.8066 59.2359L57.8065 25.8814ZM109.025 50.4273C109.025 47.89 109.654 45.6663 110.91 43.7566C112.194 41.8464 114.007 40.3781 116.349 39.3518C118.718 38.3256 121.488 37.8124 124.657 37.8124C126.113 37.8124 127.297 37.9121 128.211 38.1118V37.2138C128.211 35.047 127.811 33.4362 127.012 32.3814C126.213 31.2981 124.999 30.7564 123.372 30.7564C120.745 30.7564 119.061 32.1391 118.319 34.9045C118.09 35.7027 117.619 36.0448 116.905 35.9308L111.081 34.9045C110.653 34.8189 110.353 34.6336 110.182 34.3486C110.039 34.0635 110.024 33.6786 110.139 33.194C110.881 30.2861 112.451 28.0338 114.85 26.4373C117.276 24.8123 120.317 23.9998 123.971 23.9998C128.311 23.9998 131.608 25.1686 133.864 27.5064C136.148 29.8441 137.29 33.251 137.29 37.7272V59.2369C137.29 59.5504 137.176 59.8211 136.947 60.0491C136.747 60.2488 136.491 60.3485 136.177 60.3485H130.61C129.924 60.3485 129.496 59.9778 129.325 59.2369L128.468 55.2172H128.126C127.355 57.0986 126.198 58.5524 124.657 59.5788C123.144 60.6052 121.345 61.1184 119.261 61.1184C117.176 61.1184 115.449 60.6765 113.907 59.7927C112.366 58.8804 111.167 57.626 110.31 56.0294C109.454 54.4046 109.025 52.5372 109.025 50.4273ZM118.362 49.4009C118.362 50.9121 118.747 52.1236 119.518 53.0358C120.317 53.9196 121.388 54.3615 122.729 54.3615C124.5 54.3615 125.855 53.5774 126.798 52.0094C127.74 50.4131 128.211 48.1323 128.211 45.1673V42.9007C127.411 42.7582 126.655 42.6868 125.941 42.6868C123.6 42.6868 121.745 43.2997 120.374 44.5257C119.032 45.7231 118.362 47.3484 118.362 49.4009ZM141.915 54.0622C141.915 53.4351 142.087 52.8932 142.429 52.4371L157.075 31.9536H143.371C143.057 31.9536 142.786 31.8539 142.558 31.6543C142.358 31.4262 142.258 31.1554 142.258 30.8418V25.8813C142.258 25.5677 142.358 25.3111 142.558 25.1115C142.786 24.8835 143.057 24.7694 143.371 24.7694H165.897C166.212 24.7694 166.468 24.8835 166.668 25.1115C166.896 25.3111 167.01 25.5677 167.01 25.8813V31.0556C167.01 31.6828 166.839 32.2245 166.497 32.6807L153.221 50.8977C154.02 50.7554 154.834 50.6842 155.662 50.6842C157.718 50.6842 159.602 50.8693 161.315 51.24C163.057 51.5822 164.855 52.1522 166.711 52.9505C167.367 53.2356 167.696 53.7201 167.696 54.4046V59.3223C167.696 59.7784 167.553 60.0919 167.268 60.2629C166.982 60.4055 166.625 60.3913 166.197 60.2203C164.056 59.422 162.157 58.8662 160.501 58.5524C158.874 58.2104 157.089 58.0392 155.148 58.0392C153.206 58.0392 151.351 58.2104 149.495 58.5524C147.668 58.8946 145.641 59.4504 143.414 60.2203C142.986 60.3629 142.629 60.3629 142.343 60.2203C142.058 60.049 141.915 59.7497 141.915 59.3223V54.0622ZM169.58 42.5588C169.58 39.0809 170.251 35.9306 171.593 33.1083C172.935 30.2575 174.776 28.0338 177.117 26.4371C179.487 24.8121 182.113 23.9996 184.997 23.9996C187.881 23.9996 190.536 24.8121 192.877 26.4371C195.247 28.0336 197.103 30.2573 198.444 33.1083C199.814 35.9307 200.5 39.0811 200.5 42.5588C200.5 46.037 199.814 49.2017 198.444 52.0522C197.103 54.8746 195.247 57.0983 192.877 58.7234C190.536 60.3198 187.909 61.1181 184.997 61.1181C182.085 61.1181 179.487 60.3198 177.117 58.7234C174.776 57.0984 172.935 54.8747 171.593 52.0522C170.251 49.2014 169.58 46.037 169.58 42.5588ZM179.001 42.5588C179.001 46.1795 179.516 48.9736 180.543 50.9405C181.571 52.8791 183.056 53.8485 184.997 53.8485C186.938 53.8485 188.438 52.8791 189.494 50.9405C190.55 48.9736 191.078 46.1796 191.078 42.5588C191.078 38.9383 190.55 36.1587 189.494 34.22C188.438 32.2529 186.938 31.2693 184.997 31.2693C183.056 31.2693 181.571 32.2529 180.543 34.22C179.516 36.1586 179.001 38.9382 179.001 42.5588ZM205.125 25.8813C205.125 25.5677 205.225 25.3111 205.425 25.1115C205.653 24.8835 205.924 24.7694 206.238 24.7694H211.891C212.205 24.7694 212.462 24.8692 212.662 25.0688C212.89 25.2683 213.033 25.5392 213.09 25.8812L213.947 30.072H214.289C215.06 28.1334 216.188 26.6367 217.673 25.5819C219.186 24.527 220.956 23.9996 222.983 23.9996C225.152 23.9996 227.023 24.5698 228.593 25.7101C230.192 26.8505 231.42 28.4755 232.276 30.5851C233.133 32.6948 233.561 35.1893 233.561 38.0686V59.2364C233.561 59.5499 233.447 59.8206 233.218 60.0487C233.019 60.2483 232.761 60.348 232.447 60.348H225.595C225.281 60.348 225.01 60.2483 224.782 60.0487C224.582 59.8206 224.482 59.5499 224.482 59.2364V38.7524C224.482 36.6712 224.053 35.0748 223.197 33.963C222.34 32.8512 221.127 32.2952 219.557 32.2952C217.815 32.2952 216.488 32.9509 215.574 34.2624C214.661 35.5737 214.204 37.4696 214.204 39.9498V59.2362C214.204 59.5497 214.09 59.8204 213.861 60.0484C213.661 60.2481 213.405 60.3477 213.09 60.3477H206.238C205.924 60.3477 205.653 60.2481 205.425 60.0484C205.225 59.8204 205.125 59.5497 205.125 59.2362V25.8813Z" fill="#333333"/>
<path d="M48.0432 65.2653C47.5007 65.693 47.3865 66.4056 47.7006 67.4035C47.986 68.2874 48.657 69.3847 49.7133 70.6962C53.9672 75.9422 59.0346 80.3035 64.9162 83.7817C70.7978 87.2599 77.0932 89.8258 83.8024 91.4791C90.54 93.1608 97.4204 94.0019 104.444 94.0019C113.437 94.0019 122.002 92.691 130.139 90.068C138.275 87.4734 145.071 83.8242 150.524 79.1205C152.436 77.4388 153.393 76.0986 153.393 75.1006C153.393 74.7301 153.236 74.3594 152.922 73.9888C152.494 73.5614 151.98 73.4188 151.38 73.5614C150.781 73.7037 149.938 74.0601 148.853 74.6303C143.629 77.3674 137.262 79.5478 129.753 81.1731C122.274 82.827 114.465 83.6534 106.328 83.6534C96.2504 83.6534 86.5148 82.2853 77.1216 79.548C67.7289 76.8112 59.4064 72.5349 52.1547 66.7195C51.0984 65.8928 50.2418 65.3651 49.5852 65.137C48.9571 64.909 48.4429 64.9518 48.0432 65.2653Z" fill="#333333"/>
<path d="M143.198 67.4058C142.598 67.9761 142.441 68.5747 142.727 69.2021C142.926 69.6582 143.312 69.9146 143.883 69.9717C144.454 70.0572 145.267 70.0002 146.324 69.8008C148.037 69.4302 149.821 69.1734 151.677 69.0308C153.532 68.917 155.146 68.9454 156.516 69.1163C157.887 69.316 158.743 69.6582 159.086 70.1427C159.6 70.9126 159.414 72.5374 158.529 75.0178C157.673 77.498 156.502 79.907 155.017 82.2449C154.446 83.1856 154.104 83.9266 153.989 84.4688C153.875 85.0105 154.018 85.4662 154.418 85.8369C154.675 86.0934 154.96 86.2218 155.274 86.2218C156.103 86.2218 157.301 85.495 158.872 84.0409C161.698 81.5894 163.682 78.6812 164.825 75.3173C165.452 73.5781 165.838 71.7537 165.98 69.8438C166.123 67.9338 165.909 66.5652 165.338 65.7385C164.796 64.9402 163.596 64.2844 161.741 63.7715C159.914 63.2583 158.072 63.0016 156.216 63.0016C152.59 63.0016 149.15 63.857 145.896 65.5676C144.696 66.2233 143.797 66.8358 143.198 67.4058Z" fill="#333333"/>
</g>
<defs>
<clipPath id="clip0_170_345">
<rect width="209.327" height="70" fill="white" transform="translate(24.2319 24)"/>
</clipPath>
</defs>
</svg>
