<svg width="463" height="118" viewBox="0 0 463 118" fill="none" xmlns="http://www.w3.org/2000/svg">
<g clip-path="url(#clip0_170_374)">
<path d="M39.4333 56.7461C39.2824 56.5487 39.0832 56.3936 38.8549 56.2958C38.6266 56.1979 38.3769 56.1606 38.13 56.1874C37.883 56.2142 37.6471 56.3043 37.4452 56.4489C37.2432 56.5935 37.082 56.7878 36.9771 57.0129L24.531 81.8933C24.4177 82.12 24.3641 82.372 24.3755 82.6253C24.3869 82.8785 24.4629 83.1246 24.5962 83.3403C24.7295 83.556 24.9157 83.734 25.1371 83.8574C25.3586 83.9809 25.6079 84.0457 25.8615 84.0457H43.1919C43.4695 84.0522 43.7429 83.9779 43.9791 83.832C44.2153 83.686 44.404 83.4746 44.5223 83.2235C48.2607 75.4997 45.9951 63.7557 39.4333 56.7461Z" fill="url(#paint0_linear_170_374)"/>
<path d="M48.5617 34.1162C45.4605 38.8872 43.6532 44.3824 43.3173 50.0625C42.9813 55.7427 44.1282 61.4125 46.6454 66.5157L55.0006 83.2235C55.1241 83.4705 55.314 83.6783 55.549 83.8235C55.7839 83.9688 56.0547 84.0457 56.331 84.0457H73.6583C73.9118 84.0457 74.1612 83.9809 74.3826 83.8574C74.6041 83.734 74.7903 83.5559 74.9236 83.3403C75.0569 83.1246 75.1328 82.8785 75.1442 82.6252C75.1556 82.372 75.1021 82.12 74.9887 81.8933C74.9887 81.8933 51.6776 35.2729 51.0918 34.1068C50.9759 33.8695 50.7955 33.6696 50.5713 33.53C50.347 33.3905 50.0879 33.317 49.8238 33.318C49.5596 33.319 49.3011 33.3944 49.0779 33.5355C48.8546 33.6767 48.6757 33.878 48.5617 34.1162Z" fill="#333333"/>
<path d="M251.801 54.0653C251.801 60.2263 254.66 65.1178 265.841 67.2772C272.512 68.6774 273.909 69.7541 273.909 71.9773C273.909 74.1367 272.509 75.5346 267.81 75.5346C262.131 75.4325 256.566 73.9269 251.611 71.1519V81.1869C254.978 82.8383 259.425 84.6804 267.683 84.6804C279.372 84.6804 284.01 79.4685 284.01 71.7229M284.01 71.7229C284.01 64.4184 280.135 60.9879 269.208 58.6386C263.173 57.3045 261.712 55.9712 261.712 54.0653C261.712 51.6539 263.872 50.6356 267.874 50.6356C272.702 50.6356 277.467 52.0965 281.977 54.1291V44.5376C277.652 42.5695 272.942 41.593 268.191 41.6796C257.392 41.6796 251.801 46.3797 251.801 54.0653" fill="#333333"/>
<path d="M401.974 42.3143V84.0456H410.867V52.2232L414.616 60.6705L427.194 84.0456H438.375V42.3143H429.481V69.246L426.114 61.4328L416.013 42.3143H401.974Z" fill="#333333"/>
<path d="M345.407 42.3143H335.687V84.0456H345.407V42.3143Z" fill="#333333"/>
<path d="M324.472 71.7229C324.472 64.4184 320.597 60.9879 309.67 58.6386C303.635 57.3045 302.174 55.9712 302.174 54.0653C302.174 51.6539 304.334 50.6356 308.336 50.6356C313.164 50.6356 317.929 52.0965 322.439 54.1291V44.5376C318.114 42.5695 313.404 41.593 308.653 41.6796C297.853 41.6796 292.263 46.3797 292.263 54.0653C292.263 60.2263 295.122 65.1178 306.303 67.2772C312.974 68.6774 314.371 69.7541 314.371 71.9773C314.371 74.1367 312.97 75.5346 308.272 75.5346C302.593 75.4325 297.028 73.9269 292.073 71.1519V81.1869C295.44 82.8383 299.886 84.6804 308.145 84.6804C319.834 84.6804 324.472 79.4685 324.472 71.7229Z" fill="#333333"/>
<path d="M176.296 42.3143V84.0456H196.274L199.419 75.0258H186.079V42.3143H176.296Z" fill="#333333"/>
<path d="M136.825 42.3143V51.3333H147.625V84.0456H157.408V51.3333H168.97V42.3143H136.825Z" fill="#333333"/>
<path d="M122.639 42.3143H109.818L95.2639 84.0456H106.379L108.442 77.0173C113.524 78.5092 118.927 78.5092 124.009 77.0173L126.072 84.0456H137.189L122.639 42.3143ZM116.228 69.4919C114.418 69.4917 112.617 69.2327 110.88 68.7225L116.228 50.5111L121.577 68.7287C119.84 69.2368 118.039 69.4938 116.228 69.4919Z" fill="#333333"/>
<path d="M230.715 42.3143H217.895L203.34 84.0456H214.457L216.521 77.0173C221.602 78.5092 227.006 78.5092 232.087 77.0173L234.151 84.0456H245.268L230.715 42.3143ZM224.305 69.4919C222.494 69.4917 220.693 69.2327 218.956 68.7225L224.305 50.5111L229.654 68.7287C227.916 69.2368 226.115 69.4938 224.305 69.4919Z" fill="#333333"/>
<path d="M380.432 42.3143H367.612L353.057 84.0456H364.174L366.238 77.0173C371.319 78.5092 376.723 78.5092 381.804 77.0173L383.868 84.0456H394.986L380.432 42.3143ZM374.018 69.4919C372.207 69.4917 370.406 69.2327 368.669 68.7225L374.018 50.5111L379.367 68.7287C377.629 69.2368 375.828 69.4938 374.018 69.4919Z" fill="#333333"/>
</g>
<defs>
<linearGradient id="paint0_linear_170_374" x1="46.2542" y1="60.5858" x2="33.1227" y2="83.3342" gradientUnits="userSpaceOnUse">
<stop stop-color="#454545"/>
<stop offset="0.923" stop-color="#535355"/>
</linearGradient>
<clipPath id="clip0_170_374">
<rect width="414" height="51.3609" fill="white" transform="translate(24.375 33.3196)"/>
</clipPath>
</defs>
</svg>
