<svg width="77" height="77" viewBox="0 0 77 77" fill="none" xmlns="http://www.w3.org/2000/svg">
<rect width="76.6667" height="76.6667" rx="12.7778" fill="#3F56B1"/>
<path d="M46.0512 40.3137C45.5146 40.8376 45.2079 41.5915 45.2846 42.3965C45.3996 43.7765 46.6646 44.7859 48.0446 44.7859H50.4724V46.3065C50.4724 48.9515 48.3129 51.1109 45.6679 51.1109H32.7496C33.1457 50.7787 33.4907 50.3698 33.759 49.9098C34.2318 49.1431 34.5001 48.2359 34.5001 47.2776C34.5001 44.4537 32.2129 42.1665 29.389 42.1665C28.1879 42.1665 27.0762 42.5881 26.1946 43.2909V37.707C26.1946 35.062 28.354 32.9026 30.999 32.9026H45.6679C48.3129 32.9026 50.4724 35.062 50.4724 37.707V39.547H47.8912C47.1757 39.547 46.524 39.8281 46.0512 40.3137Z" stroke="white" stroke-width="1.91667" stroke-linecap="round" stroke-linejoin="round"/>
<path d="M26.1946 38.8572V33.0178C26.1946 31.4972 27.1274 30.1427 28.5457 29.6061L38.6912 25.7727C40.2757 25.1722 41.9751 26.3478 41.9751 28.0472V32.9028" stroke="white" stroke-width="1.91667" stroke-linecap="round" stroke-linejoin="round"/>
<path d="M51.8252 40.8506V43.4829C51.8252 44.1857 51.263 44.7607 50.5475 44.7862H48.043C46.663 44.7862 45.398 43.7768 45.283 42.3968C45.2064 41.5918 45.513 40.8379 46.0497 40.314C46.5225 39.8284 47.1741 39.5474 47.8897 39.5474H50.5475C51.263 39.5729 51.8252 40.1479 51.8252 40.8506Z" stroke="white" stroke-width="1.91667" stroke-linecap="round" stroke-linejoin="round"/>
<path d="M31.9446 38.3333H40.889" stroke="white" stroke-width="1.91667" stroke-linecap="round" stroke-linejoin="round"/>
<path d="M34.5002 47.2779C34.5002 48.2362 34.2318 49.1434 33.7591 49.9101C33.4907 50.3701 33.1457 50.779 32.7496 51.1112C31.8552 51.9162 30.6796 52.389 29.3891 52.389C27.5235 52.389 25.9007 51.3923 25.0191 49.9101C24.5463 49.1434 24.278 48.2362 24.278 47.2779C24.278 45.6679 25.0191 44.224 26.1946 43.2912C27.0763 42.5884 28.188 42.1667 29.3891 42.1667C32.213 42.1667 34.5002 44.454 34.5002 47.2779Z" stroke="white" stroke-width="1.91667" stroke-miterlimit="10" stroke-linecap="round" stroke-linejoin="round"/>
<path d="M27.3975 47.2773L28.6624 48.5423L31.3841 46.0251" stroke="white" stroke-width="1.91667" stroke-linecap="round" stroke-linejoin="round"/>
</svg>
