<svg width="77" height="77" viewBox="0 0 77 77" fill="none" xmlns="http://www.w3.org/2000/svg">
<rect width="76.6667" height="76.6667" rx="12.7778" fill="#B13F41"/>
<path d="M25.5555 51.1111H51.1111" stroke="white" stroke-width="1.91667" stroke-miterlimit="10" stroke-linecap="round" stroke-linejoin="round"/>
<path d="M35.4583 28.1112V51.1112H41.2083V28.1112C41.2083 26.7057 40.6333 25.5557 38.9083 25.5557H37.7583C36.0333 25.5557 35.4583 26.7057 35.4583 28.1112Z" stroke="white" stroke-width="1.91667" stroke-linecap="round" stroke-linejoin="round"/>
<path d="M26.8333 35.7777V51.1111H31.9444V35.7777C31.9444 34.3722 31.4333 33.2222 29.9 33.2222H28.8778C27.3444 33.2222 26.8333 34.3722 26.8333 35.7777Z" stroke="white" stroke-width="1.91667" stroke-linecap="round" stroke-linejoin="round"/>
<path d="M44.7222 42.1666V51.1111H49.8333V42.1666C49.8333 40.7611 49.3222 39.6111 47.7888 39.6111H46.7666C45.2333 39.6111 44.7222 40.7611 44.7222 42.1666Z" stroke="white" stroke-width="1.91667" stroke-linecap="round" stroke-linejoin="round"/>
</svg>
