<svg width="77" height="77" viewBox="0 0 77 77" fill="none" xmlns="http://www.w3.org/2000/svg">
<rect width="76.6667" height="76.6667" rx="12.7778" fill="#B19E3F"/>
<path d="M28.1368 30.6284C26.514 32.7751 25.5557 35.4457 25.5557 38.3334C25.5557 45.3868 31.2801 51.1112 38.3334 51.1112C45.3868 51.1112 51.1112 45.3868 51.1112 38.3334C51.1112 31.2801 45.3868 25.5557 38.3334 25.5557" stroke="white" stroke-width="1.91667" stroke-linecap="round" stroke-linejoin="round"/>
<path d="M29.389 38.3334C29.389 43.2784 33.3885 47.2778 38.3335 47.2778C43.2785 47.2778 47.2779 43.2784 47.2779 38.3334C47.2779 33.3884 43.2785 29.3889 38.3335 29.3889" stroke="white" stroke-width="1.91667" stroke-linecap="round" stroke-linejoin="round"/>
<path d="M38.3335 43.4444C41.1574 43.4444 43.4446 41.1572 43.4446 38.3333C43.4446 35.5094 41.1574 33.2222 38.3335 33.2222" stroke="white" stroke-width="1.91667" stroke-linecap="round" stroke-linejoin="round"/>
</svg>
