<svg width="77" height="77" viewBox="0 0 77 77" fill="none" xmlns="http://www.w3.org/2000/svg">
<rect width="76.6667" height="76.6667" rx="12.7778" fill="#FA6C25"/>
<path d="M52.3888 43.406C52.3888 48.351 48.3894 52.3505 43.4444 52.3505L44.7861 50.1143" stroke="white" stroke-width="1.91667" stroke-linecap="round" stroke-linejoin="round"/>
<path d="M24.2777 33.1839C24.2777 28.2389 28.2772 24.2395 33.2222 24.2395L31.8805 26.4756" stroke="white" stroke-width="1.91667" stroke-linecap="round" stroke-linejoin="round"/>
<path d="M31.4589 39.7007H35.0495C35.8417 39.7007 36.4934 40.4162 36.4934 41.1446C36.4934 41.9368 35.8545 42.5885 35.0495 42.5885H31.4589V39.7007Z" stroke="white" stroke-width="1.91667" stroke-miterlimit="10" stroke-linecap="round" stroke-linejoin="round"/>
<path d="M31.4589 42.5884H35.5734C36.4806 42.5884 37.2217 43.2273 37.2217 44.0323C37.2217 44.8245 36.4806 45.4762 35.5734 45.4762H31.4589V42.5884Z" stroke="white" stroke-width="1.91667" stroke-miterlimit="10" stroke-linecap="round" stroke-linejoin="round"/>
<path d="M33.7589 45.4634V46.8945" stroke="white" stroke-width="1.91667" stroke-miterlimit="10" stroke-linecap="round" stroke-linejoin="round"/>
<path d="M33.7589 38.2695V39.7006" stroke="white" stroke-width="1.91667" stroke-miterlimit="10" stroke-linecap="round" stroke-linejoin="round"/>
<path d="M41.975 42.5883C41.975 46.9455 38.4484 50.4722 34.0911 50.4722C29.7339 50.4722 26.2072 46.9455 26.2072 42.5883C26.2072 38.2311 29.7339 34.7043 34.0911 34.7043C34.2956 34.7043 34.4872 34.7171 34.7045 34.7299C38.5761 35.0238 41.6684 38.116 41.9622 41.9877C41.9622 42.1794 41.975 42.3711 41.975 42.5883Z" stroke="white" stroke-width="1.91667" stroke-miterlimit="10" stroke-linecap="round" stroke-linejoin="round"/>
<path d="M50.4723 34.0782C50.4723 38.4354 46.9456 41.9621 42.5884 41.9621H41.9623C41.6684 38.0905 38.5762 34.9982 34.7045 34.7043V34.0782C34.7045 29.721 38.2312 26.1943 42.5884 26.1943C46.9456 26.1943 50.4723 29.721 50.4723 34.0782Z" stroke="white" stroke-width="1.91667" stroke-miterlimit="10" stroke-linecap="round" stroke-linejoin="round"/>
</svg>
