<svg width="513" height="512" viewBox="0 0 513 512" fill="none" xmlns="http://www.w3.org/2000/svg">
<path d="M65.1005 238.611C73.1091 238.451 78.7952 237.009 82.1588 234.286C85.6826 231.563 87.4445 227.479 87.4445 222.033C87.4445 218.189 86.6437 210.501 85.0419 198.968C84.2411 194.003 83.5203 188.877 82.8796 183.592C82.2389 178.146 81.9186 173.341 81.9186 169.176C81.9186 154.44 86.4034 142.988 95.3731 134.819C104.503 126.65 116.756 122.566 132.133 122.566H149.912V160.767H141.262C136.137 160.767 132.453 161.888 130.211 164.131C127.968 166.373 126.847 169.737 126.847 174.222C126.847 177.265 127.488 184.392 128.769 195.605C130.211 210.02 130.931 219.39 130.931 223.715C130.931 232.845 128.769 240.373 124.444 246.299C120.28 252.226 113.873 255.99 105.224 257.591V258.072C113.873 259.674 120.28 263.438 124.444 269.364C128.769 275.29 130.931 282.818 130.931 291.948C130.931 296.273 130.211 305.643 128.769 320.059C127.488 331.271 126.847 338.478 126.847 341.682C126.847 346.006 127.968 349.29 130.211 351.532C132.453 353.775 136.137 354.896 141.262 354.896H149.912V393.097H132.133C116.756 393.097 104.503 389.013 95.3731 380.844C86.4034 372.675 81.9186 361.223 81.9186 346.487C81.9186 342.323 82.2389 337.597 82.8796 332.312C83.5203 326.866 84.2411 321.66 85.0419 316.695C86.6437 305.162 87.4445 297.554 87.4445 293.87C87.4445 282.979 79.9965 277.292 65.1005 276.812V238.611ZM172.781 254.948C172.781 238.291 176.225 223.475 183.113 210.501C190.16 197.366 200.091 187.196 212.905 179.988C225.718 172.62 240.454 168.936 257.112 168.936C278.255 168.936 296.034 174.622 310.45 185.994C324.865 197.206 334.155 212.503 338.32 231.884H287.625C284.582 225.477 280.337 220.591 274.891 217.228C269.606 213.864 263.439 212.182 256.391 212.182C245.5 212.182 236.77 216.107 230.203 223.955C223.796 231.643 220.593 241.974 220.593 254.948C220.593 268.083 223.796 278.574 230.203 286.422C236.77 294.111 245.5 297.955 256.391 297.955C263.439 297.955 269.606 296.273 274.891 292.909C280.337 289.546 284.582 284.66 287.625 278.254H338.32C334.155 297.634 324.865 313.011 310.45 324.383C296.034 335.595 278.255 341.201 257.112 341.201C240.454 341.201 225.718 337.597 212.905 330.39C200.091 323.022 190.16 312.851 183.113 299.877C176.225 286.743 172.781 271.767 172.781 254.948ZM447.112 276.812C432.216 277.292 424.768 282.979 424.768 293.87C424.768 297.554 425.568 305.162 427.17 316.695C427.971 321.66 428.692 326.866 429.333 332.312C429.973 337.597 430.294 342.323 430.294 346.487C430.294 361.223 425.729 372.675 416.599 380.844C407.629 389.013 395.456 393.097 380.08 393.097H362.3V354.896H370.95C376.075 354.896 379.759 353.775 382.002 351.532C384.244 349.29 385.365 346.006 385.365 341.682C385.365 338.478 384.725 331.271 383.443 320.059C382.002 305.643 381.281 296.273 381.281 291.948C381.281 282.818 383.363 275.29 387.528 269.364C391.852 263.438 398.339 259.674 406.988 258.072V257.591C398.339 255.99 391.852 252.226 387.528 246.299C383.363 240.373 381.281 232.845 381.281 223.715C381.281 219.39 382.002 210.02 383.443 195.605C384.725 184.392 385.365 177.265 385.365 174.222C385.365 169.737 384.244 166.373 382.002 164.131C379.759 161.888 376.075 160.767 370.95 160.767H362.3V122.566H380.08C395.456 122.566 407.629 126.65 416.599 134.819C425.729 142.988 430.294 154.44 430.294 169.176C430.294 173.341 429.973 178.146 429.333 183.592C428.692 188.877 427.971 194.003 427.17 198.968C425.568 210.501 424.768 218.189 424.768 222.033C424.768 227.479 426.449 231.563 429.813 234.286C433.337 237.009 439.103 238.451 447.112 238.611V276.812Z" fill="white"/>
</svg>
