<svg width="520" height="459" viewBox="0 0 520 459" fill="none" xmlns="http://www.w3.org/2000/svg">
<mask id="path-1-inside-1_168_417" fill="white">
<path d="M0 14.4C0 6.4471 6.4471 0 14.4 0H505.6C513.553 0 520 6.4471 520 14.4V459H0V14.4Z"/>
</mask>
<path d="M0 14.4C0 6.4471 6.4471 0 14.4 0H505.6C513.553 0 520 6.4471 520 14.4V459H0V14.4Z" fill="#1B2021"/>
<path d="M-0.96 14.4C-0.96 5.91691 5.91691 -0.96 14.4 -0.96H505.6C514.083 -0.96 520.96 5.91691 520.96 14.4H519.04C519.04 6.97729 513.023 0.96 505.6 0.96H14.4C6.97729 0.96 0.96 6.97729 0.96 14.4H-0.96ZM520 459H0H520ZM-0.96 459V14.4C-0.96 5.91691 5.91691 -0.96 14.4 -0.96V0.96C6.97729 0.96 0.96 6.97729 0.96 14.4V459H-0.96ZM505.6 -0.96C514.083 -0.96 520.96 5.91691 520.96 14.4V459H519.04V14.4C519.04 6.97729 513.023 0.96 505.6 0.96V-0.96Z" fill="#4D4D4D" mask="url(#path-1-inside-1_168_417)"/>
<rect x="13.2" y="19.2" width="110.4" height="24" rx="4.6" fill="#1E2425"/>
<rect x="13.4875" y="19.4875" width="109.825" height="23.425" rx="4.3125" stroke="#CDCDCD" stroke-opacity="0.1" stroke-width="0.575"/>
<path d="M21.7225 27.5616V31.8724C21.7225 32.4785 21.8691 32.9281 22.1624 33.2214C22.4621 33.5146 22.876 33.6612 23.4038 33.6612C23.9251 33.6612 24.3324 33.5146 24.6257 33.2214C24.9254 32.9281 25.0753 32.4785 25.0753 31.8724V27.5616H25.9649V31.8626C25.9649 32.4296 25.8508 32.9086 25.6227 33.2996C25.3946 33.684 25.0851 33.9708 24.6941 34.1598C24.3096 34.3488 23.8763 34.4432 23.394 34.4432C22.9118 34.4432 22.4752 34.3488 22.0842 34.1598C21.6997 33.9708 21.3934 33.684 21.1653 33.2996C20.9438 32.9086 20.833 32.4296 20.833 31.8626V27.5616H21.7225ZM30.0587 28.9204C30.7103 28.9204 31.2382 29.1191 31.6422 29.5166C32.0463 29.9076 32.2483 30.4746 32.2483 31.2175V34.3748H31.3685V31.3446C31.3685 30.8102 31.2349 30.4029 30.9678 30.1227C30.7006 29.836 30.3356 29.6926 29.873 29.6926C29.4038 29.6926 29.029 29.8392 28.7488 30.1325C28.4751 30.4257 28.3383 30.8526 28.3383 31.413V34.3748H27.4487V29.0181H28.3383V29.7806C28.5142 29.5069 28.7521 29.2951 29.0519 29.1452C29.3581 28.9953 29.6937 28.9204 30.0587 28.9204ZM34.7863 29.7512V32.9086C34.7863 33.1692 34.8417 33.355 34.9525 33.4657C35.0633 33.57 35.2555 33.6221 35.5292 33.6221H36.1842V34.3748H35.3826C34.8874 34.3748 34.5159 34.2608 34.2683 34.0327C34.0206 33.8046 33.8968 33.4299 33.8968 32.9086V29.7512H33.2028V29.0181H33.8968V27.6692H34.7863V29.0181H36.1842V29.7512H34.7863ZM37.7214 28.1481C37.5519 28.1481 37.4086 28.0895 37.2913 27.9722C37.174 27.8549 37.1153 27.7115 37.1153 27.5421C37.1153 27.3727 37.174 27.2293 37.2913 27.112C37.4086 26.9947 37.5519 26.936 37.7214 26.936C37.8843 26.936 38.0211 26.9947 38.1319 27.112C38.2492 27.2293 38.3079 27.3727 38.3079 27.5421C38.3079 27.7115 38.2492 27.8549 38.1319 27.9722C38.0211 28.0895 37.8843 28.1481 37.7214 28.1481ZM38.1515 29.0181V34.3748H37.2619V29.0181H38.1515ZM40.7525 29.7512V32.9086C40.7525 33.1692 40.8079 33.355 40.9187 33.4657C41.0295 33.57 41.2217 33.6221 41.4954 33.6221H42.1504V34.3748H41.3488C40.8535 34.3748 40.4821 34.2608 40.2345 34.0327C39.9868 33.8046 39.863 33.4299 39.863 32.9086V29.7512H39.169V29.0181H39.863V27.6692H40.7525V29.0181H42.1504V29.7512H40.7525ZM44.1177 27.1413V34.3748H43.2281V27.1413H44.1177ZM50.5212 31.4912C50.5212 31.6606 50.5114 31.8398 50.4919 32.0288H46.2104C46.243 32.5567 46.4222 32.9705 46.748 33.2702C47.0804 33.5635 47.4812 33.7101 47.9504 33.7101C48.3349 33.7101 48.6542 33.6221 48.9083 33.4462C49.169 33.2637 49.3515 33.0226 49.4557 32.7228H50.4137C50.2703 33.2377 49.9836 33.658 49.5535 33.9838C49.1234 34.3031 48.589 34.4628 47.9504 34.4628C47.4421 34.4628 46.9859 34.3488 46.5819 34.1207C46.1844 33.8926 45.8716 33.57 45.6435 33.1529C45.4154 32.7294 45.3013 32.2406 45.3013 31.6867C45.3013 31.1328 45.4121 30.6473 45.6337 30.2302C45.8553 29.8131 46.1648 29.4938 46.5623 29.2723C46.9664 29.0442 47.429 28.9301 47.9504 28.9301C48.4587 28.9301 48.9083 29.0409 49.2993 29.2625C49.6903 29.4841 49.9901 29.7903 50.1986 30.1813C50.4137 30.5658 50.5212 31.0024 50.5212 31.4912ZM49.6024 31.3055C49.6024 30.9666 49.5274 30.6766 49.3775 30.4355C49.2276 30.1879 49.0224 30.0021 48.7617 29.8783C48.5076 29.748 48.2241 29.6828 47.9113 29.6828C47.4616 29.6828 47.0771 29.8262 46.7578 30.1129C46.445 30.3996 46.2658 30.7972 46.2202 31.3055H49.6024ZM51.363 31.6769C51.363 31.1295 51.4738 30.6505 51.6953 30.24C51.9169 29.8229 52.2199 29.5003 52.6044 29.2723C52.9954 29.0442 53.432 28.9301 53.9143 28.9301C54.3313 28.9301 54.7191 29.0279 55.0775 29.2234C55.4359 29.4124 55.7096 29.6633 55.8986 29.9761V27.1413H56.7979V34.3748H55.8986V33.368C55.7227 33.6873 55.462 33.9512 55.1166 34.1598C54.7712 34.3618 54.3672 34.4628 53.9045 34.4628C53.4288 34.4628 52.9954 34.3455 52.6044 34.1109C52.2199 33.8763 51.9169 33.5472 51.6953 33.1236C51.4738 32.7 51.363 32.2178 51.363 31.6769ZM55.8986 31.6867C55.8986 31.2827 55.8171 30.9308 55.6542 30.631C55.4913 30.3312 55.2697 30.1031 54.9895 29.9467C54.7158 29.7838 54.4128 29.7024 54.0805 29.7024C53.7481 29.7024 53.4451 29.7806 53.1714 29.937C52.8977 30.0934 52.6794 30.3214 52.5164 30.6212C52.3535 30.921 52.2721 31.2729 52.2721 31.6769C52.2721 32.0875 52.3535 32.4459 52.5164 32.7522C52.6794 33.0519 52.8977 33.2833 53.1714 33.4462C53.4451 33.6026 53.7481 33.6808 54.0805 33.6808C54.4128 33.6808 54.7158 33.6026 54.9895 33.4462C55.2697 33.2833 55.4913 33.0519 55.6542 32.7522C55.8171 32.4459 55.8986 32.0907 55.8986 31.6867ZM60.5748 30.9633C60.5748 30.2986 60.7247 29.7024 61.0244 29.1745C61.3242 28.6401 61.7315 28.2231 62.2463 27.9233C62.7677 27.6235 63.3444 27.4737 63.9765 27.4737C64.7194 27.4737 65.3678 27.6529 65.9217 28.0113C66.4756 28.3697 66.8797 28.878 67.1338 29.5362H66.0684C65.8794 29.1256 65.6057 28.8096 65.2473 28.588C64.8954 28.3664 64.4718 28.2557 63.9765 28.2557C63.5008 28.2557 63.0739 28.3664 62.696 28.588C62.318 28.8096 62.0215 29.1256 61.8064 29.5362C61.5914 29.9402 61.4839 30.4159 61.4839 30.9633C61.4839 31.5042 61.5914 31.9799 61.8064 32.3905C62.0215 32.7945 62.318 33.1073 62.696 33.3289C63.0739 33.5505 63.5008 33.6612 63.9765 33.6612C64.4718 33.6612 64.8954 33.5537 65.2473 33.3387C65.6057 33.1171 65.8794 32.801 66.0684 32.3905H67.1338C66.8797 33.0422 66.4756 33.5472 65.9217 33.9056C65.3678 34.2575 64.7194 34.4335 63.9765 34.4335C63.3444 34.4335 62.7677 34.2868 62.2463 33.9936C61.7315 33.6938 61.3242 33.28 61.0244 32.7522C60.7247 32.2243 60.5748 31.628 60.5748 30.9633ZM71.1168 28.9204C71.5208 28.9204 71.8857 29.0083 72.2116 29.1843C72.5374 29.3537 72.7915 29.6111 72.974 29.9565C73.163 30.3019 73.2575 30.7222 73.2575 31.2175V34.3748H72.3777V31.3446C72.3777 30.8102 72.2441 30.4029 71.977 30.1227C71.7098 29.836 71.3448 29.6926 70.8822 29.6926C70.413 29.6926 70.0383 29.8392 69.758 30.1325C69.4843 30.4257 69.3475 30.8526 69.3475 31.413V34.3748H68.458V27.1413H69.3475V29.7806C69.5234 29.5069 69.7646 29.2951 70.0708 29.1452C70.3836 28.9953 70.7323 28.9204 71.1168 28.9204ZM74.3782 31.6769C74.3782 31.1295 74.489 30.6505 74.7105 30.24C74.9321 29.8229 75.2351 29.5003 75.6196 29.2723C76.0106 29.0442 76.444 28.9301 76.9197 28.9301C77.3889 28.9301 77.7962 29.0311 78.1416 29.2332C78.4869 29.4352 78.7443 29.6893 78.9138 29.9956V29.0181H79.8131V34.3748H78.9138V33.3778C78.7378 33.6906 78.4739 33.9512 78.122 34.1598C77.7766 34.3618 77.3726 34.4628 76.9099 34.4628C76.4342 34.4628 76.0041 34.3455 75.6196 34.1109C75.2351 33.8763 74.9321 33.5472 74.7105 33.1236C74.489 32.7 74.3782 32.2178 74.3782 31.6769ZM78.9138 31.6867C78.9138 31.2827 78.8323 30.9308 78.6694 30.631C78.5065 30.3312 78.2849 30.1031 78.0047 29.9467C77.731 29.7838 77.428 29.7024 77.0956 29.7024C76.7633 29.7024 76.4603 29.7806 76.1866 29.937C75.9129 30.0934 75.6945 30.3214 75.5316 30.6212C75.3687 30.921 75.2873 31.2729 75.2873 31.6769C75.2873 32.0875 75.3687 32.4459 75.5316 32.7522C75.6945 33.0519 75.9129 33.2833 76.1866 33.4462C76.4603 33.6026 76.7633 33.6808 77.0956 33.6808C77.428 33.6808 77.731 33.6026 78.0047 33.4462C78.2849 33.2833 78.5065 33.0519 78.6694 32.7522C78.8323 32.4459 78.9138 32.0907 78.9138 31.6867ZM82.4013 29.7512V32.9086C82.4013 33.1692 82.4567 33.355 82.5675 33.4657C82.6783 33.57 82.8705 33.6221 83.1442 33.6221H83.7991V34.3748H82.9976C82.5023 34.3748 82.1309 34.2608 81.8832 34.0327C81.6356 33.8046 81.5118 33.4299 81.5118 32.9086V29.7512H80.8178V29.0181H81.5118V27.6692H82.4013V29.0181H83.7991V29.7512H82.4013Z" fill="#CDCDCD"/>
<path d="M96 24.3748V38.1748" stroke="#CDCDCD" stroke-opacity="0.15" stroke-width="0.593858"/>
<path d="M114.046 35.9904H105.554C105.36 35.9904 105.2 35.83 105.2 35.6366C105.2 35.4432 105.36 35.2827 105.554 35.2827H114.046C114.24 35.2827 114.4 35.4432 114.4 35.6366C114.4 35.83 114.24 35.9904 114.046 35.9904Z" fill="#CDCDCD"/>
<path d="M113.112 27.2537C112.197 26.3384 111.3 26.3148 110.362 27.2537L109.791 27.8246C109.744 27.8717 109.725 27.9472 109.744 28.0133C110.102 29.2635 111.102 30.2637 112.353 30.6223C112.371 30.627 112.39 30.6317 112.409 30.6317C112.461 30.6317 112.508 30.6129 112.546 30.5751L113.112 30.0043C113.579 29.5419 113.806 29.0937 113.806 28.6408C113.81 28.1737 113.584 27.7208 113.112 27.2537Z" fill="#CDCDCD"/>
<path d="M111.503 31.0512C111.366 30.9851 111.234 30.9191 111.107 30.8436C111.003 30.7823 110.904 30.7162 110.805 30.6454C110.725 30.5936 110.63 30.5181 110.541 30.4426C110.531 30.4379 110.498 30.4096 110.461 30.3718C110.305 30.2397 110.13 30.0698 109.975 29.8811C109.96 29.8717 109.937 29.8387 109.904 29.7962C109.857 29.7396 109.776 29.6452 109.706 29.5367C109.649 29.466 109.583 29.3622 109.522 29.2584C109.446 29.131 109.38 29.0036 109.314 28.8715C109.304 28.8501 109.294 28.8288 109.285 28.8076C109.215 28.6503 109.01 28.6043 108.889 28.726L106.186 31.4286C106.125 31.49 106.068 31.6079 106.054 31.6881L105.799 33.4951C105.752 33.8159 105.842 34.1179 106.04 34.3207C106.21 34.4859 106.446 34.5755 106.7 34.5755C106.757 34.5755 106.814 34.5708 106.87 34.5613L108.682 34.3066C108.767 34.2924 108.885 34.2358 108.941 34.1745L111.641 31.4752C111.763 31.3527 111.717 31.1426 111.558 31.0746C111.54 31.067 111.522 31.0591 111.503 31.0512Z" fill="#CDCDCD"/>
<rect x="435.6" y="19.2" width="72" height="24" rx="4.64516" fill="#1E2425"/>
<rect x="435.89" y="19.4903" width="71.4193" height="23.4194" rx="4.35484" stroke="#CDCDCD" stroke-opacity="0.15" stroke-width="0.580645"/>
<path fill-rule="evenodd" clip-rule="evenodd" d="M494.528 28.2C494.528 27.3181 495.246 26.6032 496.132 26.6032C497.017 26.6032 497.736 27.3181 497.736 28.2C497.736 29.0818 497.017 29.7967 496.132 29.7967C495.684 29.7967 495.28 29.6144 494.989 29.321L492.769 30.8328C492.789 30.9348 492.8 31.0402 492.8 31.1479C492.8 31.361 492.758 31.5648 492.682 31.7511L495.116 33.3507C495.393 33.1257 495.746 32.9903 496.132 32.9903C497.017 32.9903 497.736 33.7052 497.736 34.5871C497.736 35.4689 497.017 36.1838 496.132 36.1838C495.246 36.1838 494.528 35.4689 494.528 34.5871C494.528 34.3561 494.577 34.1362 494.666 33.9377L492.251 32.3509C491.969 32.5958 491.6 32.7446 491.196 32.7446C490.31 32.7446 489.592 32.0297 489.592 31.1479C489.592 30.266 490.31 29.5511 491.196 29.5511C491.705 29.5511 492.159 29.7874 492.453 30.1553L494.605 28.69C494.555 28.5354 494.528 28.3706 494.528 28.2Z" fill="#CDCDCD"/>
<path d="M445.718 34.4949C445.264 34.4949 444.856 34.4159 444.494 34.258C444.139 34.0935 443.859 33.8697 443.655 33.5868C443.451 33.2972 443.346 32.9649 443.34 32.5898H444.297C444.33 32.9123 444.462 33.1854 444.692 33.4091C444.929 33.6263 445.271 33.7348 445.718 33.7348C446.146 33.7348 446.482 33.6296 446.725 33.419C446.975 33.2018 447.1 32.9254 447.1 32.5898C447.1 32.3266 447.028 32.1127 446.883 31.9482C446.738 31.7837 446.557 31.6586 446.34 31.5731C446.123 31.4876 445.83 31.3954 445.462 31.2967C445.008 31.1783 444.643 31.0598 444.366 30.9414C444.096 30.8229 443.863 30.6386 443.665 30.3886C443.474 30.1319 443.379 29.7897 443.379 29.362C443.379 28.9869 443.474 28.6546 443.665 28.365C443.856 28.0755 444.123 27.8517 444.465 27.6938C444.814 27.5359 445.212 27.4569 445.659 27.4569C446.304 27.4569 446.831 27.6181 447.239 27.9406C447.653 28.263 447.887 28.6908 447.939 29.2238H446.952C446.919 28.9606 446.781 28.7303 446.538 28.5328C446.294 28.3288 445.972 28.2268 445.57 28.2268C445.195 28.2268 444.889 28.3256 444.652 28.523C444.415 28.7138 444.297 28.9836 444.297 29.3324C444.297 29.5825 444.366 29.7865 444.504 29.9444C444.649 30.1023 444.823 30.2241 445.027 30.3096C445.238 30.3886 445.531 30.4807 445.906 30.586C446.36 30.711 446.725 30.8361 447.002 30.9611C447.278 31.0796 447.515 31.2671 447.712 31.5237C447.91 31.7738 448.009 32.116 448.009 32.5503C448.009 32.8859 447.92 33.2018 447.742 33.4979C447.564 33.7941 447.301 34.0343 446.952 34.2185C446.604 34.4028 446.192 34.4949 445.718 34.4949ZM452.015 28.9178C452.423 28.9178 452.792 29.0066 453.121 29.1843C453.45 29.3554 453.706 29.6154 453.891 29.9641C454.082 30.3129 454.177 30.7374 454.177 31.2375V34.4258H453.289V31.3658C453.289 30.8262 453.154 30.4149 452.884 30.1319C452.614 29.8424 452.246 29.6976 451.778 29.6976C451.305 29.6976 450.926 29.8457 450.643 30.1418C450.367 30.4379 450.229 30.869 450.229 31.4349V34.4258H449.33V27.1213H450.229V29.7865C450.406 29.5101 450.65 29.2962 450.959 29.1448C451.275 28.9935 451.627 28.9178 452.015 28.9178ZM455.309 31.7014C455.309 31.1486 455.421 30.665 455.644 30.2504C455.868 29.8292 456.174 29.5035 456.562 29.2732C456.957 29.0428 457.395 28.9277 457.875 28.9277C458.349 28.9277 458.76 29.0297 459.109 29.2337C459.458 29.4377 459.718 29.6943 459.889 30.0036V29.0165H460.797V34.4258H459.889V33.419C459.711 33.7348 459.445 33.9981 459.089 34.2087C458.741 34.4127 458.333 34.5147 457.865 34.5147C457.385 34.5147 456.951 34.3962 456.562 34.1593C456.174 33.9224 455.868 33.5901 455.644 33.1623C455.421 32.7346 455.309 32.2476 455.309 31.7014ZM459.889 31.7113C459.889 31.3033 459.807 30.9479 459.642 30.6452C459.478 30.3425 459.254 30.1122 458.971 29.9543C458.694 29.7897 458.388 29.7075 458.053 29.7075C457.717 29.7075 457.411 29.7865 457.135 29.9444C456.858 30.1023 456.638 30.3326 456.473 30.6354C456.309 30.9381 456.227 31.2934 456.227 31.7014C456.227 32.116 456.309 32.4779 456.473 32.7872C456.638 33.0899 456.858 33.3236 457.135 33.4881C457.411 33.646 457.717 33.725 458.053 33.725C458.388 33.725 458.694 33.646 458.971 33.4881C459.254 33.3236 459.478 33.0899 459.642 32.7872C459.807 32.4779 459.889 32.1193 459.889 31.7113ZM463.213 29.895C463.371 29.5857 463.595 29.3456 463.884 29.1745C464.181 29.0034 464.539 28.9178 464.96 28.9178V29.8457H464.723C463.717 29.8457 463.213 30.3919 463.213 31.4843V34.4258H462.315V29.0165H463.213V29.895ZM470.933 31.5139C470.933 31.685 470.923 31.8659 470.903 32.0568H466.58C466.613 32.5898 466.794 33.0077 467.123 33.3104C467.458 33.6065 467.863 33.7546 468.337 33.7546C468.725 33.7546 469.047 33.6657 469.304 33.4881C469.567 33.3038 469.752 33.0603 469.857 32.7576H470.824C470.679 33.2775 470.39 33.7019 469.956 34.031C469.521 34.3534 468.982 34.5147 468.337 34.5147C467.823 34.5147 467.363 34.3995 466.955 34.1692C466.553 33.9388 466.237 33.6131 466.007 33.1919C465.777 32.7642 465.662 32.2706 465.662 31.7113C465.662 31.1519 465.774 30.6617 465.997 30.2405C466.221 29.8194 466.534 29.4969 466.935 29.2732C467.343 29.0428 467.81 28.9277 468.337 28.9277C468.85 28.9277 469.304 29.0396 469.699 29.2633C470.094 29.487 470.396 29.7963 470.607 30.1912C470.824 30.5794 470.933 31.0203 470.933 31.5139ZM470.005 31.3263C470.005 30.9841 469.929 30.6913 469.778 30.4478C469.626 30.1977 469.419 30.0102 469.156 29.8852C468.899 29.7536 468.613 29.6877 468.297 29.6877C467.843 29.6877 467.455 29.8325 467.132 30.1221C466.817 30.4116 466.636 30.813 466.59 31.3263H470.005Z" fill="#CDCDCD"/>
<path d="M479.729 24.4258V38.3613" stroke="#CDCDCD" stroke-opacity="0.15" stroke-width="0.599688"/>
<rect x="184.196" y="63.3701" width="151.861" height="31.6327" rx="15.8163" stroke="#CDCDCD" stroke-opacity="0.1" stroke-width="0.568795"/>
<path d="M193.502 79.2163C193.502 78.4427 193.68 77.7488 194.037 77.1345C194.401 76.5202 194.89 76.0424 195.504 75.7011C196.126 75.3523 196.805 75.1778 197.54 75.1778C198.382 75.1778 199.129 75.3864 199.781 75.8035C200.441 76.213 200.919 76.797 201.215 77.5554H199.656C199.452 77.1383 199.167 76.8273 198.803 76.6226C198.439 76.4178 198.018 76.3154 197.54 76.3154C197.017 76.3154 196.551 76.433 196.141 76.6681C195.732 76.9032 195.409 77.2407 195.174 77.6805C194.947 78.1204 194.833 78.6323 194.833 79.2163C194.833 79.8002 194.947 80.3122 195.174 80.752C195.409 81.1919 195.732 81.5332 196.141 81.7759C196.551 82.011 197.017 82.1285 197.54 82.1285C198.018 82.1285 198.439 82.0261 198.803 81.8214C199.167 81.6166 199.452 81.3056 199.656 80.8885H201.215C200.919 81.6469 200.441 82.2309 199.781 82.6404C199.129 83.05 198.382 83.2547 197.54 83.2547C196.797 83.2547 196.118 83.0841 195.504 82.7428C194.89 82.3939 194.401 81.9124 194.037 81.2981C193.68 80.6838 193.502 79.9898 193.502 79.2163ZM205.452 83.2888C204.86 83.2888 204.325 83.1561 203.848 82.8907C203.37 82.6177 202.994 82.2385 202.721 81.7531C202.448 81.2601 202.312 80.6913 202.312 80.0467C202.312 79.4097 202.452 78.8447 202.733 78.3517C203.013 77.8587 203.396 77.4795 203.882 77.2141C204.367 76.9487 204.909 76.816 205.509 76.816C206.108 76.816 206.65 76.9487 207.135 77.2141C207.621 77.4795 208.004 77.8587 208.284 78.3517C208.565 78.8447 208.705 79.4097 208.705 80.0467C208.705 80.6838 208.561 81.2488 208.273 81.7417C207.985 82.2347 207.59 82.6177 207.09 82.8907C206.597 83.1561 206.051 83.2888 205.452 83.2888ZM205.452 82.1626C205.785 82.1626 206.096 82.083 206.384 81.9237C206.68 81.7645 206.919 81.5256 207.101 81.2071C207.283 80.8885 207.374 80.5017 207.374 80.0467C207.374 79.5917 207.287 79.2087 207.113 78.8977C206.938 78.5792 206.707 78.3403 206.419 78.1811C206.13 78.0218 205.819 77.9422 205.486 77.9422C205.152 77.9422 204.841 78.0218 204.553 78.1811C204.272 78.3403 204.049 78.5792 203.882 78.8977C203.715 79.2087 203.631 79.5917 203.631 80.0467C203.631 80.7217 203.802 81.245 204.143 81.6166C204.492 81.9806 204.928 82.1626 205.452 82.1626ZM209.555 80.024C209.555 79.3945 209.684 78.8371 209.942 78.3517C210.207 77.8663 210.564 77.4909 211.011 77.2255C211.466 76.9525 211.97 76.816 212.524 76.816C212.934 76.816 213.335 76.907 213.73 77.089C214.132 77.2634 214.45 77.4985 214.685 77.7943V74.7683H215.994V83.1865H214.685V82.2423C214.473 82.5456 214.177 82.7959 213.798 82.9931C213.426 83.1903 212.998 83.2888 212.513 83.2888C211.967 83.2888 211.466 83.1523 211.011 82.8793C210.564 82.5987 210.207 82.2119 209.942 81.719C209.684 81.2184 209.555 80.6534 209.555 80.024ZM214.685 80.0467C214.685 79.6144 214.594 79.239 214.412 78.9205C214.238 78.602 214.007 78.3593 213.718 78.1924C213.43 78.0256 213.119 77.9422 212.786 77.9422C212.452 77.9422 212.141 78.0256 211.853 78.1924C211.565 78.3517 211.33 78.5906 211.147 78.9091C210.973 79.2201 210.886 79.5917 210.886 80.024C210.886 80.4562 210.973 80.8354 211.147 81.1616C211.33 81.4877 211.565 81.7379 211.853 81.9124C212.149 82.0792 212.46 82.1626 212.786 82.1626C213.119 82.1626 213.43 82.0792 213.718 81.9124C214.007 81.7455 214.238 81.5028 214.412 81.1843C214.594 80.8582 214.685 80.479 214.685 80.0467ZM223.442 79.8988C223.442 80.1339 223.427 80.3463 223.396 80.5359H218.607C218.645 81.0364 218.831 81.4384 219.164 81.7417C219.498 82.0451 219.908 82.1968 220.393 82.1968C221.091 82.1968 221.584 81.9048 221.872 81.3208H223.271C223.082 81.8972 222.737 82.3712 222.236 82.7428C221.743 83.1068 221.129 83.2888 220.393 83.2888C219.794 83.2888 219.255 83.1561 218.778 82.8907C218.307 82.6177 217.936 82.2385 217.663 81.7531C217.397 81.2601 217.265 80.6913 217.265 80.0467C217.265 79.4021 217.394 78.8371 217.651 78.3517C217.917 77.8587 218.285 77.4795 218.755 77.2141C219.233 76.9487 219.779 76.816 220.393 76.816C220.985 76.816 221.512 76.9449 221.974 77.2027C222.437 77.4606 222.797 77.8246 223.055 78.2948C223.313 78.7574 223.442 79.2921 223.442 79.8988ZM222.088 79.4893C222.081 79.0115 221.91 78.6285 221.576 78.3403C221.242 78.0521 220.829 77.908 220.336 77.908C219.889 77.908 219.506 78.0521 219.187 78.3403C218.869 78.6209 218.679 79.0039 218.618 79.4893H222.088ZM233.045 75.2802V83.1865H231.748V77.7715L229.337 83.1865H228.438L226.015 77.7715V83.1865H224.718V75.2802H226.117L228.893 81.4801L231.657 75.2802H233.045ZM234.317 80.024C234.317 79.3945 234.446 78.8371 234.704 78.3517C234.97 77.8663 235.326 77.4909 235.774 77.2255C236.229 76.9525 236.729 76.816 237.275 76.816C237.768 76.816 238.197 76.9145 238.561 77.1117C238.932 77.3013 239.228 77.5402 239.448 77.8284V76.9183H240.756V83.1865H239.448V82.2536C239.228 82.5494 238.928 82.7959 238.549 82.9931C238.17 83.1903 237.738 83.2888 237.252 83.2888C236.714 83.2888 236.221 83.1523 235.774 82.8793C235.326 82.5987 234.97 82.2119 234.704 81.719C234.446 81.2184 234.317 80.6534 234.317 80.024ZM239.448 80.0467C239.448 79.6144 239.357 79.239 239.175 78.9205C239.001 78.602 238.769 78.3593 238.481 78.1924C238.193 78.0256 237.882 77.9422 237.548 77.9422C237.215 77.9422 236.904 78.0256 236.615 78.1924C236.327 78.3517 236.092 78.5906 235.91 78.9091C235.736 79.2201 235.648 79.5917 235.648 80.024C235.648 80.4562 235.736 80.8354 235.91 81.1616C236.092 81.4877 236.327 81.7379 236.615 81.9124C236.911 82.0792 237.222 82.1626 237.548 82.1626C237.882 82.1626 238.193 82.0792 238.481 81.9124C238.769 81.7455 239.001 81.5028 239.175 81.1843C239.357 80.8582 239.448 80.479 239.448 80.0467ZM243.973 77.9763V81.4459C243.973 81.6811 244.026 81.8517 244.132 81.9579C244.246 82.0565 244.435 82.1058 244.701 82.1058H245.497V83.1865H244.473C243.889 83.1865 243.442 83.05 243.131 82.7769C242.82 82.5039 242.664 82.0602 242.664 81.4459V77.9763H241.925V76.9183H242.664V75.3598H243.973V76.9183H245.497V77.9763H243.973ZM252.437 79.8988C252.437 80.1339 252.422 80.3463 252.392 80.5359H247.602C247.64 81.0364 247.826 81.4384 248.16 81.7417C248.493 82.0451 248.903 82.1968 249.388 82.1968C250.086 82.1968 250.579 81.9048 250.867 81.3208H252.266C252.077 81.8972 251.732 82.3712 251.231 82.7428C250.738 83.1068 250.124 83.2888 249.388 83.2888C248.789 83.2888 248.251 83.1561 247.773 82.8907C247.303 82.6177 246.931 82.2385 246.658 81.7531C246.393 81.2601 246.26 80.6913 246.26 80.0467C246.26 79.4021 246.389 78.8371 246.647 78.3517C246.912 77.8587 247.28 77.4795 247.75 77.2141C248.228 76.9487 248.774 76.816 249.388 76.816C249.98 76.816 250.507 76.9449 250.97 77.2027C251.432 77.4606 251.792 77.8246 252.05 78.2948C252.308 78.7574 252.437 79.2921 252.437 79.8988ZM251.083 79.4893C251.076 79.0115 250.905 78.6285 250.571 78.3403C250.238 78.0521 249.824 77.908 249.331 77.908C248.884 77.908 248.501 78.0521 248.182 78.3403C247.864 78.6209 247.674 79.0039 247.614 79.4893H251.083ZM256.236 79.2163C256.236 78.4427 256.414 77.7488 256.771 77.1345C257.135 76.5202 257.624 76.0424 258.238 75.7011C258.86 75.3523 259.539 75.1778 260.275 75.1778C261.116 75.1778 261.863 75.3864 262.516 75.8035C263.175 76.213 263.653 76.797 263.949 77.5554H262.39C262.186 77.1383 261.901 76.8273 261.537 76.6226C261.173 76.4178 260.752 76.3154 260.275 76.3154C259.751 76.3154 259.285 76.433 258.875 76.6681C258.466 76.9032 258.143 77.2407 257.908 77.6805C257.681 78.1204 257.567 78.6323 257.567 79.2163C257.567 79.8002 257.681 80.3122 257.908 80.752C258.143 81.1919 258.466 81.5332 258.875 81.7759C259.285 82.011 259.751 82.1285 260.275 82.1285C260.752 82.1285 261.173 82.0261 261.537 81.8214C261.901 81.6166 262.186 81.3056 262.39 80.8885H263.949C263.653 81.6469 263.175 82.2309 262.516 82.6404C261.863 83.05 261.116 83.2547 260.275 83.2547C259.531 83.2547 258.853 83.0841 258.238 82.7428C257.624 82.3939 257.135 81.9124 256.771 81.2981C256.414 80.6838 256.236 79.9898 256.236 79.2163ZM268.709 76.816C269.187 76.816 269.612 76.9183 269.983 77.1231C270.362 77.3279 270.658 77.6312 270.87 78.0332C271.09 78.4351 271.2 78.9205 271.2 79.4893V83.1865H269.915V79.6827C269.915 79.1215 269.775 78.693 269.494 78.3972C269.213 78.0938 268.83 77.9422 268.345 77.9422C267.86 77.9422 267.473 78.0938 267.185 78.3972C266.904 78.693 266.764 79.1215 266.764 79.6827V83.1865H265.467V74.7683H266.764V77.6464C266.984 77.381 267.261 77.1762 267.594 77.0321C267.935 76.888 268.307 76.816 268.709 76.816ZM272.422 80.024C272.422 79.3945 272.551 78.8371 272.809 78.3517C273.075 77.8663 273.431 77.4909 273.878 77.2255C274.333 76.9525 274.834 76.816 275.38 76.816C275.873 76.816 276.301 76.9145 276.666 77.1117C277.037 77.3013 277.333 77.5402 277.553 77.8284V76.9183H278.861V83.1865H277.553V82.2536C277.333 82.5494 277.033 82.7959 276.654 82.9931C276.275 83.1903 275.843 83.2888 275.357 83.2888C274.819 83.2888 274.326 83.1523 273.878 82.8793C273.431 82.5987 273.075 82.2119 272.809 81.719C272.551 81.2184 272.422 80.6534 272.422 80.024ZM277.553 80.0467C277.553 79.6144 277.462 79.239 277.28 78.9205C277.105 78.602 276.874 78.3593 276.586 78.1924C276.298 78.0256 275.987 77.9422 275.653 77.9422C275.319 77.9422 275.008 78.0256 274.72 78.1924C274.432 78.3517 274.197 78.5906 274.015 78.9091C273.84 79.2201 273.753 79.5917 273.753 80.024C273.753 80.4562 273.84 80.8354 274.015 81.1616C274.197 81.4877 274.432 81.7379 274.72 81.9124C275.016 82.0792 275.327 82.1626 275.653 82.1626C275.987 82.1626 276.298 82.0792 276.586 81.9124C276.874 81.7455 277.105 81.5028 277.28 81.1843C277.462 80.8582 277.553 80.479 277.553 80.0467ZM282.077 77.9763V81.4459C282.077 81.6811 282.131 81.8517 282.237 81.9579C282.35 82.0565 282.54 82.1058 282.805 82.1058H283.602V83.1865H282.578C281.994 83.1865 281.547 83.05 281.236 82.7769C280.925 82.5039 280.769 82.0602 280.769 81.4459V77.9763H280.03V76.9183H280.769V75.3598H282.077V76.9183H283.602V77.9763H282.077Z" fill="#CDCDCD"/>
<rect x="289.7" y="68.7737" width="39.8157" height="20.8255" rx="10.4128" fill="#2FCACE" fill-opacity="0.1"/>
<path d="M300.415 75.8614V82.1864H299.377V79.4198H296.402V82.1864H295.364V75.8614H296.402V78.5734H299.377V75.8614H300.415ZM303.956 82.2683C303.483 82.2683 303.055 82.1622 302.673 81.9498C302.29 81.7314 301.99 81.428 301.772 81.0397C301.553 80.6454 301.444 80.1903 301.444 79.6746C301.444 79.165 301.556 78.713 301.781 78.3186C302.005 77.9243 302.312 77.6209 302.7 77.4086C303.088 77.1962 303.522 77.09 304.001 77.09C304.481 77.09 304.914 77.1962 305.303 77.4086C305.691 77.6209 305.997 77.9243 306.222 78.3186C306.446 78.713 306.559 79.165 306.559 79.6746C306.559 80.1843 306.443 80.6363 306.213 81.0306C305.982 81.425 305.667 81.7314 305.266 81.9498C304.872 82.1622 304.435 82.2683 303.956 82.2683ZM303.956 81.3674C304.223 81.3674 304.472 81.3037 304.702 81.1763C304.939 81.0488 305.13 80.8577 305.275 80.6029C305.421 80.3481 305.494 80.0387 305.494 79.6746C305.494 79.3106 305.424 79.0042 305.285 78.7555C305.145 78.5006 304.96 78.3095 304.729 78.1821C304.499 78.0547 304.25 77.991 303.983 77.991C303.716 77.991 303.467 78.0547 303.237 78.1821C303.012 78.3095 302.833 78.5006 302.7 78.7555C302.566 79.0042 302.5 79.3106 302.5 79.6746C302.5 80.2146 302.636 80.6332 302.909 80.9305C303.188 81.2218 303.537 81.3674 303.956 81.3674ZM308.622 77.9182C308.798 77.6755 309.037 77.4783 309.341 77.3266C309.65 77.1689 309.993 77.09 310.369 77.09C310.812 77.09 311.212 77.1962 311.57 77.4086C311.928 77.6209 312.21 77.9243 312.417 78.3186C312.623 78.7069 312.726 79.1529 312.726 79.6564C312.726 80.16 312.623 80.612 312.417 81.0124C312.21 81.4068 311.925 81.7162 311.561 81.9407C311.203 82.1591 310.806 82.2683 310.369 82.2683C309.981 82.2683 309.635 82.1925 309.332 82.0408C309.034 81.8891 308.798 81.695 308.622 81.4584V82.1864H307.584V75.4519H308.622V77.9182ZM311.67 79.6564C311.67 79.3106 311.598 79.0133 311.452 78.7646C311.313 78.5097 311.124 78.3186 310.888 78.1912C310.657 78.0577 310.409 77.991 310.142 77.991C309.881 77.991 309.632 78.0577 309.395 78.1912C309.165 78.3247 308.977 78.5188 308.831 78.7737C308.691 79.0285 308.622 79.3288 308.622 79.6746C308.622 80.0205 308.691 80.3238 308.831 80.5847C308.977 80.8395 309.165 81.0337 309.395 81.1672C309.632 81.3006 309.881 81.3674 310.142 81.3674C310.409 81.3674 310.657 81.3006 310.888 81.1672C311.124 81.0276 311.313 80.8274 311.452 80.5665C311.598 80.3056 311.67 80.0023 311.67 79.6564ZM314.79 77.9182C314.966 77.6755 315.205 77.4783 315.509 77.3266C315.818 77.1689 316.161 77.09 316.537 77.09C316.98 77.09 317.38 77.1962 317.738 77.4086C318.096 77.6209 318.378 77.9243 318.585 78.3186C318.791 78.7069 318.894 79.1529 318.894 79.6564C318.894 80.16 318.791 80.612 318.585 81.0124C318.378 81.4068 318.093 81.7162 317.729 81.9407C317.371 82.1591 316.974 82.2683 316.537 82.2683C316.149 82.2683 315.803 82.1925 315.499 82.0408C315.202 81.8891 314.966 81.695 314.79 81.4584V82.1864H313.752V75.4519H314.79V77.9182ZM317.838 79.6564C317.838 79.3106 317.766 79.0133 317.62 78.7646C317.48 78.5097 317.292 78.3186 317.056 78.1912C316.825 78.0577 316.576 77.991 316.309 77.991C316.049 77.991 315.8 78.0577 315.563 78.1912C315.333 78.3247 315.145 78.5188 314.999 78.7737C314.859 79.0285 314.79 79.3288 314.79 79.6746C314.79 80.0205 314.859 80.3238 314.999 80.5847C315.145 80.8395 315.333 81.0337 315.563 81.1672C315.8 81.3006 316.049 81.3674 316.309 81.3674C316.576 81.3674 316.825 81.3006 317.056 81.1672C317.292 81.0276 317.48 80.8274 317.62 80.5665C317.766 80.3056 317.838 80.0023 317.838 79.6564ZM324.434 77.1719L321.358 84.5435H320.284L321.303 82.1045L319.328 77.1719H320.484L321.895 80.9942L323.36 77.1719H324.434Z" fill="#2FCACE"/>
<path d="M112.246 106.291V119.204H110.128V113.556H104.052V119.204H101.934V106.291H104.052V111.828H110.128V106.291H112.246ZM116.113 107.61C115.729 107.61 115.407 107.48 115.147 107.22C114.886 106.96 114.756 106.638 114.756 106.254C114.756 105.87 114.886 105.548 115.147 105.287C115.407 105.027 115.729 104.897 116.113 104.897C116.484 104.897 116.8 105.027 117.06 105.287C117.32 105.548 117.451 105.87 117.451 106.254C117.451 106.638 117.32 106.96 117.06 107.22C116.8 107.48 116.484 107.61 116.113 107.61ZM117.153 108.966V119.204H115.035V108.966H117.153ZM129.016 119.334C128.149 119.334 127.368 119.186 126.675 118.888C125.981 118.579 125.436 118.145 125.04 117.588C124.643 117.03 124.445 116.38 124.445 115.637H126.712C126.761 116.194 126.978 116.653 127.362 117.012C127.759 117.371 128.31 117.551 129.016 117.551C129.747 117.551 130.316 117.377 130.725 117.03C131.134 116.671 131.338 116.213 131.338 115.655C131.338 115.222 131.208 114.869 130.948 114.596C130.7 114.324 130.385 114.113 130.001 113.965C129.629 113.816 129.109 113.655 128.44 113.481C127.597 113.259 126.91 113.036 126.377 112.813C125.857 112.577 125.411 112.218 125.04 111.735C124.668 111.252 124.482 110.608 124.482 109.803C124.482 109.059 124.668 108.409 125.04 107.852C125.411 107.294 125.931 106.867 126.6 106.569C127.269 106.272 128.043 106.124 128.923 106.124C130.174 106.124 131.196 106.439 131.989 107.071C132.794 107.691 133.24 108.545 133.327 109.635H130.985C130.948 109.165 130.725 108.762 130.316 108.428C129.908 108.093 129.369 107.926 128.7 107.926C128.093 107.926 127.597 108.081 127.213 108.39C126.829 108.7 126.637 109.146 126.637 109.728C126.637 110.125 126.755 110.453 126.991 110.713C127.238 110.961 127.548 111.159 127.92 111.308C128.291 111.456 128.799 111.617 129.443 111.791C130.298 112.026 130.992 112.261 131.524 112.497C132.069 112.732 132.528 113.097 132.899 113.593C133.283 114.076 133.475 114.726 133.475 115.544C133.475 116.2 133.296 116.82 132.936 117.402C132.589 117.984 132.075 118.455 131.394 118.814C130.725 119.161 129.932 119.334 129.016 119.334ZM141.27 108.799C142.05 108.799 142.744 108.966 143.351 109.301C143.97 109.635 144.454 110.131 144.8 110.787C145.16 111.444 145.339 112.237 145.339 113.166V119.204H143.24V113.481C143.24 112.565 143.01 111.865 142.552 111.382C142.094 110.886 141.468 110.639 140.675 110.639C139.883 110.639 139.251 110.886 138.78 111.382C138.322 111.865 138.093 112.565 138.093 113.481V119.204H135.975V105.455H138.093V110.156C138.452 109.722 138.904 109.388 139.449 109.152C140.007 108.917 140.614 108.799 141.27 108.799ZM149.119 107.61C148.735 107.61 148.413 107.48 148.153 107.22C147.892 106.96 147.762 106.638 147.762 106.254C147.762 105.87 147.892 105.548 148.153 105.287C148.413 105.027 148.735 104.897 149.119 104.897C149.49 104.897 149.806 105.027 150.066 105.287C150.327 105.548 150.457 105.87 150.457 106.254C150.457 106.638 150.327 106.96 150.066 107.22C149.806 107.48 149.49 107.61 149.119 107.61ZM150.159 108.966V119.204H148.041V108.966H150.159ZM156.898 117.309L159.797 108.966H162.045L158.143 119.204H155.616L151.733 108.966H153.999L156.898 117.309ZM162.94 114.039C162.94 113.011 163.15 112.1 163.572 111.308C164.005 110.515 164.587 109.902 165.318 109.468C166.061 109.022 166.879 108.799 167.771 108.799C168.576 108.799 169.276 108.96 169.87 109.282C170.477 109.592 170.961 109.982 171.32 110.453V108.966H173.457V119.204H171.32V117.681C170.961 118.164 170.471 118.566 169.852 118.888C169.233 119.211 168.526 119.372 167.734 119.372C166.854 119.372 166.049 119.149 165.318 118.703C164.587 118.244 164.005 117.613 163.572 116.807C163.15 115.99 162.94 115.067 162.94 114.039ZM171.32 114.076C171.32 113.37 171.171 112.757 170.874 112.237C170.589 111.716 170.211 111.32 169.74 111.047C169.27 110.775 168.762 110.639 168.217 110.639C167.672 110.639 167.164 110.775 166.693 111.047C166.222 111.308 165.838 111.698 165.541 112.218C165.256 112.726 165.114 113.333 165.114 114.039C165.114 114.745 165.256 115.364 165.541 115.897C165.838 116.43 166.222 116.838 166.693 117.123C167.176 117.396 167.684 117.532 168.217 117.532C168.762 117.532 169.27 117.396 169.74 117.123C170.211 116.851 170.589 116.454 170.874 115.934C171.171 115.401 171.32 114.782 171.32 114.076ZM188.632 108.799C189.437 108.799 190.156 108.966 190.787 109.301C191.431 109.635 191.933 110.131 192.292 110.787C192.664 111.444 192.85 112.237 192.85 113.166V119.204H190.75V113.481C190.75 112.565 190.521 111.865 190.063 111.382C189.604 110.886 188.979 110.639 188.186 110.639C187.393 110.639 186.762 110.886 186.291 111.382C185.832 111.865 185.603 112.565 185.603 113.481V119.204H183.504V113.481C183.504 112.565 183.275 111.865 182.816 111.382C182.358 110.886 181.732 110.639 180.94 110.639C180.147 110.639 179.515 110.886 179.044 111.382C178.586 111.865 178.357 112.565 178.357 113.481V119.204H176.239V108.966H178.357V110.137C178.704 109.716 179.143 109.388 179.676 109.152C180.209 108.917 180.779 108.799 181.386 108.799C182.203 108.799 182.934 108.973 183.578 109.319C184.222 109.666 184.718 110.168 185.064 110.824C185.374 110.205 185.857 109.716 186.514 109.357C187.17 108.985 187.876 108.799 188.632 108.799ZM197.868 116.659L195.619 121.787H194.244L195.564 116.659H197.868ZM221.361 106.291L217.533 119.204H215.136L212.423 109.431L209.543 119.204L207.165 119.223L203.505 106.291H205.753L208.428 116.807L211.327 106.291H213.705L216.4 116.752L219.094 106.291H221.361ZM228.403 108.799C229.183 108.799 229.877 108.966 230.484 109.301C231.103 109.635 231.587 110.131 231.933 110.787C232.293 111.444 232.472 112.237 232.472 113.166V119.204H230.373V113.481C230.373 112.565 230.143 111.865 229.685 111.382C229.227 110.886 228.601 110.639 227.809 110.639C227.016 110.639 226.384 110.886 225.913 111.382C225.455 111.865 225.226 112.565 225.226 113.481V119.204H223.108V105.455H225.226V110.156C225.585 109.722 226.037 109.388 226.582 109.152C227.14 108.917 227.747 108.799 228.403 108.799ZM234.468 114.039C234.468 113.011 234.679 112.1 235.1 111.308C235.533 110.515 236.116 109.902 236.846 109.468C237.59 109.022 238.407 108.799 239.299 108.799C240.104 108.799 240.804 108.96 241.399 109.282C242.006 109.592 242.489 109.982 242.848 110.453V108.966H244.985V119.204H242.848V117.681C242.489 118.164 241.999 118.566 241.38 118.888C240.761 119.211 240.055 119.372 239.262 119.372C238.382 119.372 237.577 119.149 236.846 118.703C236.116 118.244 235.533 117.613 235.1 116.807C234.679 115.99 234.468 115.067 234.468 114.039ZM242.848 114.076C242.848 113.37 242.699 112.757 242.402 112.237C242.117 111.716 241.739 111.32 241.269 111.047C240.798 110.775 240.29 110.639 239.745 110.639C239.2 110.639 238.692 110.775 238.221 111.047C237.751 111.308 237.367 111.698 237.069 112.218C236.784 112.726 236.642 113.333 236.642 114.039C236.642 114.745 236.784 115.364 237.069 115.897C237.367 116.43 237.751 116.838 238.221 117.123C238.704 117.396 239.212 117.532 239.745 117.532C240.29 117.532 240.798 117.396 241.269 117.123C241.739 116.851 242.117 116.454 242.402 115.934C242.699 115.401 242.848 114.782 242.848 114.076ZM250.238 110.694V116.361C250.238 116.745 250.325 117.024 250.498 117.198C250.684 117.359 250.994 117.439 251.427 117.439H252.728V119.204H251.056C250.102 119.204 249.371 118.981 248.863 118.535C248.355 118.089 248.101 117.365 248.101 116.361V110.694H246.894V108.966H248.101V106.421H250.238V108.966H252.728V110.694H250.238ZM258.396 119.372C257.591 119.372 256.867 119.229 256.222 118.944C255.591 118.647 255.089 118.251 254.717 117.755C254.346 117.247 254.148 116.684 254.123 116.064H256.315C256.352 116.498 256.557 116.863 256.928 117.16C257.312 117.445 257.789 117.588 258.359 117.588C258.954 117.588 259.412 117.476 259.734 117.253C260.069 117.018 260.236 116.721 260.236 116.361C260.236 115.977 260.05 115.693 259.678 115.507C259.319 115.321 258.743 115.117 257.95 114.894C257.182 114.683 256.557 114.479 256.074 114.28C255.591 114.082 255.169 113.779 254.81 113.37C254.463 112.961 254.29 112.422 254.29 111.753C254.29 111.208 254.451 110.713 254.773 110.267C255.095 109.809 255.553 109.449 256.148 109.189C256.755 108.929 257.449 108.799 258.229 108.799C259.393 108.799 260.329 109.096 261.035 109.691C261.753 110.273 262.137 111.072 262.187 112.088H260.069C260.031 111.63 259.846 111.264 259.511 110.992C259.177 110.719 258.725 110.583 258.155 110.583C257.597 110.583 257.17 110.688 256.873 110.899C256.575 111.109 256.427 111.388 256.427 111.735C256.427 112.007 256.526 112.237 256.724 112.422C256.922 112.608 257.164 112.757 257.449 112.868C257.734 112.967 258.155 113.097 258.712 113.259C259.455 113.457 260.062 113.661 260.533 113.872C261.016 114.07 261.431 114.367 261.778 114.764C262.125 115.16 262.304 115.686 262.317 116.343C262.317 116.925 262.156 117.445 261.834 117.904C261.512 118.362 261.053 118.721 260.459 118.981C259.877 119.241 259.189 119.372 258.396 119.372ZM270.51 107.61C270.126 107.61 269.804 107.48 269.544 107.22C269.284 106.96 269.154 106.638 269.154 106.254C269.154 105.87 269.284 105.548 269.544 105.287C269.804 105.027 270.126 104.897 270.51 104.897C270.882 104.897 271.197 105.027 271.458 105.287C271.718 105.548 271.848 105.87 271.848 106.254C271.848 106.638 271.718 106.96 271.458 107.22C271.197 107.48 270.882 107.61 270.51 107.61ZM271.55 108.966V119.204H269.432V108.966H271.55ZM278.048 119.372C277.242 119.372 276.518 119.229 275.874 118.944C275.242 118.647 274.74 118.251 274.369 117.755C273.997 117.247 273.799 116.684 273.774 116.064H275.966C276.004 116.498 276.208 116.863 276.58 117.16C276.964 117.445 277.441 117.588 278.01 117.588C278.605 117.588 279.063 117.476 279.385 117.253C279.72 117.018 279.887 116.721 279.887 116.361C279.887 115.977 279.701 115.693 279.33 115.507C278.97 115.321 278.394 115.117 277.602 114.894C276.834 114.683 276.208 114.479 275.725 114.28C275.242 114.082 274.821 113.779 274.461 113.37C274.115 112.961 273.941 112.422 273.941 111.753C273.941 111.208 274.102 110.713 274.424 110.267C274.746 109.809 275.205 109.449 275.799 109.189C276.406 108.929 277.1 108.799 277.88 108.799C279.045 108.799 279.98 109.096 280.686 109.691C281.404 110.273 281.788 111.072 281.838 112.088H279.72C279.683 111.63 279.497 111.264 279.162 110.992C278.828 110.719 278.376 110.583 277.806 110.583C277.249 110.583 276.821 110.688 276.524 110.899C276.227 111.109 276.078 111.388 276.078 111.735C276.078 112.007 276.177 112.237 276.375 112.422C276.573 112.608 276.815 112.757 277.1 112.868C277.385 112.967 277.806 113.097 278.363 113.259C279.107 113.457 279.714 113.661 280.184 113.872C280.667 114.07 281.082 114.367 281.429 114.764C281.776 115.16 281.956 115.686 281.968 116.343C281.968 116.925 281.807 117.445 281.485 117.904C281.163 118.362 280.705 118.721 280.11 118.981C279.528 119.241 278.84 119.372 278.048 119.372ZM290.161 107.61C289.777 107.61 289.455 107.48 289.195 107.22C288.935 106.96 288.805 106.638 288.805 106.254C288.805 105.87 288.935 105.548 289.195 105.287C289.455 105.027 289.777 104.897 290.161 104.897C290.533 104.897 290.849 105.027 291.109 105.287C291.369 105.548 291.499 105.87 291.499 106.254C291.499 106.638 291.369 106.96 291.109 107.22C290.849 107.48 290.533 107.61 290.161 107.61ZM291.202 108.966V119.204H289.083V108.966H291.202ZM299.148 108.799C299.953 108.799 300.672 108.966 301.303 109.301C301.948 109.635 302.449 110.131 302.808 110.787C303.168 111.444 303.347 112.237 303.347 113.166V119.204H301.248V113.481C301.248 112.565 301.018 111.865 300.56 111.382C300.102 110.886 299.476 110.639 298.684 110.639C297.891 110.639 297.259 110.886 296.788 111.382C296.33 111.865 296.101 112.565 296.101 113.481V119.204H293.983V108.966H296.101V110.137C296.448 109.716 296.887 109.388 297.42 109.152C297.965 108.917 298.541 108.799 299.148 108.799ZM320.092 108.966L313.811 124.017H311.619L313.7 119.037L309.668 108.966H312.028L314.908 116.77L317.899 108.966H320.092ZM326.131 119.372C325.165 119.372 324.292 119.155 323.511 118.721C322.731 118.275 322.118 117.656 321.672 116.863C321.226 116.058 321.003 115.129 321.003 114.076C321.003 113.036 321.232 112.113 321.69 111.308C322.149 110.502 322.774 109.883 323.567 109.449C324.36 109.016 325.245 108.799 326.224 108.799C327.203 108.799 328.088 109.016 328.881 109.449C329.674 109.883 330.299 110.502 330.758 111.308C331.216 112.113 331.445 113.036 331.445 114.076C331.445 115.117 331.21 116.039 330.739 116.845C330.268 117.65 329.624 118.275 328.807 118.721C328.001 119.155 327.11 119.372 326.131 119.372ZM326.131 117.532C326.676 117.532 327.184 117.402 327.655 117.142C328.138 116.882 328.528 116.492 328.825 115.971C329.123 115.451 329.271 114.819 329.271 114.076C329.271 113.333 329.129 112.707 328.844 112.199C328.559 111.679 328.181 111.289 327.71 111.029C327.24 110.769 326.732 110.639 326.187 110.639C325.642 110.639 325.134 110.769 324.663 111.029C324.205 111.289 323.839 111.679 323.567 112.199C323.294 112.707 323.158 113.333 323.158 114.076C323.158 115.179 323.437 116.033 323.994 116.64C324.564 117.235 325.276 117.532 326.131 117.532ZM342.811 108.966V119.204H340.693V117.997C340.358 118.418 339.918 118.752 339.373 119C338.841 119.235 338.271 119.353 337.664 119.353C336.859 119.353 336.134 119.186 335.49 118.851C334.858 118.517 334.357 118.021 333.985 117.365C333.626 116.708 333.446 115.916 333.446 114.987V108.966H335.546V114.671C335.546 115.587 335.775 116.293 336.233 116.789C336.692 117.272 337.317 117.513 338.11 117.513C338.903 117.513 339.528 117.272 339.987 116.789C340.457 116.293 340.693 115.587 340.693 114.671V108.966H342.811ZM347.724 110.453C348.033 109.933 348.442 109.53 348.95 109.245C349.47 108.948 350.084 108.799 350.79 108.799V110.992H350.251C349.421 110.992 348.789 111.202 348.356 111.623C347.934 112.045 347.724 112.775 347.724 113.816V119.204H345.606V108.966H347.724V110.453ZM369.957 108.799C370.762 108.799 371.48 108.966 372.112 109.301C372.756 109.635 373.258 110.131 373.617 110.787C373.989 111.444 374.174 112.237 374.174 113.166V119.204H372.075V113.481C372.075 112.565 371.846 111.865 371.387 111.382C370.929 110.886 370.303 110.639 369.511 110.639C368.718 110.639 368.086 110.886 367.615 111.382C367.157 111.865 366.928 112.565 366.928 113.481V119.204H364.828V113.481C364.828 112.565 364.599 111.865 364.141 111.382C363.682 110.886 363.057 110.639 362.264 110.639C361.471 110.639 360.84 110.886 360.369 111.382C359.911 111.865 359.681 112.565 359.681 113.481V119.204H357.563V108.966H359.681V110.137C360.028 109.716 360.468 109.388 361.001 109.152C361.533 108.917 362.103 108.799 362.71 108.799C363.528 108.799 364.258 108.973 364.903 109.319C365.547 109.666 366.042 110.168 366.389 110.824C366.699 110.205 367.182 109.716 367.838 109.357C368.495 108.985 369.201 108.799 369.957 108.799ZM377.947 107.61C377.563 107.61 377.241 107.48 376.981 107.22C376.721 106.96 376.591 106.638 376.591 106.254C376.591 105.87 376.721 105.548 376.981 105.287C377.241 105.027 377.563 104.897 377.947 104.897C378.319 104.897 378.635 105.027 378.895 105.287C379.155 105.548 379.285 105.87 379.285 106.254C379.285 106.638 379.155 106.96 378.895 107.22C378.635 107.48 378.319 107.61 377.947 107.61ZM378.988 108.966V119.204H376.87V108.966H378.988ZM386.934 108.799C387.739 108.799 388.458 108.966 389.09 109.301C389.734 109.635 390.235 110.131 390.595 110.787C390.954 111.444 391.134 112.237 391.134 113.166V119.204H389.034V113.481C389.034 112.565 388.805 111.865 388.346 111.382C387.888 110.886 387.263 110.639 386.47 110.639C385.677 110.639 385.045 110.886 384.575 111.382C384.116 111.865 383.887 112.565 383.887 113.481V119.204H381.769V108.966H383.887V110.137C384.234 109.716 384.674 109.388 385.206 109.152C385.751 108.917 386.327 108.799 386.934 108.799ZM393.129 114.039C393.129 113.011 393.34 112.1 393.761 111.308C394.195 110.515 394.777 109.902 395.508 109.468C396.251 109.022 397.075 108.799 397.979 108.799C398.648 108.799 399.304 108.948 399.948 109.245C400.605 109.53 401.125 109.914 401.509 110.397V105.455H403.646V119.204H401.509V117.662C401.162 118.158 400.679 118.566 400.06 118.888C399.453 119.211 398.753 119.372 397.96 119.372C397.068 119.372 396.251 119.149 395.508 118.703C394.777 118.244 394.195 117.613 393.761 116.807C393.34 115.99 393.129 115.067 393.129 114.039ZM401.509 114.076C401.509 113.37 401.361 112.757 401.063 112.237C400.778 111.716 400.401 111.32 399.93 111.047C399.459 110.775 398.951 110.639 398.406 110.639C397.861 110.639 397.353 110.775 396.883 111.047C396.412 111.308 396.028 111.698 395.731 112.218C395.446 112.726 395.303 113.333 395.303 114.039C395.303 114.745 395.446 115.364 395.731 115.897C396.028 116.43 396.412 116.838 396.883 117.123C397.366 117.396 397.874 117.532 398.406 117.532C398.951 117.532 399.459 117.396 399.93 117.123C400.401 116.851 400.778 116.454 401.063 115.934C401.361 115.401 401.509 114.782 401.509 114.076ZM414.729 106.105C415.993 106.105 417.002 106.452 417.758 107.145C418.526 107.839 418.91 108.787 418.91 109.988C418.91 111.239 418.514 112.181 417.721 112.813C416.928 113.444 415.875 113.76 414.562 113.76L414.488 115.228H412.648L412.555 112.311H413.169C414.37 112.311 415.287 112.15 415.919 111.828C416.563 111.506 416.885 110.893 416.885 109.988C416.885 109.332 416.693 108.818 416.309 108.446C415.937 108.075 415.417 107.889 414.748 107.889C414.079 107.889 413.553 108.068 413.169 108.428C412.785 108.787 412.593 109.288 412.593 109.933H410.604C410.604 109.189 410.772 108.527 411.106 107.944C411.441 107.362 411.917 106.91 412.537 106.588C413.169 106.266 413.899 106.105 414.729 106.105ZM413.54 119.334C413.156 119.334 412.834 119.204 412.574 118.944C412.314 118.684 412.184 118.362 412.184 117.978C412.184 117.594 412.314 117.272 412.574 117.012C412.834 116.752 413.156 116.622 413.54 116.622C413.912 116.622 414.228 116.752 414.488 117.012C414.748 117.272 414.878 117.594 414.878 117.978C414.878 118.362 414.748 118.684 414.488 118.944C414.228 119.204 413.912 119.334 413.54 119.334Z" fill="#CDCDCD"/>
<g filter="url(#filter0_d_168_417)">
<rect x="70.6121" y="139.02" width="379.576" height="118.12" rx="15.9263" fill="#1E2425"/>
<rect x="70.9439" y="139.352" width="378.912" height="117.456" rx="15.5945" stroke="#CDCDCD" stroke-opacity="0.1" stroke-width="0.663594"/>
</g>
<path d="M98.2177 161.386V170.61H96.7047V166.575H92.3648V170.61H90.8518V161.386H92.3648V165.341H96.7047V161.386H98.2177ZM103.382 170.729C102.691 170.729 102.068 170.574 101.51 170.265C100.953 169.946 100.515 169.504 100.196 168.938C99.8778 168.362 99.7185 167.699 99.7185 166.947C99.7185 166.204 99.8822 165.544 100.21 164.969C100.537 164.394 100.984 163.952 101.55 163.642C102.116 163.332 102.749 163.178 103.448 163.178C104.147 163.178 104.78 163.332 105.346 163.642C105.912 163.952 106.359 164.394 106.686 164.969C107.014 165.544 107.177 166.204 107.177 166.947C107.177 167.69 107.009 168.349 106.673 168.924C106.337 169.499 105.877 169.946 105.293 170.265C104.718 170.574 104.081 170.729 103.382 170.729ZM103.382 169.415C103.771 169.415 104.134 169.322 104.47 169.137C104.815 168.951 105.094 168.672 105.306 168.301C105.518 167.929 105.624 167.478 105.624 166.947C105.624 166.416 105.523 165.969 105.319 165.606C105.116 165.235 104.846 164.956 104.51 164.77C104.173 164.584 103.811 164.491 103.421 164.491C103.032 164.491 102.669 164.584 102.333 164.77C102.006 164.956 101.745 165.235 101.55 165.606C101.355 165.969 101.258 166.416 101.258 166.947C101.258 167.734 101.457 168.345 101.855 168.778C102.262 169.203 102.771 169.415 103.382 169.415ZM118.494 163.297L116.225 170.61H114.632L113.159 165.208L111.686 170.61H110.093L107.81 163.297H109.35L110.876 169.176L112.429 163.297H114.008L115.495 169.15L117.008 163.297H118.494ZM122.568 166.947C122.568 166.195 122.719 165.536 123.019 164.969C123.329 164.394 123.754 163.952 124.293 163.642C124.833 163.332 125.453 163.178 126.152 163.178C127.036 163.178 127.766 163.39 128.341 163.815C128.925 164.23 129.319 164.828 129.523 165.606H127.89C127.757 165.244 127.545 164.96 127.253 164.757C126.961 164.553 126.594 164.452 126.152 164.452C125.532 164.452 125.037 164.673 124.665 165.115C124.302 165.549 124.121 166.159 124.121 166.947C124.121 167.734 124.302 168.349 124.665 168.792C125.037 169.234 125.532 169.455 126.152 169.455C127.027 169.455 127.607 169.07 127.89 168.301H129.523C129.31 169.044 128.912 169.637 128.328 170.079C127.744 170.513 127.019 170.729 126.152 170.729C125.453 170.729 124.833 170.574 124.293 170.265C123.754 169.946 123.329 169.504 123.019 168.938C122.719 168.362 122.568 167.699 122.568 166.947ZM130.526 166.92C130.526 166.186 130.676 165.536 130.977 164.969C131.287 164.403 131.703 163.965 132.225 163.655C132.756 163.337 133.34 163.178 133.977 163.178C134.552 163.178 135.052 163.293 135.476 163.523C135.91 163.744 136.255 164.023 136.512 164.359V163.297H138.038V170.61H136.512V169.522C136.255 169.867 135.906 170.154 135.463 170.384C135.021 170.614 134.516 170.729 133.95 170.729C133.322 170.729 132.747 170.57 132.225 170.251C131.703 169.924 131.287 169.473 130.977 168.898C130.676 168.314 130.526 167.655 130.526 166.92ZM136.512 166.947C136.512 166.442 136.406 166.004 136.193 165.633C135.99 165.261 135.72 164.978 135.384 164.783C135.047 164.589 134.685 164.491 134.295 164.491C133.906 164.491 133.543 164.589 133.207 164.783C132.871 164.969 132.596 165.248 132.384 165.62C132.181 165.982 132.079 166.416 132.079 166.92C132.079 167.425 132.181 167.867 132.384 168.247C132.596 168.628 132.871 168.92 133.207 169.123C133.552 169.318 133.915 169.415 134.295 169.415C134.685 169.415 135.047 169.318 135.384 169.123C135.72 168.929 135.99 168.646 136.193 168.274C136.406 167.894 136.512 167.451 136.512 166.947ZM143.715 163.178C144.29 163.178 144.803 163.297 145.254 163.536C145.714 163.775 146.073 164.129 146.329 164.598C146.586 165.067 146.714 165.633 146.714 166.296V170.61H145.215V166.522C145.215 165.867 145.051 165.367 144.723 165.022C144.396 164.668 143.949 164.491 143.383 164.491C142.817 164.491 142.366 164.668 142.029 165.022C141.702 165.367 141.538 165.867 141.538 166.522V170.61H140.025V163.297H141.538V164.133C141.786 163.832 142.1 163.598 142.481 163.43C142.87 163.262 143.281 163.178 143.715 163.178ZM153.605 161.386V170.61H152.092V161.386H153.605ZM162.821 163.178C163.379 163.178 163.874 163.297 164.308 163.536C164.75 163.775 165.095 164.129 165.343 164.598C165.6 165.067 165.728 165.633 165.728 166.296V170.61H164.228V166.522C164.228 165.867 164.064 165.367 163.737 165.022C163.41 164.668 162.963 164.491 162.397 164.491C161.83 164.491 161.379 164.668 161.043 165.022C160.715 165.367 160.552 165.867 160.552 166.522V170.61H159.039V160.789H160.552V164.146C160.808 163.837 161.131 163.598 161.521 163.43C161.919 163.262 162.352 163.178 162.821 163.178ZM174.36 166.774C174.36 167.049 174.342 167.296 174.307 167.517H168.719C168.764 168.101 168.98 168.57 169.37 168.924C169.759 169.278 170.237 169.455 170.803 169.455C171.617 169.455 172.192 169.115 172.528 168.433H174.161C173.94 169.106 173.537 169.659 172.953 170.092C172.378 170.517 171.661 170.729 170.803 170.729C170.104 170.729 169.476 170.574 168.919 170.265C168.37 169.946 167.936 169.504 167.618 168.938C167.308 168.362 167.153 167.699 167.153 166.947C167.153 166.195 167.304 165.536 167.605 164.969C167.914 164.394 168.343 163.952 168.892 163.642C169.449 163.332 170.086 163.178 170.803 163.178C171.493 163.178 172.108 163.328 172.648 163.629C173.188 163.93 173.608 164.354 173.909 164.903C174.21 165.443 174.36 166.066 174.36 166.774ZM172.781 166.296C172.772 165.739 172.573 165.292 172.183 164.956C171.794 164.62 171.312 164.452 170.737 164.452C170.215 164.452 169.768 164.62 169.396 164.956C169.025 165.283 168.804 165.73 168.733 166.296H172.781ZM177.362 160.789V170.61H175.849V160.789H177.362ZM180.861 164.372C181.118 164.036 181.467 163.753 181.91 163.523C182.352 163.293 182.852 163.178 183.41 163.178C184.047 163.178 184.626 163.337 185.148 163.655C185.679 163.965 186.095 164.403 186.396 164.969C186.697 165.536 186.847 166.186 186.847 166.92C186.847 167.655 186.697 168.314 186.396 168.898C186.095 169.473 185.679 169.924 185.148 170.251C184.626 170.57 184.047 170.729 183.41 170.729C182.852 170.729 182.357 170.619 181.923 170.397C181.49 170.167 181.136 169.884 180.861 169.548V174.087H179.348V163.297H180.861V164.372ZM185.307 166.92C185.307 166.416 185.201 165.982 184.989 165.62C184.785 165.248 184.511 164.969 184.166 164.783C183.83 164.589 183.467 164.491 183.078 164.491C182.697 164.491 182.335 164.589 181.989 164.783C181.653 164.978 181.379 165.261 181.167 165.633C180.963 166.004 180.861 166.442 180.861 166.947C180.861 167.451 180.963 167.894 181.167 168.274C181.379 168.646 181.653 168.929 181.989 169.123C182.335 169.318 182.697 169.415 183.078 169.415C183.467 169.415 183.83 169.318 184.166 169.123C184.511 168.92 184.785 168.628 184.989 168.247C185.201 167.867 185.307 167.425 185.307 166.92ZM198.374 163.297L193.888 174.047H192.322L193.808 170.49L190.928 163.297H192.614L194.671 168.871L196.808 163.297H198.374ZM202.687 170.729C201.997 170.729 201.373 170.574 200.816 170.265C200.259 169.946 199.821 169.504 199.502 168.938C199.184 168.362 199.024 167.699 199.024 166.947C199.024 166.204 199.188 165.544 199.515 164.969C199.843 164.394 200.29 163.952 200.856 163.642C201.422 163.332 202.055 163.178 202.754 163.178C203.453 163.178 204.085 163.332 204.652 163.642C205.218 163.952 205.665 164.394 205.992 164.969C206.319 165.544 206.483 166.204 206.483 166.947C206.483 167.69 206.315 168.349 205.979 168.924C205.643 169.499 205.183 169.946 204.599 170.265C204.023 170.574 203.386 170.729 202.687 170.729ZM202.687 169.415C203.077 169.415 203.439 169.322 203.776 169.137C204.121 168.951 204.399 168.672 204.612 168.301C204.824 167.929 204.93 167.478 204.93 166.947C204.93 166.416 204.829 165.969 204.625 165.606C204.422 165.235 204.152 164.956 203.816 164.77C203.479 164.584 203.117 164.491 202.727 164.491C202.338 164.491 201.975 164.584 201.639 164.77C201.312 164.956 201.051 165.235 200.856 165.606C200.661 165.969 200.564 166.416 200.564 166.947C200.564 167.734 200.763 168.345 201.161 168.778C201.568 169.203 202.077 169.415 202.687 169.415ZM214.602 163.297V170.61H213.089V169.747C212.85 170.048 212.536 170.287 212.146 170.464C211.766 170.632 211.359 170.716 210.925 170.716C210.35 170.716 209.832 170.597 209.372 170.358C208.921 170.119 208.563 169.765 208.297 169.296C208.041 168.827 207.912 168.261 207.912 167.597V163.297H209.412V167.371C209.412 168.026 209.576 168.531 209.903 168.884C210.231 169.23 210.677 169.402 211.244 169.402C211.81 169.402 212.257 169.23 212.584 168.884C212.92 168.531 213.089 168.026 213.089 167.371V163.297H214.602ZM221.811 164.531V168.579C221.811 168.854 221.872 169.053 221.996 169.176C222.129 169.291 222.35 169.349 222.66 169.349H223.589V170.61H222.395C221.713 170.61 221.191 170.451 220.828 170.132C220.466 169.814 220.284 169.296 220.284 168.579V164.531H219.422V163.297H220.284V161.479H221.811V163.297H223.589V164.531H221.811ZM228.155 170.729C227.465 170.729 226.842 170.574 226.284 170.265C225.727 169.946 225.289 169.504 224.97 168.938C224.652 168.362 224.492 167.699 224.492 166.947C224.492 166.204 224.656 165.544 224.983 164.969C225.311 164.394 225.758 163.952 226.324 163.642C226.89 163.332 227.523 163.178 228.222 163.178C228.921 163.178 229.553 163.332 230.12 163.642C230.686 163.952 231.133 164.394 231.46 164.969C231.788 165.544 231.951 166.204 231.951 166.947C231.951 167.69 231.783 168.349 231.447 168.924C231.111 169.499 230.651 169.946 230.067 170.265C229.491 170.574 228.854 170.729 228.155 170.729ZM228.155 169.415C228.545 169.415 228.908 169.322 229.244 169.137C229.589 168.951 229.868 168.672 230.08 168.301C230.292 167.929 230.398 167.478 230.398 166.947C230.398 166.416 230.297 165.969 230.093 165.606C229.89 165.235 229.62 164.956 229.284 164.77C228.947 164.584 228.585 164.491 228.195 164.491C227.806 164.491 227.443 164.584 227.107 164.77C226.78 164.956 226.519 165.235 226.324 165.606C226.129 165.969 226.032 166.416 226.032 166.947C226.032 167.734 226.231 168.345 226.629 168.778C227.036 169.203 227.545 169.415 228.155 169.415ZM232.943 166.92C232.943 166.186 233.093 165.536 233.394 164.969C233.703 164.403 234.119 163.965 234.641 163.655C235.172 163.337 235.761 163.178 236.407 163.178C236.884 163.178 237.353 163.284 237.813 163.496C238.282 163.7 238.654 163.974 238.928 164.319V160.789H240.454V170.61H238.928V169.508C238.68 169.862 238.335 170.154 237.893 170.384C237.459 170.614 236.96 170.729 236.393 170.729C235.756 170.729 235.172 170.57 234.641 170.251C234.119 169.924 233.703 169.473 233.394 168.898C233.093 168.314 232.943 167.655 232.943 166.92ZM238.928 166.947C238.928 166.442 238.822 166.004 238.61 165.633C238.406 165.261 238.136 164.978 237.8 164.783C237.464 164.589 237.101 164.491 236.712 164.491C236.322 164.491 235.96 164.589 235.623 164.783C235.287 164.969 235.013 165.248 234.801 165.62C234.597 165.982 234.495 166.416 234.495 166.92C234.495 167.425 234.597 167.867 234.801 168.247C235.013 168.628 235.287 168.92 235.623 169.123C235.969 169.318 236.331 169.415 236.712 169.415C237.101 169.415 237.464 169.318 237.8 169.123C238.136 168.929 238.406 168.646 238.61 168.274C238.822 167.894 238.928 167.451 238.928 166.947ZM241.937 166.92C241.937 166.186 242.088 165.536 242.389 164.969C242.698 164.403 243.114 163.965 243.636 163.655C244.167 163.337 244.751 163.178 245.388 163.178C245.963 163.178 246.463 163.293 246.888 163.523C247.321 163.744 247.666 164.023 247.923 164.359V163.297H249.449V170.61H247.923V169.522C247.666 169.867 247.317 170.154 246.875 170.384C246.432 170.614 245.928 170.729 245.362 170.729C244.733 170.729 244.158 170.57 243.636 170.251C243.114 169.924 242.698 169.473 242.389 168.898C242.088 168.314 241.937 167.655 241.937 166.92ZM247.923 166.947C247.923 166.442 247.817 166.004 247.604 165.633C247.401 165.261 247.131 164.978 246.795 164.783C246.459 164.589 246.096 164.491 245.707 164.491C245.317 164.491 244.955 164.589 244.618 164.783C244.282 164.969 244.008 165.248 243.795 165.62C243.592 165.982 243.49 166.416 243.49 166.92C243.49 167.425 243.592 167.867 243.795 168.247C244.008 168.628 244.282 168.92 244.618 169.123C244.963 169.318 245.326 169.415 245.707 169.415C246.096 169.415 246.459 169.318 246.795 169.123C247.131 168.929 247.401 168.646 247.604 168.274C247.817 167.894 247.923 167.451 247.923 166.947ZM258.019 163.297L253.533 174.047H251.967L253.454 170.49L250.574 163.297H252.259L254.317 168.871L256.453 163.297H258.019ZM265.091 161.253C265.993 161.253 266.714 161.501 267.254 161.996C267.802 162.492 268.077 163.169 268.077 164.027C268.077 164.921 267.794 165.593 267.227 166.044C266.661 166.496 265.909 166.721 264.971 166.721L264.918 167.77H263.604L263.538 165.686H263.976C264.834 165.686 265.489 165.571 265.94 165.341C266.4 165.111 266.63 164.673 266.63 164.027C266.63 163.558 266.493 163.191 266.219 162.925C265.953 162.66 265.582 162.527 265.104 162.527C264.626 162.527 264.25 162.656 263.976 162.912C263.701 163.169 263.564 163.527 263.564 163.987H262.144C262.144 163.456 262.264 162.983 262.503 162.567C262.741 162.151 263.082 161.828 263.525 161.598C263.976 161.368 264.498 161.253 265.091 161.253ZM264.241 170.703C263.967 170.703 263.737 170.61 263.551 170.424C263.365 170.238 263.272 170.008 263.272 169.734C263.272 169.46 263.365 169.23 263.551 169.044C263.737 168.858 263.967 168.765 264.241 168.765C264.507 168.765 264.732 168.858 264.918 169.044C265.104 169.23 265.197 169.46 265.197 169.734C265.197 170.008 265.104 170.238 264.918 170.424C264.732 170.61 264.507 170.703 264.241 170.703Z" fill="#979999"/>
<rect x="89.8564" y="216.661" width="23.8894" height="23.8894" rx="11.9447" fill="#1B2021"/>
<rect x="89.5246" y="216.329" width="24.553" height="24.553" rx="12.2765" stroke="#CDCDCD" stroke-opacity="0.15" stroke-width="0.663594"/>
<path d="M105.276 230.428C105.394 230.315 105.551 230.252 105.715 230.253C105.879 230.255 106.035 230.32 106.151 230.436C106.267 230.552 106.332 230.708 106.334 230.872C106.335 231.036 106.272 231.193 106.159 231.311L104.172 233.298C103.352 234.117 102.241 234.578 101.082 234.578C99.9227 234.578 98.8111 234.117 97.9915 233.298C97.1719 232.478 96.7114 231.366 96.7114 230.207C96.7114 229.048 97.1719 227.937 97.9915 227.117L101.524 223.586C101.812 223.288 102.156 223.05 102.537 222.886C102.918 222.723 103.327 222.637 103.742 222.633C104.156 222.629 104.567 222.708 104.951 222.865C105.335 223.022 105.683 223.254 105.976 223.547C106.269 223.84 106.501 224.189 106.658 224.572C106.815 224.956 106.894 225.367 106.89 225.782C106.887 226.196 106.801 226.606 106.637 226.987C106.474 227.367 106.236 227.712 105.938 228L102.407 231.532C102.055 231.883 101.579 232.081 101.082 232.081C100.585 232.081 100.109 231.883 99.7576 231.532C99.4064 231.181 99.209 230.704 99.209 230.208C99.209 229.711 99.4064 229.234 99.7576 228.883L102.627 226.014C102.685 225.956 102.754 225.91 102.829 225.878C102.905 225.847 102.986 225.831 103.068 225.831C103.15 225.831 103.232 225.847 103.307 225.878C103.383 225.91 103.452 225.956 103.51 226.014C103.568 226.072 103.614 226.14 103.645 226.216C103.677 226.292 103.693 226.373 103.693 226.455C103.693 226.537 103.677 226.618 103.646 226.694C103.614 226.77 103.568 226.839 103.51 226.897L100.64 229.766C100.582 229.824 100.536 229.893 100.505 229.969C100.474 230.044 100.458 230.126 100.458 230.208C100.458 230.29 100.474 230.371 100.505 230.446C100.537 230.522 100.583 230.591 100.641 230.649C100.699 230.707 100.768 230.753 100.843 230.784C100.919 230.816 101 230.832 101.082 230.832C101.164 230.832 101.246 230.816 101.321 230.784C101.397 230.753 101.466 230.707 101.524 230.649L105.055 227.117C105.234 226.944 105.376 226.738 105.475 226.509C105.573 226.281 105.624 226.035 105.627 225.786C105.629 225.537 105.581 225.291 105.487 225.061C105.393 224.83 105.254 224.621 105.078 224.445C104.902 224.27 104.693 224.131 104.463 224.036C104.233 223.942 103.986 223.895 103.737 223.897C103.489 223.899 103.243 223.951 103.014 224.049C102.786 224.147 102.579 224.29 102.407 224.469L98.8749 228C98.579 228.289 98.3434 228.633 98.1816 229.014C98.0199 229.394 97.9353 229.802 97.9327 230.216C97.9301 230.629 98.0096 231.039 98.1665 231.421C98.3235 231.803 98.5548 232.15 98.847 232.443C99.1393 232.735 99.4866 232.966 99.8689 233.123C100.251 233.28 100.661 233.359 101.074 233.357C101.487 233.354 101.896 233.269 102.276 233.108C102.657 232.946 103.001 232.71 103.289 232.414L105.276 230.428Z" fill="#979999"/>
<rect x="124.363" y="216.661" width="23.8894" height="23.8894" rx="11.9447" fill="#1B2021"/>
<rect x="124.031" y="216.329" width="24.553" height="24.553" rx="12.2765" stroke="#CDCDCD" stroke-opacity="0.15" stroke-width="0.663594"/>
<path d="M140.179 227.499V228.605C140.179 230.743 138.446 232.476 136.308 232.476M136.308 232.476C134.17 232.476 132.437 230.743 132.437 228.605V227.499M136.308 232.476V234.135M134.096 234.135H138.52M136.308 230.264C135.392 230.264 134.649 229.522 134.649 228.605V224.734C134.649 223.818 135.392 223.075 136.308 223.075C137.224 223.075 137.967 223.818 137.967 224.734V228.605C137.967 229.522 137.224 230.264 136.308 230.264Z" stroke="#979999" stroke-width="1.10599" stroke-linecap="round" stroke-linejoin="round"/>
<rect x="158.87" y="216.661" width="23.8894" height="23.8894" rx="11.9447" fill="#1B2021"/>
<rect x="158.538" y="216.329" width="24.553" height="24.553" rx="12.2765" stroke="#CDCDCD" stroke-opacity="0.15" stroke-width="0.663594"/>
<g clip-path="url(#clip0_168_417)">
<path fill-rule="evenodd" clip-rule="evenodd" d="M169.38 232.883C169.495 233.097 169.609 233.29 169.718 233.461C168.557 233.2 167.549 232.533 166.852 231.617C167.312 231.358 167.902 231.089 168.61 230.893C168.812 231.682 169.096 232.35 169.38 232.883ZM170.259 232.415C170.011 231.951 169.763 231.372 169.585 230.686C169.969 230.629 170.38 230.596 170.815 230.596C171.25 230.596 171.66 230.629 172.045 230.686C171.866 231.372 171.618 231.951 171.371 232.415C171.173 232.787 170.975 233.084 170.815 233.301C170.654 233.084 170.457 232.787 170.259 232.415ZM169.322 228.605C169.322 228.993 169.348 229.361 169.394 229.708C169.837 229.64 170.311 229.601 170.815 229.601C171.318 229.601 171.792 229.64 172.236 229.708C172.282 229.361 172.308 228.993 172.308 228.605C172.308 228.218 172.282 227.85 172.236 227.503C171.792 227.571 171.318 227.61 170.815 227.61C170.311 227.61 169.837 227.571 169.394 227.503C169.348 227.85 169.322 228.218 169.322 228.605ZM168.417 227.297C168.359 227.708 168.326 228.144 168.326 228.605C168.326 229.066 168.359 229.503 168.417 229.913C167.572 230.14 166.872 230.46 166.331 230.768C166.015 230.114 165.838 229.38 165.838 228.605C165.838 227.83 166.015 227.097 166.331 226.443C166.872 226.75 167.572 227.07 168.417 227.297ZM169.585 226.525C169.969 226.582 170.38 226.615 170.815 226.615C171.25 226.615 171.66 226.582 172.045 226.525C171.866 225.839 171.618 225.259 171.371 224.796C171.173 224.424 170.975 224.127 170.815 223.91C170.654 224.127 170.457 224.424 170.259 224.796C170.011 225.259 169.763 225.839 169.585 226.525ZM173.213 227.297C173.27 227.708 173.303 228.144 173.303 228.605C173.303 229.066 173.27 229.503 173.213 229.913C174.058 230.14 174.757 230.46 175.299 230.768C175.615 230.114 175.792 229.38 175.792 228.605C175.792 227.83 175.615 227.097 175.299 226.443C174.757 226.75 174.058 227.07 173.213 227.297ZM174.778 225.594C174.317 225.853 173.728 226.122 173.02 226.318C172.818 225.528 172.534 224.861 172.249 224.327C172.135 224.113 172.021 223.921 171.912 223.75C173.073 224.011 174.08 224.678 174.778 225.594ZM168.61 226.318C167.902 226.122 167.312 225.853 166.852 225.594C167.549 224.678 168.557 224.011 169.718 223.75C169.609 223.921 169.495 224.113 169.38 224.327C169.096 224.861 168.812 225.528 168.61 226.318ZM173.02 230.893C172.818 231.682 172.534 232.35 172.249 232.883C172.135 233.097 172.021 233.29 171.912 233.461C173.073 233.2 174.08 232.533 174.778 231.617C174.317 231.358 173.728 231.089 173.02 230.893ZM170.815 234.578C174.113 234.578 176.787 231.904 176.787 228.605C176.787 225.307 174.113 222.633 170.815 222.633C167.516 222.633 164.843 225.307 164.843 228.605C164.843 231.904 167.516 234.578 170.815 234.578Z" fill="#979999"/>
</g>
<rect x="396.437" y="216.661" width="34.5069" height="23.8894" rx="11.9447" fill="#979999"/>
<path d="M413.69 223.297V233.914M413.69 223.297L409.266 227.721M413.69 223.297L418.114 227.721" stroke="#1B2021" stroke-width="1.76959" stroke-linecap="round" stroke-linejoin="round"/>
<rect x="70.7959" y="269.392" width="98.2362" height="25.4408" rx="4.60624" stroke="#CDCDCD" stroke-opacity="0.25" stroke-width="0.614165"/>
<path d="M110.803 277.929L108.526 285.612H107.099L105.485 279.797L103.772 285.612L102.357 285.623L100.179 277.929H101.517L103.109 284.186L104.833 277.929H106.248L107.851 284.153L109.454 277.929H110.803ZM113.103 280.405C113.287 280.096 113.53 279.856 113.832 279.687C114.142 279.51 114.507 279.421 114.927 279.421V280.726H114.606C114.112 280.726 113.736 280.851 113.478 281.102C113.228 281.352 113.103 281.787 113.103 282.406V285.612H111.842V279.521H113.103V280.405ZM116.726 278.714C116.498 278.714 116.306 278.636 116.151 278.482C115.997 278.327 115.919 278.135 115.919 277.907C115.919 277.678 115.997 277.487 116.151 277.332C116.306 277.177 116.498 277.1 116.726 277.1C116.947 277.1 117.135 277.177 117.29 277.332C117.445 277.487 117.522 277.678 117.522 277.907C117.522 278.135 117.445 278.327 117.29 278.482C117.135 278.636 116.947 278.714 116.726 278.714ZM117.345 279.521V285.612H116.085V279.521H117.345ZM120.47 280.549V283.921C120.47 284.149 120.522 284.315 120.625 284.418C120.736 284.514 120.92 284.562 121.178 284.562H121.952V285.612H120.957C120.389 285.612 119.954 285.479 119.652 285.214C119.35 284.949 119.199 284.518 119.199 283.921V280.549H118.48V279.521H119.199V278.006H120.47V279.521H121.952V280.549H120.47ZM128.696 282.417C128.696 282.646 128.681 282.852 128.652 283.036H123.998C124.034 283.523 124.215 283.913 124.539 284.208C124.864 284.503 125.262 284.65 125.733 284.65C126.411 284.65 126.89 284.366 127.17 283.799H128.53C128.346 284.359 128.011 284.82 127.524 285.181C127.045 285.535 126.448 285.712 125.733 285.712C125.151 285.712 124.628 285.583 124.163 285.325C123.706 285.059 123.345 284.691 123.08 284.219C122.822 283.74 122.693 283.187 122.693 282.561C122.693 281.934 122.818 281.385 123.069 280.914C123.327 280.435 123.684 280.066 124.141 279.808C124.606 279.55 125.136 279.421 125.733 279.421C126.308 279.421 126.82 279.547 127.27 279.797C127.719 280.048 128.07 280.401 128.32 280.858C128.571 281.308 128.696 281.828 128.696 282.417ZM127.38 282.019C127.373 281.555 127.207 281.183 126.883 280.903C126.559 280.623 126.157 280.482 125.678 280.482C125.243 280.482 124.871 280.623 124.561 280.903C124.252 281.175 124.068 281.547 124.009 282.019H127.38ZM132.388 281.754C132.388 281.002 132.561 280.328 132.907 279.731C133.261 279.134 133.737 278.669 134.333 278.338C134.938 277.999 135.597 277.829 136.312 277.829C137.13 277.829 137.856 278.032 138.49 278.437C139.131 278.835 139.596 279.403 139.883 280.14H138.369C138.17 279.734 137.893 279.432 137.539 279.233C137.186 279.034 136.777 278.935 136.312 278.935C135.804 278.935 135.351 279.049 134.953 279.278C134.555 279.506 134.241 279.834 134.013 280.261C133.792 280.689 133.681 281.186 133.681 281.754C133.681 282.321 133.792 282.819 134.013 283.246C134.241 283.674 134.555 284.005 134.953 284.241C135.351 284.47 135.804 284.584 136.312 284.584C136.777 284.584 137.186 284.484 137.539 284.285C137.893 284.086 138.17 283.784 138.369 283.379H139.883C139.596 284.116 139.131 284.683 138.49 285.081C137.856 285.479 137.13 285.678 136.312 285.678C135.59 285.678 134.93 285.513 134.333 285.181C133.737 284.842 133.261 284.374 132.907 283.777C132.561 283.18 132.388 282.506 132.388 281.754ZM144 285.712C143.426 285.712 142.906 285.583 142.442 285.325C141.977 285.059 141.612 284.691 141.347 284.219C141.082 283.74 140.949 283.187 140.949 282.561C140.949 281.942 141.086 281.393 141.358 280.914C141.631 280.435 142.003 280.066 142.475 279.808C142.946 279.55 143.473 279.421 144.056 279.421C144.638 279.421 145.165 279.55 145.637 279.808C146.108 280.066 146.48 280.435 146.753 280.914C147.026 281.393 147.162 281.942 147.162 282.561C147.162 283.18 147.022 283.729 146.742 284.208C146.462 284.687 146.079 285.059 145.592 285.325C145.113 285.583 144.583 285.712 144 285.712ZM144 284.617C144.325 284.617 144.627 284.54 144.907 284.385C145.194 284.23 145.426 283.998 145.603 283.688C145.78 283.379 145.869 283.003 145.869 282.561C145.869 282.119 145.784 281.746 145.614 281.444C145.445 281.135 145.22 280.903 144.94 280.748C144.66 280.593 144.358 280.516 144.034 280.516C143.709 280.516 143.407 280.593 143.127 280.748C142.854 280.903 142.637 281.135 142.475 281.444C142.313 281.746 142.232 282.119 142.232 282.561C142.232 283.217 142.397 283.725 142.729 284.086C143.068 284.44 143.492 284.617 144 284.617ZM147.988 282.539C147.988 281.927 148.113 281.385 148.364 280.914C148.622 280.442 148.968 280.077 149.403 279.819C149.845 279.554 150.335 279.421 150.873 279.421C151.271 279.421 151.662 279.51 152.045 279.687C152.436 279.856 152.745 280.085 152.974 280.372V277.431H154.245V285.612H152.974V284.694C152.767 284.989 152.48 285.232 152.111 285.424C151.75 285.616 151.334 285.712 150.862 285.712C150.332 285.712 149.845 285.579 149.403 285.314C148.968 285.041 148.622 284.665 148.364 284.186C148.113 283.699 147.988 283.15 147.988 282.539ZM152.974 282.561C152.974 282.141 152.885 281.776 152.708 281.466C152.539 281.157 152.314 280.921 152.034 280.759C151.754 280.597 151.452 280.516 151.127 280.516C150.803 280.516 150.501 280.597 150.221 280.759C149.941 280.914 149.712 281.146 149.536 281.455C149.366 281.758 149.281 282.119 149.281 282.539C149.281 282.959 149.366 283.327 149.536 283.644C149.712 283.961 149.941 284.204 150.221 284.374C150.508 284.536 150.811 284.617 151.127 284.617C151.452 284.617 151.754 284.536 152.034 284.374C152.314 284.212 152.539 283.976 152.708 283.666C152.885 283.349 152.974 282.981 152.974 282.561ZM161.483 282.417C161.483 282.646 161.468 282.852 161.439 283.036H156.785C156.822 283.523 157.002 283.913 157.326 284.208C157.651 284.503 158.049 284.65 158.52 284.65C159.198 284.65 159.677 284.366 159.957 283.799H161.317C161.133 284.359 160.798 284.82 160.311 285.181C159.832 285.535 159.235 285.712 158.52 285.712C157.938 285.712 157.415 285.583 156.95 285.325C156.494 285.059 156.132 284.691 155.867 284.219C155.609 283.74 155.48 283.187 155.48 282.561C155.48 281.934 155.605 281.385 155.856 280.914C156.114 280.435 156.471 280.066 156.928 279.808C157.393 279.55 157.923 279.421 158.52 279.421C159.095 279.421 159.607 279.547 160.057 279.797C160.507 280.048 160.857 280.401 161.107 280.858C161.358 281.308 161.483 281.828 161.483 282.417ZM160.167 282.019C160.16 281.555 159.994 281.183 159.67 280.903C159.346 280.623 158.944 280.482 158.465 280.482C158.03 280.482 157.658 280.623 157.348 280.903C157.039 281.175 156.855 281.547 156.796 282.019H160.167Z" fill="#979999"/>
<path d="M86.5685 277.238C86.8142 277.303 86.9601 277.556 86.8942 277.802L84.4538 286.91C84.3879 287.155 84.1353 287.301 83.8896 287.235C83.6439 287.17 83.4981 286.917 83.5639 286.671L86.0044 277.563C86.0702 277.318 86.3228 277.172 86.5685 277.238Z" fill="#979999"/>
<path d="M87.9576 279.113C88.1278 278.924 88.419 278.908 88.6081 279.078L89.6752 280.039C90.1275 280.446 90.5026 280.783 90.7602 281.09C91.0311 281.412 91.2236 281.758 91.2236 282.185C91.2236 282.612 91.0311 282.958 90.7602 283.279C90.5026 283.586 90.1275 283.923 89.6752 284.33L88.6081 285.291C88.419 285.461 88.1278 285.446 87.9576 285.256C87.7874 285.067 87.8028 284.776 87.9919 284.606L89.0337 283.668C89.5176 283.233 89.8439 282.938 90.0552 282.686C90.2581 282.445 90.3024 282.305 90.3024 282.185C90.3024 282.065 90.2581 281.924 90.0552 281.683C89.8439 281.431 89.5176 281.136 89.0337 280.701L87.9919 279.763C87.8028 279.593 87.7874 279.302 87.9576 279.113Z" fill="#979999"/>
<path d="M82.4661 279.763C82.6552 279.593 82.6706 279.302 82.5004 279.113C82.3302 278.924 82.0389 278.908 81.8498 279.078L80.7827 280.039C80.3305 280.446 79.9554 280.783 79.6978 281.09C79.4269 281.412 79.2344 281.758 79.2344 282.185C79.2344 282.612 79.4269 282.958 79.6978 283.279C79.9554 283.586 80.3305 283.923 80.7827 284.33L81.8498 285.291C82.0389 285.461 82.3302 285.446 82.5004 285.256C82.6706 285.067 82.6552 284.776 82.4661 284.606L81.4242 283.668C80.9403 283.233 80.6141 282.938 80.4028 282.686C80.1999 282.445 80.1556 282.305 80.1556 282.185C80.1556 282.065 80.1999 281.924 80.4028 281.683C80.6141 281.431 80.9403 281.136 81.4242 280.701L82.4661 279.763Z" fill="#979999"/>
<rect x="181.771" y="269.392" width="67.2359" height="25.4408" rx="4.60624" stroke="#CDCDCD" stroke-opacity="0.25" stroke-width="0.614165"/>
<path d="M213.033 284.595H215.631V285.612H211.773V277.929H213.033V284.595ZM222.268 282.417C222.268 282.646 222.253 282.852 222.224 283.036H217.569C217.606 283.523 217.787 283.913 218.111 284.208C218.435 284.503 218.833 284.65 219.305 284.65C219.983 284.65 220.462 284.366 220.742 283.799H222.102C221.918 284.359 221.582 284.82 221.096 285.181C220.617 285.535 220.02 285.712 219.305 285.712C218.723 285.712 218.2 285.583 217.735 285.325C217.278 285.059 216.917 284.691 216.652 284.219C216.394 283.74 216.265 283.187 216.265 282.561C216.265 281.934 216.39 281.385 216.641 280.914C216.899 280.435 217.256 280.066 217.713 279.808C218.178 279.55 218.708 279.421 219.305 279.421C219.88 279.421 220.392 279.547 220.842 279.797C221.291 280.048 221.641 280.401 221.892 280.858C222.143 281.308 222.268 281.828 222.268 282.417ZM220.952 282.019C220.945 281.555 220.779 281.183 220.455 280.903C220.131 280.623 219.729 280.483 219.25 280.483C218.815 280.483 218.443 280.623 218.133 280.903C217.824 281.175 217.64 281.547 217.581 282.019H220.952ZM223.088 282.539C223.088 281.927 223.213 281.385 223.464 280.914C223.722 280.442 224.068 280.077 224.503 279.819C224.945 279.554 225.432 279.421 225.962 279.421C226.441 279.421 226.858 279.517 227.212 279.709C227.573 279.893 227.86 280.125 228.074 280.405V279.521H229.345V285.612H228.074V284.706C227.86 284.993 227.569 285.232 227.2 285.424C226.832 285.616 226.412 285.712 225.94 285.712C225.417 285.712 224.938 285.579 224.503 285.314C224.068 285.041 223.722 284.665 223.464 284.186C223.213 283.7 223.088 283.15 223.088 282.539ZM228.074 282.561C228.074 282.141 227.985 281.776 227.808 281.466C227.639 281.157 227.414 280.921 227.134 280.759C226.854 280.597 226.552 280.516 226.228 280.516C225.903 280.516 225.601 280.597 225.321 280.759C225.041 280.914 224.813 281.146 224.636 281.455C224.466 281.758 224.381 282.119 224.381 282.539C224.381 282.959 224.466 283.327 224.636 283.644C224.813 283.961 225.041 284.204 225.321 284.374C225.609 284.536 225.911 284.617 226.228 284.617C226.552 284.617 226.854 284.536 227.134 284.374C227.414 284.212 227.639 283.976 227.808 283.666C227.985 283.349 228.074 282.981 228.074 282.561ZM232.261 280.405C232.445 280.096 232.688 279.856 232.99 279.687C233.3 279.51 233.665 279.421 234.085 279.421V280.726H233.764C233.27 280.726 232.895 280.851 232.637 281.102C232.386 281.352 232.261 281.787 232.261 282.406V285.612H231V279.521H232.261V280.405ZM238.316 279.421C238.796 279.421 239.223 279.521 239.599 279.72C239.982 279.919 240.281 280.214 240.494 280.604C240.708 280.995 240.815 281.466 240.815 282.019V285.612H239.566V282.207C239.566 281.662 239.429 281.245 239.157 280.958C238.884 280.663 238.512 280.516 238.04 280.516C237.568 280.516 237.193 280.663 236.913 280.958C236.64 281.245 236.503 281.662 236.503 282.207V285.612H235.243V279.521H236.503V280.217C236.71 279.967 236.971 279.771 237.288 279.631C237.613 279.491 237.955 279.421 238.316 279.421Z" fill="#979999"/>
<path d="M196.204 277.376L190.196 280.58L196.204 283.784L202.212 280.58L196.204 277.376Z" stroke="#979999" stroke-width="0.801085" stroke-miterlimit="10" stroke-linecap="round" stroke-linejoin="round"/>
<path d="M192.599 281.862V284.585C192.599 285.466 194.201 286.588 196.204 286.588C198.207 286.588 199.809 285.466 199.809 284.585V281.862" stroke="#979999" stroke-width="0.801085" stroke-miterlimit="10" stroke-linecap="round" stroke-linejoin="round"/>
<path d="M202.212 280.58V285.787" stroke="#979999" stroke-width="0.801085" stroke-miterlimit="10" stroke-linecap="round" stroke-linejoin="round"/>
<rect x="261.476" y="269.392" width="66.2362" height="25.4408" rx="4.60624" stroke="#CDCDCD" stroke-opacity="0.25" stroke-width="0.614165"/>
<path d="M294.01 285.689C293.494 285.689 293.03 285.601 292.617 285.424C292.204 285.24 291.88 284.982 291.644 284.65C291.408 284.319 291.29 283.932 291.29 283.49H292.639C292.669 283.821 292.798 284.094 293.026 284.308C293.262 284.521 293.59 284.628 294.01 284.628C294.445 284.628 294.784 284.525 295.027 284.319C295.27 284.105 295.392 283.832 295.392 283.501C295.392 283.243 295.314 283.033 295.16 282.87C295.012 282.708 294.824 282.583 294.596 282.495C294.375 282.406 294.065 282.31 293.667 282.207C293.166 282.074 292.757 281.942 292.44 281.809C292.131 281.669 291.865 281.455 291.644 281.168C291.423 280.881 291.312 280.497 291.312 280.018C291.312 279.576 291.423 279.189 291.644 278.857C291.865 278.526 292.175 278.272 292.573 278.095C292.971 277.918 293.431 277.829 293.955 277.829C294.699 277.829 295.307 278.017 295.779 278.393C296.258 278.762 296.523 279.27 296.575 279.919H295.182C295.16 279.639 295.027 279.399 294.784 279.2C294.541 279.001 294.22 278.902 293.822 278.902C293.461 278.902 293.166 278.994 292.938 279.178C292.709 279.362 292.595 279.628 292.595 279.974C292.595 280.21 292.665 280.405 292.805 280.56C292.952 280.707 293.137 280.825 293.358 280.914C293.579 281.002 293.881 281.098 294.264 281.201C294.773 281.341 295.185 281.481 295.502 281.621C295.827 281.761 296.099 281.979 296.32 282.273C296.549 282.561 296.663 282.948 296.663 283.434C296.663 283.825 296.556 284.193 296.342 284.54C296.136 284.886 295.83 285.166 295.425 285.38C295.027 285.586 294.555 285.689 294.01 285.689ZM300.792 285.712C300.217 285.712 299.698 285.583 299.234 285.325C298.769 285.059 298.404 284.691 298.139 284.219C297.874 283.74 297.741 283.187 297.741 282.561C297.741 281.942 297.877 281.393 298.15 280.914C298.423 280.435 298.795 280.066 299.267 279.808C299.738 279.55 300.265 279.421 300.848 279.421C301.43 279.421 301.957 279.55 302.428 279.808C302.9 280.066 303.272 280.435 303.545 280.914C303.818 281.393 303.954 281.942 303.954 282.561C303.954 283.18 303.814 283.729 303.534 284.208C303.254 284.687 302.871 285.059 302.384 285.325C301.905 285.583 301.375 285.712 300.792 285.712ZM300.792 284.617C301.117 284.617 301.419 284.54 301.699 284.385C301.986 284.23 302.218 283.998 302.395 283.689C302.572 283.379 302.661 283.003 302.661 282.561C302.661 282.119 302.576 281.747 302.406 281.444C302.237 281.135 302.012 280.903 301.732 280.748C301.452 280.593 301.15 280.516 300.825 280.516C300.501 280.516 300.199 280.593 299.919 280.748C299.646 280.903 299.429 281.135 299.267 281.444C299.105 281.747 299.023 282.119 299.023 282.561C299.023 283.217 299.189 283.725 299.521 284.086C299.86 284.44 300.284 284.617 300.792 284.617ZM306.46 277.431V285.612H305.2V277.431H306.46ZM310.469 284.484L312.194 279.521H313.532L311.21 285.612H309.707L307.396 279.521H308.745L310.469 284.484ZM320.067 282.417C320.067 282.646 320.052 282.852 320.023 283.036H315.369C315.406 283.523 315.586 283.913 315.91 284.208C316.235 284.503 316.633 284.65 317.104 284.65C317.782 284.65 318.261 284.367 318.541 283.799H319.901C319.717 284.359 319.382 284.82 318.895 285.181C318.416 285.535 317.819 285.712 317.104 285.712C316.522 285.712 315.999 285.583 315.535 285.325C315.078 285.059 314.716 284.691 314.451 284.219C314.193 283.74 314.064 283.187 314.064 282.561C314.064 281.934 314.19 281.385 314.44 280.914C314.698 280.435 315.055 280.066 315.512 279.808C315.977 279.55 316.507 279.421 317.104 279.421C317.679 279.421 318.191 279.547 318.641 279.797C319.091 280.048 319.441 280.401 319.691 280.858C319.942 281.308 320.067 281.828 320.067 282.417ZM318.752 282.019C318.744 281.555 318.578 281.183 318.254 280.903C317.93 280.623 317.528 280.483 317.049 280.483C316.614 280.483 316.242 280.623 315.933 280.903C315.623 281.175 315.439 281.548 315.38 282.019H318.752Z" fill="#979999"/>
<path d="M279.278 287.97H276.284C276.184 287.97 276.089 287.931 276.019 287.861C275.949 287.791 275.909 287.695 275.909 287.596V286.848C275.909 286.55 275.791 286.264 275.58 286.054C275.37 285.843 275.084 285.725 274.786 285.725C274.489 285.725 274.203 285.843 273.993 286.054C273.782 286.264 273.664 286.55 273.664 286.848V287.596C273.664 287.695 273.624 287.791 273.554 287.861C273.484 287.931 273.389 287.97 273.289 287.97H270.295C270.196 287.97 270.101 287.931 270.031 287.861C269.961 287.791 269.921 287.695 269.921 287.596V278.614C269.921 278.515 269.961 278.42 270.031 278.349C270.101 278.279 270.196 278.24 270.295 278.24H272.915V277.866C272.915 277.369 273.112 276.893 273.463 276.542C273.814 276.191 274.29 275.994 274.786 275.994C275.283 275.994 275.759 276.191 276.11 276.542C276.461 276.893 276.658 277.369 276.658 277.866V278.24H279.278C279.377 278.24 279.472 278.279 279.542 278.349C279.612 278.42 279.652 278.515 279.652 278.614V281.234H280.026C280.522 281.234 280.998 281.431 281.349 281.782C281.7 282.133 281.897 282.609 281.897 283.105C281.897 283.351 281.849 283.594 281.755 283.821C281.661 284.048 281.523 284.255 281.349 284.428C281.176 284.602 280.969 284.74 280.742 284.834C280.515 284.928 280.272 284.976 280.026 284.976H279.652V287.596C279.652 287.695 279.612 287.791 279.542 287.861C279.472 287.931 279.377 287.97 279.278 287.97ZM276.658 287.222H278.903V284.602C278.903 284.503 278.943 284.408 279.013 284.337C279.083 284.267 279.178 284.228 279.278 284.228H280.026C280.324 284.228 280.609 284.11 280.82 283.899C281.031 283.688 281.149 283.403 281.149 283.105C281.149 282.807 281.031 282.522 280.82 282.311C280.609 282.101 280.324 281.982 280.026 281.982H279.278C279.178 281.982 279.083 281.943 279.013 281.873C278.943 281.803 278.903 281.707 278.903 281.608V278.988H276.284C276.184 278.988 276.089 278.949 276.019 278.879C275.949 278.808 275.909 278.713 275.909 278.614V277.866C275.909 277.568 275.791 277.282 275.58 277.072C275.37 276.861 275.084 276.743 274.786 276.743C274.489 276.743 274.203 276.861 273.993 277.072C273.782 277.282 273.664 277.568 273.664 277.866V278.614C273.664 278.713 273.624 278.808 273.554 278.879C273.484 278.949 273.389 278.988 273.289 278.988H270.67V287.222H272.915V286.848C272.915 286.351 273.112 285.875 273.463 285.524C273.814 285.174 274.29 284.976 274.786 284.976C275.283 284.976 275.759 285.174 276.11 285.524C276.461 285.875 276.658 286.351 276.658 286.848V287.222Z" fill="#979999"/>
<rect x="340.569" y="269.392" width="109.236" height="25.4408" rx="4.60624" stroke="#CDCDCD" stroke-opacity="0.25" stroke-width="0.614165"/>
<path d="M375.202 284.042H371.985L371.433 285.612H370.117L372.87 277.918H374.329L377.082 285.612H375.755L375.202 284.042ZM374.849 283.014L373.599 279.443L372.339 283.014H374.849ZM380.49 285.712C380.011 285.712 379.579 285.627 379.196 285.457C378.82 285.28 378.522 285.045 378.301 284.75C378.08 284.448 377.962 284.112 377.947 283.744H379.251C379.274 284.002 379.395 284.219 379.616 284.396C379.845 284.566 380.128 284.65 380.467 284.65C380.821 284.65 381.094 284.584 381.286 284.451C381.485 284.311 381.584 284.134 381.584 283.921C381.584 283.692 381.473 283.523 381.252 283.412C381.039 283.302 380.696 283.18 380.224 283.047C379.767 282.922 379.395 282.8 379.108 282.683C378.82 282.565 378.57 282.384 378.356 282.141C378.15 281.898 378.046 281.577 378.046 281.179C378.046 280.855 378.142 280.56 378.334 280.295C378.525 280.022 378.798 279.808 379.152 279.653C379.513 279.499 379.926 279.421 380.39 279.421C381.083 279.421 381.639 279.598 382.059 279.952C382.487 280.298 382.715 280.774 382.745 281.378H381.485C381.462 281.105 381.352 280.888 381.153 280.726C380.954 280.564 380.685 280.483 380.346 280.483C380.014 280.483 379.76 280.545 379.583 280.671C379.406 280.796 379.318 280.962 379.318 281.168C379.318 281.33 379.377 281.466 379.495 281.577C379.613 281.688 379.756 281.776 379.926 281.842C380.095 281.901 380.346 281.979 380.678 282.074C381.12 282.192 381.481 282.314 381.761 282.439C382.048 282.557 382.295 282.734 382.502 282.97C382.708 283.206 382.815 283.519 382.822 283.91C382.822 284.256 382.726 284.566 382.535 284.838C382.343 285.111 382.07 285.325 381.717 285.479C381.37 285.634 380.961 285.712 380.49 285.712ZM386.594 282.572L389.402 285.612H387.699L385.444 282.992V285.612H384.184V277.431H385.444V282.185L387.655 279.521H389.402L386.594 282.572ZM399.124 287.005L397.776 285.546C397.444 285.642 397.079 285.689 396.681 285.689C395.966 285.689 395.307 285.524 394.702 285.192C394.106 284.853 393.63 284.385 393.276 283.788C392.93 283.184 392.757 282.506 392.757 281.754C392.757 281.002 392.93 280.328 393.276 279.731C393.63 279.134 394.106 278.67 394.702 278.338C395.307 277.999 395.966 277.829 396.681 277.829C397.404 277.829 398.063 277.999 398.66 278.338C399.265 278.67 399.74 279.134 400.086 279.731C400.433 280.328 400.606 281.002 400.606 281.754C400.606 282.461 400.451 283.103 400.142 283.677C399.839 284.245 399.419 284.702 398.881 285.048L400.727 287.005H399.124ZM394.05 281.754C394.05 282.321 394.161 282.823 394.382 283.257C394.61 283.685 394.924 284.016 395.322 284.252C395.72 284.481 396.173 284.595 396.681 284.595C397.19 284.595 397.643 284.481 398.041 284.252C398.439 284.016 398.749 283.685 398.97 283.257C399.198 282.823 399.312 282.321 399.312 281.754C399.312 281.186 399.198 280.689 398.97 280.261C398.749 279.834 398.439 279.506 398.041 279.278C397.643 279.049 397.19 278.935 396.681 278.935C396.173 278.935 395.72 279.049 395.322 279.278C394.924 279.506 394.61 279.834 394.382 280.261C394.161 280.689 394.05 281.186 394.05 281.754ZM407.395 279.521V285.612H406.135V284.894C405.936 285.144 405.674 285.343 405.35 285.49C405.033 285.631 404.694 285.701 404.333 285.701C403.854 285.701 403.422 285.601 403.039 285.402C402.663 285.203 402.365 284.908 402.144 284.518C401.93 284.127 401.823 283.655 401.823 283.103V279.521H403.072V282.915C403.072 283.46 403.209 283.88 403.481 284.175C403.754 284.462 404.126 284.606 404.598 284.606C405.07 284.606 405.442 284.462 405.714 284.175C405.995 283.88 406.135 283.46 406.135 282.915V279.521H407.395ZM414.64 282.417C414.64 282.646 414.626 282.852 414.596 283.036H409.942C409.979 283.523 410.159 283.913 410.484 284.208C410.808 284.503 411.206 284.65 411.678 284.65C412.356 284.65 412.835 284.367 413.115 283.799H414.475C414.29 284.359 413.955 284.82 413.469 285.181C412.99 285.535 412.393 285.712 411.678 285.712C411.095 285.712 410.572 285.583 410.108 285.325C409.651 285.059 409.29 284.691 409.024 284.219C408.767 283.74 408.638 283.187 408.638 282.561C408.638 281.934 408.763 281.385 409.013 280.914C409.271 280.435 409.629 280.066 410.086 279.808C410.55 279.55 411.081 279.421 411.678 279.421C412.253 279.421 412.765 279.547 413.214 279.797C413.664 280.048 414.014 280.401 414.265 280.858C414.515 281.308 414.64 281.828 414.64 282.417ZM413.325 282.019C413.317 281.555 413.152 281.183 412.827 280.903C412.503 280.623 412.101 280.483 411.622 280.483C411.188 280.483 410.815 280.623 410.506 280.903C410.196 281.175 410.012 281.548 409.953 282.019H413.325ZM418.092 285.712C417.613 285.712 417.181 285.627 416.798 285.457C416.422 285.28 416.124 285.045 415.903 284.75C415.682 284.448 415.564 284.112 415.549 283.744H416.853C416.876 284.002 416.997 284.219 417.218 284.396C417.447 284.566 417.73 284.65 418.07 284.65C418.423 284.65 418.696 284.584 418.888 284.451C419.087 284.311 419.186 284.134 419.186 283.921C419.186 283.692 419.076 283.523 418.854 283.412C418.641 283.302 418.298 283.18 417.826 283.047C417.369 282.922 416.997 282.8 416.71 282.683C416.422 282.565 416.172 282.384 415.958 282.141C415.752 281.898 415.648 281.577 415.648 281.179C415.648 280.855 415.744 280.56 415.936 280.295C416.128 280.022 416.4 279.808 416.754 279.653C417.115 279.499 417.528 279.421 417.992 279.421C418.685 279.421 419.241 279.598 419.661 279.952C420.089 280.298 420.317 280.774 420.347 281.378H419.087C419.064 281.105 418.954 280.888 418.755 280.726C418.556 280.564 418.287 280.483 417.948 280.483C417.616 280.483 417.362 280.545 417.185 280.671C417.008 280.796 416.92 280.962 416.92 281.168C416.92 281.33 416.979 281.466 417.097 281.577C417.215 281.688 417.358 281.776 417.528 281.842C417.697 281.901 417.948 281.979 418.28 282.074C418.722 282.192 419.083 282.314 419.363 282.439C419.65 282.557 419.897 282.734 420.104 282.97C420.31 283.206 420.417 283.519 420.424 283.91C420.424 284.256 420.328 284.566 420.137 284.838C419.945 285.111 419.672 285.325 419.319 285.479C418.972 285.634 418.563 285.712 418.092 285.712ZM423.256 280.549V283.921C423.256 284.149 423.308 284.315 423.411 284.418C423.522 284.514 423.706 284.562 423.964 284.562H424.738V285.612H423.743C423.175 285.612 422.74 285.479 422.438 285.214C422.136 284.949 421.985 284.518 421.985 283.921V280.549H421.266V279.521H421.985V278.006H423.256V279.521H424.738V280.549H423.256ZM426.54 278.714C426.312 278.714 426.12 278.636 425.966 278.482C425.811 278.327 425.733 278.135 425.733 277.907C425.733 277.678 425.811 277.487 425.966 277.332C426.12 277.177 426.312 277.1 426.54 277.1C426.761 277.1 426.949 277.177 427.104 277.332C427.259 277.487 427.336 277.678 427.336 277.907C427.336 278.135 427.259 278.327 427.104 278.482C426.949 278.636 426.761 278.714 426.54 278.714ZM427.159 279.521V285.612H425.899V279.521H427.159ZM431.456 285.712C430.881 285.712 430.362 285.583 429.897 285.325C429.433 285.059 429.068 284.691 428.803 284.219C428.538 283.74 428.405 283.187 428.405 282.561C428.405 281.942 428.541 281.393 428.814 280.914C429.087 280.435 429.459 280.066 429.931 279.808C430.402 279.55 430.929 279.421 431.512 279.421C432.094 279.421 432.621 279.55 433.092 279.808C433.564 280.066 433.936 280.435 434.209 280.914C434.482 281.393 434.618 281.942 434.618 282.561C434.618 283.18 434.478 283.729 434.198 284.208C433.918 284.687 433.535 285.059 433.048 285.325C432.569 285.583 432.038 285.712 431.456 285.712ZM431.456 284.617C431.781 284.617 432.083 284.54 432.363 284.385C432.65 284.23 432.882 283.998 433.059 283.689C433.236 283.379 433.325 283.003 433.325 282.561C433.325 282.119 433.24 281.747 433.07 281.444C432.901 281.135 432.676 280.903 432.396 280.748C432.116 280.593 431.814 280.516 431.489 280.516C431.165 280.516 430.863 280.593 430.583 280.748C430.31 280.903 430.093 281.135 429.931 281.444C429.769 281.747 429.687 282.119 429.687 282.561C429.687 283.217 429.853 283.725 430.185 284.086C430.524 284.44 430.948 284.617 431.456 284.617ZM438.937 279.421C439.416 279.421 439.844 279.521 440.219 279.72C440.603 279.919 440.901 280.214 441.115 280.604C441.329 280.995 441.436 281.466 441.436 282.019V285.612H440.186V282.207C440.186 281.662 440.05 281.245 439.777 280.958C439.505 280.663 439.132 280.516 438.661 280.516C438.189 280.516 437.813 280.663 437.533 280.958C437.26 281.245 437.124 281.662 437.124 282.207V285.612H435.864V279.521H437.124V280.217C437.33 279.967 437.592 279.771 437.909 279.631C438.233 279.491 438.576 279.421 438.937 279.421Z" fill="#979999"/>
<path d="M355.002 285.053V285.049M355.002 283.737C355.002 281.763 356.844 282.201 356.844 280.666C356.844 279.697 356.019 278.911 355.002 278.911C354.177 278.911 353.478 279.428 353.243 280.14M360.529 281.982C360.529 285.035 358.054 287.51 355.002 287.51C351.949 287.51 349.474 285.035 349.474 281.982C349.474 278.929 351.949 276.455 355.002 276.455C358.054 276.455 360.529 278.929 360.529 281.982Z" stroke="#979999" stroke-width="0.921248" stroke-linecap="round" stroke-linejoin="round"/>
<defs>
<filter id="filter0_d_168_417" x="29.4692" y="100.531" width="461.862" height="200.406" filterUnits="userSpaceOnUse" color-interpolation-filters="sRGB">
<feFlood flood-opacity="0" result="BackgroundImageFix"/>
<feColorMatrix in="SourceAlpha" type="matrix" values="0 0 0 0 0 0 0 0 0 0 0 0 0 0 0 0 0 0 127 0" result="hardAlpha"/>
<feMorphology radius="1.32719" operator="dilate" in="SourceAlpha" result="effect1_dropShadow_168_417"/>
<feOffset dy="2.65438"/>
<feGaussianBlur stdDeviation="19.9078"/>
<feComposite in2="hardAlpha" operator="out"/>
<feColorMatrix type="matrix" values="0 0 0 0 0 0 0 0 0 0 0 0 0 0 0 0 0 0 0.15 0"/>
<feBlend mode="normal" in2="BackgroundImageFix" result="effect1_dropShadow_168_417"/>
<feBlend mode="normal" in="SourceGraphic" in2="effect1_dropShadow_168_417" result="shape"/>
</filter>
<clipPath id="clip0_168_417">
<rect width="13.2719" height="13.2719" fill="white" transform="translate(164.179 221.969)"/>
</clipPath>
</defs>
</svg>
