<svg width="6055" height="1456" viewBox="0 0 6055 1456" fill="none" xmlns="http://www.w3.org/2000/svg">
<path d="M29.5869 767.823C29.5869 704.606 42.6558 648.381 68.7935 599.146C95.5392 549.303 133.226 510.704 181.855 483.351C230.483 455.39 286.405 441.41 349.623 441.41C429.859 441.41 497.332 462.988 552.039 506.145C606.746 548.694 642.001 606.743 657.806 680.293H465.42C453.869 655.979 437.761 637.44 417.094 624.675C397.036 611.911 373.633 605.528 346.887 605.528C305.553 605.528 272.425 620.42 247.503 650.204C223.189 679.381 211.032 718.586 211.032 767.823C211.032 817.665 223.189 857.479 247.503 887.264C272.425 916.44 305.553 931.029 346.887 931.029C373.633 931.029 397.036 924.646 417.094 911.881C437.761 899.117 453.869 880.578 465.42 856.263H657.806C642.001 929.813 606.746 988.166 552.039 1031.32C497.332 1073.88 429.859 1095.14 349.623 1095.14C286.405 1095.14 230.483 1081.47 181.855 1054.12C133.226 1026.16 95.5392 987.558 68.7935 938.322C42.6558 888.48 29.5869 831.646 29.5869 767.823ZM980.406 1096.97C929.346 1096.97 883.453 1086.33 842.726 1065.06C802.608 1043.78 770.999 1013.39 747.901 973.882C724.802 934.372 713.253 887.872 713.253 834.381C713.253 781.499 724.802 735.303 747.901 695.792C771.607 656.283 803.519 625.891 843.638 604.616C884.364 583.342 930.258 572.704 981.318 572.704C1032.38 572.704 1077.96 583.342 1118.08 604.616C1158.81 625.891 1190.72 656.283 1213.83 695.792C1237.53 735.303 1249.38 781.499 1249.38 834.381C1249.38 887.264 1237.53 933.763 1213.83 973.882C1190.72 1013.39 1158.81 1043.78 1118.08 1065.06C1077.35 1086.33 1031.47 1096.97 980.406 1096.97ZM980.406 941.97C1005.33 941.97 1025.99 932.853 1042.41 914.617C1059.43 895.774 1067.94 869.029 1067.94 834.381C1067.94 799.735 1059.43 773.292 1042.41 755.057C1025.99 736.822 1005.63 727.704 981.318 727.704C957.003 727.704 936.639 736.822 920.228 755.057C903.816 773.292 895.609 799.735 895.609 834.381C895.609 869.636 903.511 896.382 919.316 914.617C935.12 932.853 955.483 941.97 980.406 941.97ZM1292.91 834.381C1292.91 781.499 1302.34 735.303 1321.18 695.792C1340.63 656.283 1367.07 625.891 1400.5 604.616C1433.94 583.342 1471.02 572.704 1511.74 572.704C1544.57 572.704 1573.74 579.694 1599.27 593.675C1625.41 607.047 1645.77 625.587 1660.36 649.293V415.881H1839.98V1090.59H1660.36V1019.47C1646.38 1043.18 1626.63 1062.02 1601.09 1076C1575.56 1089.98 1545.47 1096.97 1510.83 1096.97C1470.1 1096.97 1433.02 1086.33 1399.59 1065.06C1366.77 1043.78 1340.63 1013.39 1321.18 973.882C1302.34 933.763 1292.91 887.264 1292.91 834.381ZM1661.27 834.381C1661.27 801.557 1652.15 775.725 1633.92 756.881C1616.29 738.038 1594.41 728.616 1568.27 728.616C1541.52 728.616 1519.34 738.038 1501.71 756.881C1484.08 775.116 1475.27 800.95 1475.27 834.381C1475.27 867.205 1484.08 893.342 1501.71 912.793C1519.34 931.637 1541.52 941.058 1568.27 941.058C1594.41 941.058 1616.29 931.637 1633.92 912.793C1652.15 893.95 1661.27 867.812 1661.27 834.381ZM2430.53 828.91C2430.53 842.892 2429.62 856.872 2427.8 870.852H2089.53C2091.35 898.813 2098.94 919.783 2112.32 933.763C2126.3 947.136 2143.93 953.823 2165.21 953.823C2194.99 953.823 2216.26 940.45 2229.03 913.705H2419.6C2411.69 948.96 2396.19 980.568 2373.09 1008.53C2350.6 1035.88 2322.03 1057.46 2287.38 1073.27C2252.74 1089.07 2214.43 1096.97 2172.49 1096.97C2122.04 1096.97 2077.07 1086.33 2037.55 1065.06C1998.66 1043.78 1967.95 1013.39 1945.46 973.882C1923.58 934.372 1912.64 887.872 1912.64 834.381C1912.64 780.891 1923.58 734.695 1945.46 695.792C1967.34 656.283 1997.74 625.891 2036.64 604.616C2076.15 583.342 2121.44 572.704 2172.49 572.704C2222.95 572.704 2267.62 583.037 2306.53 603.705C2345.43 624.371 2375.82 654.156 2397.71 693.057C2419.6 731.352 2430.53 776.636 2430.53 828.91ZM2248.17 784.234C2248.17 762.352 2240.88 745.332 2226.3 733.175C2211.7 720.41 2193.46 714.028 2171.59 714.028C2149.7 714.028 2131.78 720.107 2117.79 732.263C2103.81 743.813 2094.69 761.136 2090.43 784.234H2248.17Z" fill="url(#paint0_linear_2510_49)" fill-opacity="0.5"/>
<path d="M3254.06 447.791V1090.59H3075.36V735.91L2954.09 1090.59H2804.55L2682.38 733.174V1090.59H2503.67V447.791H2719.76L2881.15 865.38L3038.89 447.791H3254.06ZM3326.61 834.38C3326.61 781.498 3336.04 735.301 3354.88 695.791C3374.33 656.282 3400.47 625.889 3433.29 604.615C3466.72 583.341 3503.8 572.703 3544.53 572.703C3579.79 572.703 3610.18 579.693 3635.71 593.674C3661.23 607.654 3680.99 626.498 3694.97 650.203V579.086H3873.68V1090.59H3694.97V1019.47C3680.99 1043.18 3660.94 1062.01 3634.8 1075.99C3609.27 1089.97 3579.18 1096.96 3544.53 1096.96C3503.8 1096.96 3466.72 1086.33 3433.29 1065.06C3400.47 1043.78 3374.33 1013.39 3354.88 973.881C3336.04 933.762 3326.61 887.263 3326.61 834.38ZM3694.97 834.38C3694.97 801.556 3685.85 775.724 3667.62 756.88C3650 738.037 3628.11 728.615 3601.97 728.615C3575.23 728.615 3553.04 738.037 3535.41 756.88C3517.78 775.115 3508.97 800.949 3508.97 834.38C3508.97 867.204 3517.78 893.341 3535.41 912.792C3553.04 931.636 3575.23 941.057 3601.97 941.057C3628.11 941.057 3650 931.636 3667.62 912.792C3685.85 893.948 3694.97 867.811 3694.97 834.38ZM4277.32 938.321V1090.59H4199.82C4069.13 1090.59 4003.79 1025.85 4003.79 896.381V727.703H3940.87V579.086H4003.79V455.085H4183.41V579.086H4276.4V727.703H4183.41V899.116C4183.41 913.096 4186.45 923.125 4192.52 929.203C4199.22 935.283 4210.15 938.321 4225.35 938.321H4277.32ZM4848.01 828.909C4848.01 842.89 4847.09 856.87 4845.27 870.851H4506.99C4508.82 898.812 4516.42 919.782 4529.79 933.762C4543.77 947.135 4561.4 953.822 4582.67 953.822C4612.46 953.822 4633.74 940.449 4646.5 913.704H4837.06C4829.15 948.959 4813.66 980.567 4790.56 1008.53C4768.07 1035.88 4739.51 1057.46 4704.85 1073.26C4670.2 1089.07 4631.91 1096.96 4589.97 1096.96C4539.52 1096.96 4494.53 1086.33 4455.03 1065.06C4416.12 1043.78 4385.42 1013.39 4362.93 973.881C4341.05 934.371 4330.11 887.87 4330.11 834.38C4330.11 780.89 4341.05 734.694 4362.93 695.791C4384.82 656.282 4415.22 625.889 4454.11 604.615C4493.63 583.341 4538.91 572.703 4589.97 572.703C4640.42 572.703 4685.1 583.036 4724 603.704C4762.9 624.37 4793.3 654.154 4815.17 693.056C4837.06 731.351 4848.01 776.634 4848.01 828.909ZM4665.65 784.233C4665.65 762.351 4658.35 745.331 4643.76 733.174C4629.17 720.409 4610.94 714.026 4589.05 714.026C4567.18 714.026 4549.24 720.106 4535.26 732.262C4521.28 743.812 4512.16 761.135 4507.91 784.233H4665.65ZM5007.76 1097.88C4976.15 1097.88 4950.62 1089.37 4931.17 1072.35C4912.32 1054.72 4902.91 1032.54 4902.91 1005.79C4902.91 979.047 4912.32 956.861 4931.17 939.233C4950.62 921.606 4976.15 912.792 5007.76 912.792C5038.76 912.792 5063.68 921.606 5082.52 939.233C5101.97 956.861 5111.7 979.047 5111.7 1005.79C5111.7 1031.93 5101.97 1053.81 5082.52 1071.44C5063.68 1089.07 5038.76 1097.88 5007.76 1097.88ZM5166.21 834.38C5166.21 781.498 5175.63 735.301 5194.47 695.791C5213.92 656.282 5240.06 625.889 5272.89 604.615C5306.32 583.341 5343.4 572.703 5384.12 572.703C5419.38 572.703 5449.77 579.693 5475.3 593.674C5500.84 607.654 5520.58 626.498 5534.57 650.203V579.086H5713.28V1090.59H5534.57V1019.47C5520.58 1043.18 5500.53 1062.01 5474.39 1075.99C5448.86 1089.97 5418.78 1096.96 5384.12 1096.96C5343.4 1096.96 5306.32 1086.33 5272.89 1065.06C5240.06 1043.78 5213.92 1013.39 5194.47 973.881C5175.63 933.762 5166.21 887.263 5166.21 834.38ZM5534.57 834.38C5534.57 801.556 5525.45 775.724 5507.21 756.88C5489.59 738.037 5467.71 728.615 5441.57 728.615C5414.82 728.615 5392.63 738.037 5375.01 756.88C5357.38 775.115 5348.57 800.949 5348.57 834.38C5348.57 867.204 5357.38 893.341 5375.01 912.792C5392.63 931.636 5414.82 941.057 5441.57 941.057C5467.71 941.057 5489.59 931.636 5507.21 912.792C5525.45 893.948 5534.57 867.811 5534.57 834.38ZM5905.38 531.673C5873.77 531.673 5848.24 523.164 5828.79 506.144C5809.94 488.516 5800.53 466.634 5800.53 440.497C5800.53 413.752 5809.94 391.565 5828.79 373.938C5848.24 356.31 5873.77 347.496 5905.38 347.496C5936.38 347.496 5961.3 356.31 5980.14 373.938C5999.6 391.565 6009.33 413.752 6009.33 440.497C6009.33 466.634 5999.6 488.516 5980.14 506.144C5961.3 523.164 5936.38 531.673 5905.38 531.673ZM5993.82 579.086V1090.59H5815.11V579.086H5993.82Z" fill="#444444"/>
<path d="M4964.01 275.688C4991.09 275.688 5015.36 281.989 5036.84 294.593C5058.31 306.731 5075.12 323.77 5087.25 345.71C5099.39 367.185 5105.46 391.46 5105.46 418.536C5105.46 445.611 5099.39 470.12 5087.25 492.06C5075.12 514.001 5058.31 531.274 5036.84 543.878C5015.36 556.015 4991.09 562.084 4964.01 562.084C4936.46 562.084 4911.96 556.015 4890.49 543.878C4869.01 531.274 4852.2 514.001 4840.07 492.06C4827.93 470.12 4821.86 445.611 4821.86 418.536C4821.86 391.46 4827.93 367.185 4840.07 345.71C4852.2 323.77 4869.01 306.731 4890.49 294.593C4911.96 281.989 4936.46 275.688 4964.01 275.688ZM4964.01 534.074C4997.63 534.074 5024.7 523.337 5045.24 501.864C5066.24 480.39 5076.75 452.614 5076.75 418.536C5076.75 384.457 5066.24 356.682 5045.24 335.207C5024.7 313.733 4997.63 302.996 4964.01 302.996C4929.93 302.996 4902.62 313.733 4882.08 335.207C4862.01 356.682 4851.97 384.457 4851.97 418.536C4851.97 452.614 4862.01 480.39 4882.08 501.864C4902.62 523.337 4929.93 534.074 4964.01 534.074ZM5027.03 389.126C5027.03 400.329 5023.99 409.899 5017.93 417.836C5012.32 425.304 5004.39 430.673 4994.13 433.941L5033.34 492.06L4989.22 492.761L4955.61 436.742H4943.71V492.761H4907.29V342.21H4974.51C4990.38 342.21 5002.99 346.412 5012.32 354.814C5022.13 363.217 5027.03 374.654 5027.03 389.126ZM4943.71 406.632H4972.42C4977.55 406.632 4981.75 405.231 4985.02 402.43C4988.75 399.629 4990.61 395.661 4990.61 390.526C4990.61 385.391 4988.75 381.656 4985.02 379.322C4981.75 376.522 4977.55 375.12 4972.42 375.12H4943.71V406.632Z" fill="#232325"/>
<defs>
<linearGradient id="paint0_linear_2510_49" x1="3033.18" y1="434.358" x2="3033.18" y2="1090.72" gradientUnits="userSpaceOnUse">
<stop offset="0.0987921" stop-color="#2FCACE"/>
<stop offset="0.848377" stop-color="#48AEF3"/>
</linearGradient>
</defs>
</svg>
