<svg width="211" height="28" viewBox="0 0 211 28" fill="none" xmlns="http://www.w3.org/2000/svg">
<path d="M0.524159 15.6702C0.524159 13.4512 0.982897 11.4776 1.90037 9.74932C2.83918 7.99972 4.16206 6.64484 5.86899 5.68469C7.57592 4.70321 9.53889 4.21247 11.7579 4.21247C14.5743 4.21247 16.9427 4.96992 18.863 6.48482C20.7833 7.97838 22.0208 10.016 22.5756 12.5978H15.8225C15.4171 11.7443 14.8517 11.0935 14.1263 10.6455C13.4222 10.1974 12.6007 9.97336 11.6619 9.97336C10.211 9.97336 9.04815 10.4961 8.17335 11.5416C7.31988 12.5658 6.89315 13.942 6.89315 15.6702C6.89315 17.4198 7.31988 18.8174 8.17335 19.8629C9.04815 20.8871 10.211 21.3991 11.6619 21.3991C12.6007 21.3991 13.4222 21.1751 14.1263 20.727C14.8517 20.279 15.4171 19.6282 15.8225 18.7747H22.5756C22.0208 21.3565 20.7833 23.4048 18.863 24.9197C16.9427 26.4132 14.5743 27.16 11.7579 27.16C9.53889 27.16 7.57592 26.68 5.86899 25.7198C4.16206 24.7383 2.83918 23.3834 1.90037 21.6552C0.982897 19.9056 0.524159 17.9106 0.524159 15.6702ZM33.8993 27.224C32.1071 27.224 30.4961 26.8506 29.0666 26.1039C27.6584 25.3571 26.5489 24.2902 25.7381 22.9034C24.9273 21.5165 24.5219 19.8842 24.5219 18.0066C24.5219 16.1503 24.9273 14.5287 25.7381 13.1419C26.5702 11.755 27.6904 10.6881 29.0986 9.94135C30.5281 9.19457 32.1391 8.82118 33.9313 8.82118C35.7236 8.82118 37.3239 9.19457 38.7321 9.94135C40.1616 10.6881 41.2818 11.755 42.0926 13.1419C42.9247 14.5287 43.3408 16.1503 43.3408 18.0066C43.3408 19.8629 42.9247 21.4951 42.0926 22.9034C41.2818 24.2902 40.1616 25.3571 38.7321 26.1039C37.3025 26.8506 35.6916 27.224 33.8993 27.224ZM33.8993 21.7832C34.7741 21.7832 35.4996 21.4631 36.0757 20.823C36.6731 20.1616 36.9718 19.2228 36.9718 18.0066C36.9718 16.7904 36.6731 15.8623 36.0757 15.2222C35.4996 14.5821 34.7848 14.262 33.9313 14.262C33.0779 14.262 32.3631 14.5821 31.787 15.2222C31.2109 15.8623 30.9229 16.7904 30.9229 18.0066C30.9229 19.2441 31.2002 20.1829 31.755 20.823C32.3098 21.4631 33.0245 21.7832 33.8993 21.7832ZM44.8688 18.0066C44.8688 16.1503 45.1995 14.5287 45.8609 13.1419C46.5437 11.755 47.4719 10.6881 48.6454 9.94135C49.8189 9.19457 51.1204 8.82118 52.55 8.82118C53.7022 8.82118 54.7263 9.06655 55.6225 9.55729C56.5399 10.0267 57.2547 10.6775 57.7668 11.5096V3.31633H64.0718V27H57.7668V24.5036C57.276 25.3357 56.5826 25.9972 55.6865 26.4879C54.7903 26.9787 53.7342 27.224 52.518 27.224C51.0884 27.224 49.7869 26.8506 48.6134 26.1039C47.4612 25.3571 46.5437 24.2902 45.8609 22.9034C45.1995 21.4951 44.8688 19.8629 44.8688 18.0066ZM57.7988 18.0066C57.7988 16.8544 57.4787 15.9476 56.8386 15.2862C56.2199 14.6247 55.4518 14.294 54.5343 14.294C53.5955 14.294 52.8167 14.6247 52.1979 15.2862C51.5792 15.9263 51.2698 16.8331 51.2698 18.0066C51.2698 19.1588 51.5792 20.0763 52.1979 20.759C52.8167 21.4205 53.5955 21.7512 54.5343 21.7512C55.4518 21.7512 56.2199 21.4205 56.8386 20.759C57.4787 20.0976 57.7988 19.1801 57.7988 18.0066ZM84.801 17.8146C84.801 18.3053 84.769 18.7961 84.705 19.2868H72.8311C72.8951 20.2683 73.1618 21.0044 73.6312 21.4951C74.122 21.9646 74.7408 22.1993 75.4875 22.1993C76.533 22.1993 77.2798 21.7298 77.7279 20.791H84.4169C84.1395 22.0286 83.5955 23.1381 82.7847 24.1196C81.9952 25.0797 80.9924 25.8372 79.7762 26.3919C78.56 26.9467 77.2158 27.224 75.7436 27.224C73.9726 27.224 72.3937 26.8506 71.0068 26.1039C69.6413 25.3571 68.5638 24.2902 67.7743 22.9034C67.0062 21.5165 66.6222 19.8842 66.6222 18.0066C66.6222 16.129 67.0062 14.5074 67.7743 13.1419C68.5425 11.755 69.6093 10.6881 70.9748 9.94135C72.3617 9.19457 73.9513 8.82118 75.7436 8.82118C77.5145 8.82118 79.0828 9.1839 80.4483 9.90935C81.8139 10.6348 82.8807 11.6803 83.6488 13.0458C84.4169 14.39 84.801 15.9796 84.801 17.8146ZM78.4 16.2463C78.4 15.4782 78.1439 14.8808 77.6319 14.4541C77.1198 14.006 76.4797 13.7819 75.7116 13.7819C74.9435 13.7819 74.314 13.9953 73.8233 14.422C73.3325 14.8274 73.0125 15.4355 72.8631 16.2463H78.4Z" fill="url(#paint0_linear_1_245)"/>
<path d="M113.708 4.4365V27H107.435V14.5501L103.179 27H97.9298L93.6411 14.4541V27H87.3681V4.4365H94.9533L100.618 19.0948L106.155 4.4365H113.708ZM116.255 18.0066C116.255 16.1503 116.586 14.5287 117.247 13.1419C117.93 11.755 118.847 10.6881 119.999 9.94135C121.173 9.19457 122.474 8.82118 123.904 8.82118C125.142 8.82118 126.208 9.06655 127.105 9.55729C128.001 10.048 128.694 10.7095 129.185 11.5416V9.04521H135.458V27H129.185V24.5036C128.694 25.3357 127.99 25.9972 127.073 26.4879C126.176 26.9787 125.12 27.224 123.904 27.224C122.474 27.224 121.173 26.8506 119.999 26.1039C118.847 25.3571 117.93 24.2902 117.247 22.9034C116.586 21.4951 116.255 19.8629 116.255 18.0066ZM129.185 18.0066C129.185 16.8544 128.865 15.9476 128.225 15.2862C127.606 14.6247 126.838 14.294 125.92 14.294C124.982 14.294 124.203 14.6247 123.584 15.2862C122.965 15.9263 122.656 16.8331 122.656 18.0066C122.656 19.1588 122.965 20.0763 123.584 20.759C124.203 21.4205 124.982 21.7512 125.92 21.7512C126.838 21.7512 127.606 21.4205 128.225 20.759C128.865 20.0976 129.185 19.1801 129.185 18.0066ZM149.626 21.6552V27H146.906C142.318 27 140.025 24.7276 140.025 20.1829V14.262H137.816V9.04521H140.025V4.69254H146.33V9.04521H149.594V14.262H146.33V20.279C146.33 20.7697 146.436 21.1218 146.65 21.3351C146.884 21.5485 147.268 21.6552 147.802 21.6552H149.626ZM169.658 17.8146C169.658 18.3053 169.626 18.7961 169.562 19.2868H157.688C157.752 20.2683 158.019 21.0044 158.488 21.4951C158.979 21.9646 159.598 22.1993 160.344 22.1993C161.39 22.1993 162.137 21.7298 162.585 20.791H169.274C168.996 22.0286 168.452 23.1381 167.642 24.1196C166.852 25.0797 165.849 25.8372 164.633 26.3919C163.417 26.9467 162.073 27.224 160.6 27.224C158.83 27.224 157.251 26.8506 155.864 26.1039C154.498 25.3571 153.421 24.2902 152.631 22.9034C151.863 21.5165 151.479 19.8842 151.479 18.0066C151.479 16.129 151.863 14.5074 152.631 13.1419C153.399 11.755 154.466 10.6881 155.832 9.94135C157.219 9.19457 158.808 8.82118 160.6 8.82118C162.371 8.82118 163.94 9.1839 165.305 9.90935C166.671 10.6348 167.738 11.6803 168.506 13.0458C169.274 14.39 169.658 15.9796 169.658 17.8146ZM163.257 16.2463C163.257 15.4782 163.001 14.8808 162.489 14.4541C161.977 14.006 161.337 13.7819 160.568 13.7819C159.8 13.7819 159.171 13.9953 158.68 14.422C158.189 14.8274 157.869 15.4355 157.72 16.2463H163.257ZM175.266 27.256C174.156 27.256 173.26 26.9573 172.577 26.3599C171.916 25.7411 171.585 24.9624 171.585 24.0235C171.585 23.0847 171.916 22.3059 172.577 21.6872C173.26 21.0684 174.156 20.759 175.266 20.759C176.354 20.759 177.228 21.0684 177.89 21.6872C178.573 22.3059 178.914 23.0847 178.914 24.0235C178.914 24.941 178.573 25.7091 177.89 26.3279C177.228 26.9467 176.354 27.256 175.266 27.256ZM180.827 18.0066C180.827 16.1503 181.158 14.5287 181.82 13.1419C182.502 11.755 183.42 10.6881 184.572 9.94135C185.745 9.19457 187.047 8.82118 188.477 8.82118C189.714 8.82118 190.781 9.06655 191.677 9.55729C192.573 10.048 193.267 10.7095 193.757 11.5416V9.04521H200.03V27H193.757V24.5036C193.267 25.3357 192.563 25.9972 191.645 26.4879C190.749 26.9787 189.693 27.224 188.477 27.224C187.047 27.224 185.745 26.8506 184.572 26.1039C183.42 25.3571 182.502 24.2902 181.82 22.9034C181.158 21.4951 180.827 19.8629 180.827 18.0066ZM193.757 18.0066C193.757 16.8544 193.437 15.9476 192.797 15.2862C192.178 14.6247 191.41 14.294 190.493 14.294C189.554 14.294 188.775 14.6247 188.157 15.2862C187.538 15.9263 187.228 16.8331 187.228 18.0066C187.228 19.1588 187.538 20.0763 188.157 20.759C188.775 21.4205 189.554 21.7512 190.493 21.7512C191.41 21.7512 192.178 21.4205 192.797 20.759C193.437 20.0976 193.757 19.1801 193.757 18.0066ZM206.773 7.38096C205.664 7.38096 204.768 7.08224 204.085 6.48482C203.424 5.86606 203.093 5.09794 203.093 4.18046C203.093 3.24165 203.424 2.46286 204.085 1.8441C204.768 1.22534 205.664 0.915953 206.773 0.915953C207.862 0.915953 208.736 1.22534 209.398 1.8441C210.081 2.46286 210.422 3.24165 210.422 4.18046C210.422 5.09794 210.081 5.86606 209.398 6.48482C208.736 7.08224 207.862 7.38096 206.773 7.38096ZM209.878 9.04521V27H203.605V9.04521H209.878Z" fill="white"/>
<defs>
<linearGradient id="paint0_linear_1_245" x1="105.955" y1="4.16" x2="105.955" y2="27.2" gradientUnits="userSpaceOnUse">
<stop offset="0.0987921" stop-color="#2FCACE"/>
<stop offset="0.848377" stop-color="#48AEF3"/>
</linearGradient>
</defs>
</svg>
