<svg width="5743" height="1298" viewBox="0 0 5743 1298" fill="none" xmlns="http://www.w3.org/2000/svg">
<path d="M28.0628 645.271C28.0628 585.311 40.4583 531.982 65.2492 485.283C90.6167 438.007 126.362 401.397 172.485 375.453C218.607 348.932 271.648 335.672 331.608 335.672C407.71 335.672 471.706 356.139 523.594 397.073C575.482 437.43 608.921 492.489 623.911 562.25H441.438C430.483 539.188 415.205 521.604 395.603 509.497C376.578 497.39 354.381 491.336 329.013 491.336C289.809 491.336 258.388 505.461 234.75 533.711C211.689 561.385 200.158 598.571 200.158 645.271C200.158 692.546 211.689 730.309 234.75 758.56C258.388 786.233 289.809 800.07 329.013 800.07C354.381 800.07 376.578 794.016 395.603 781.909C415.205 769.802 430.483 752.218 441.438 729.156H623.911C608.921 798.917 575.482 854.264 523.594 895.198C471.706 935.555 407.71 955.734 331.608 955.734C271.648 955.734 218.607 942.762 172.485 916.818C126.362 890.298 90.6167 853.688 65.2492 806.988C40.4583 759.713 28.0628 705.807 28.0628 645.271ZM929.888 957.464C881.459 957.464 837.931 947.374 799.303 927.196C761.252 907.017 731.272 878.19 709.364 840.716C687.455 803.241 676.501 759.136 676.501 708.401C676.501 658.243 687.455 614.426 709.364 576.951C731.848 539.477 762.116 510.65 800.168 490.471C838.795 470.293 882.324 460.203 930.753 460.203C979.181 460.203 1022.42 470.293 1060.47 490.471C1099.1 510.65 1129.37 539.477 1151.28 576.951C1173.76 614.426 1185 658.243 1185 708.401C1185 758.56 1173.76 802.664 1151.28 840.716C1129.37 878.19 1099.1 907.017 1060.47 927.196C1021.84 947.374 978.317 957.464 929.888 957.464ZM929.888 810.448C953.526 810.448 973.128 801.8 988.694 784.504C1004.84 766.631 1012.91 741.264 1012.91 708.401C1012.91 675.539 1004.84 650.459 988.694 633.163C973.128 615.867 953.814 607.219 930.753 607.219C907.691 607.219 888.377 615.867 872.811 633.163C857.245 650.459 849.461 675.539 849.461 708.401C849.461 741.84 856.956 767.208 871.946 784.504C886.936 801.8 906.25 810.448 929.888 810.448ZM1226.29 708.401C1226.29 658.243 1235.23 614.426 1253.1 576.951C1271.55 539.477 1296.63 510.65 1328.34 490.471C1360.05 470.293 1395.22 460.203 1433.84 460.203C1464.98 460.203 1492.65 466.833 1516.86 480.094C1541.66 492.777 1560.97 510.362 1574.81 532.847V311.458H1745.17V951.41H1574.81V883.956C1561.55 906.441 1542.81 924.313 1518.59 937.573C1494.38 950.834 1465.84 957.464 1432.98 957.464C1394.35 957.464 1359.18 947.374 1327.47 927.196C1296.34 907.017 1271.55 878.19 1253.1 840.716C1235.23 802.664 1226.29 758.56 1226.29 708.401ZM1575.67 708.401C1575.67 677.268 1567.02 652.766 1549.73 634.893C1533.01 617.021 1512.25 608.084 1487.46 608.084C1462.09 608.084 1441.05 617.021 1424.33 634.893C1407.61 652.189 1399.25 676.692 1399.25 708.401C1399.25 739.534 1407.61 764.325 1424.33 782.774C1441.05 800.647 1462.09 809.583 1487.46 809.583C1512.25 809.583 1533.01 800.647 1549.73 782.774C1567.02 764.901 1575.67 740.11 1575.67 708.401ZM2305.29 703.212C2305.29 716.473 2304.43 729.733 2302.7 742.993H1981.86C1983.59 769.514 1990.79 789.404 2003.48 802.664C2016.74 815.348 2033.46 821.69 2053.64 821.69C2081.89 821.69 2102.06 809.006 2114.17 783.639H2294.92C2287.42 817.078 2272.72 847.058 2250.81 873.578C2229.48 899.522 2202.38 919.989 2169.52 934.979C2136.66 949.969 2100.33 957.464 2060.55 957.464C2012.7 957.464 1970.04 947.374 1932.56 927.196C1895.67 907.017 1866.55 878.19 1845.22 840.716C1824.46 803.241 1814.09 759.136 1814.09 708.401C1814.09 657.666 1824.46 613.85 1845.22 576.951C1865.97 539.477 1894.8 510.65 1931.7 490.471C1969.17 470.293 2012.13 460.203 2060.55 460.203C2108.41 460.203 2150.78 470.004 2187.68 489.607C2224.58 509.209 2253.4 537.459 2274.16 574.357C2294.92 610.679 2305.29 653.63 2305.29 703.212ZM2132.33 660.837C2132.33 640.082 2125.41 623.939 2111.58 612.408C2097.74 600.301 2080.44 594.247 2059.69 594.247C2038.93 594.247 2021.93 600.013 2008.67 611.543C1995.41 622.498 1986.76 638.929 1982.72 660.837H2132.33Z" fill="url(#paint0_linear_32_69)"/>
<path d="M3086.39 341.726V951.41H2916.89V615.003L2801.87 951.41H2660.04L2544.16 612.408V951.41H2374.66V341.726H2579.62L2732.69 737.804L2882.3 341.726H3086.39ZM3155.2 708.401C3155.2 658.243 3164.14 614.426 3182.01 576.951C3200.46 539.477 3225.25 510.65 3256.38 490.471C3288.09 470.293 3323.26 460.203 3361.89 460.203C3395.33 460.203 3424.16 466.833 3448.37 480.094C3472.58 493.354 3491.32 511.227 3504.58 533.711V466.257H3674.08V951.41H3504.58V883.956C3491.32 906.441 3472.3 924.313 3447.51 937.573C3423.29 950.834 3394.75 957.464 3361.89 957.464C3323.26 957.464 3288.09 947.374 3256.38 927.196C3225.25 907.017 3200.46 878.19 3182.01 840.716C3164.14 802.664 3155.2 758.56 3155.2 708.401ZM3504.58 708.401C3504.58 677.268 3495.93 652.766 3478.64 634.893C3461.92 617.021 3441.16 608.084 3416.37 608.084C3391.01 608.084 3369.96 617.021 3353.24 634.893C3336.52 652.189 3328.16 676.692 3328.16 708.401C3328.16 739.534 3336.52 764.325 3353.24 782.774C3369.96 800.647 3391.01 809.583 3416.37 809.583C3441.16 809.583 3461.92 800.647 3478.64 782.774C3495.93 764.901 3504.58 740.11 3504.58 708.401ZM4056.92 806.988V951.41H3983.41C3859.46 951.41 3797.48 890.009 3797.48 767.208V607.219H3737.81V466.257H3797.48V348.644H3967.85V466.257H4056.05V607.219H3967.85V769.802C3967.85 783.062 3970.73 792.575 3976.49 798.34C3982.84 804.106 3993.21 806.988 4007.63 806.988H4056.92ZM4598.2 703.212C4598.2 716.473 4597.33 729.733 4595.6 742.993H4274.76C4276.49 769.514 4283.7 789.404 4296.38 802.664C4309.64 815.348 4326.36 821.69 4346.54 821.69C4374.79 821.69 4394.97 809.006 4407.08 783.639H4587.82C4580.32 817.078 4565.62 847.058 4543.71 873.578C4522.38 899.522 4495.29 919.989 4462.42 934.979C4429.56 949.969 4393.24 957.464 4353.46 957.464C4305.61 957.464 4262.94 947.374 4225.47 927.196C4188.57 907.017 4159.45 878.19 4138.12 840.716C4117.37 803.241 4106.99 759.136 4106.99 708.401C4106.99 657.666 4117.37 613.85 4138.12 576.951C4158.88 539.477 4187.71 510.65 4224.6 490.471C4262.08 470.293 4305.03 460.203 4353.46 460.203C4401.31 460.203 4443.69 470.004 4480.58 489.607C4517.48 509.209 4546.31 537.459 4567.06 574.357C4587.82 610.679 4598.2 653.63 4598.2 703.212ZM4425.24 660.837C4425.24 640.082 4418.32 623.939 4404.48 612.408C4390.64 600.301 4373.35 594.247 4352.59 594.247C4331.84 594.247 4314.83 600.013 4301.57 611.543C4288.31 622.498 4279.66 638.929 4275.63 660.837H4425.24ZM4749.72 958.329C4719.74 958.329 4695.53 950.257 4677.08 934.114C4659.2 917.395 4650.27 896.351 4650.27 870.984C4650.27 845.616 4659.2 824.573 4677.08 807.853C4695.53 791.134 4719.74 782.774 4749.72 782.774C4779.12 782.774 4802.76 791.134 4820.63 807.853C4839.08 824.573 4848.31 845.616 4848.31 870.984C4848.31 895.775 4839.08 916.53 4820.63 933.249C4802.76 949.969 4779.12 958.329 4749.72 958.329ZM4900.01 708.401C4900.01 658.243 4908.94 614.426 4926.81 576.951C4945.26 539.477 4970.05 510.65 5001.19 490.471C5032.9 470.293 5068.07 460.203 5106.69 460.203C5140.13 460.203 5168.96 466.833 5193.17 480.094C5217.39 493.354 5236.12 511.227 5249.39 533.711V466.257H5418.89V951.41H5249.39V883.956C5236.12 906.441 5217.1 924.313 5192.31 937.573C5168.09 950.834 5139.56 957.464 5106.69 957.464C5068.07 957.464 5032.9 947.374 5001.19 927.196C4970.05 907.017 4945.26 878.19 4926.81 840.716C4908.94 802.664 4900.01 758.56 4900.01 708.401ZM5249.39 708.401C5249.39 677.268 5240.74 652.766 5223.44 634.893C5206.72 617.021 5185.97 608.084 5161.18 608.084C5135.81 608.084 5114.76 617.021 5098.05 634.893C5081.33 652.189 5072.97 676.692 5072.97 708.401C5072.97 739.534 5081.33 764.325 5098.05 782.774C5114.76 800.647 5135.81 809.583 5161.18 809.583C5185.97 809.583 5206.72 800.647 5223.44 782.774C5240.74 764.901 5249.39 740.11 5249.39 708.401ZM5601.09 421.287C5571.11 421.287 5546.89 413.216 5528.45 397.073C5510.57 380.353 5501.64 359.598 5501.64 334.807C5501.64 309.44 5510.57 288.396 5528.45 271.677C5546.89 254.957 5571.11 246.597 5601.09 246.597C5630.49 246.597 5654.13 254.957 5672 271.677C5690.45 288.396 5699.68 309.44 5699.68 334.807C5699.68 359.598 5690.45 380.353 5672 397.073C5654.13 413.216 5630.49 421.287 5601.09 421.287ZM5684.97 466.257V951.41H5515.47V466.257H5684.97Z" fill="#232325"/>
<defs>
<linearGradient id="paint0_linear_32_69" x1="2876.89" y1="328.983" x2="2876.89" y2="951.543" gradientUnits="userSpaceOnUse">
<stop offset="0.0987921" stop-color="#2FCACE"/>
<stop offset="0.848377" stop-color="#48AEF3"/>
</linearGradient>
</defs>
</svg>
