<svg width="291" height="118" viewBox="0 0 291 118" fill="none" xmlns="http://www.w3.org/2000/svg">
<path d="M236.762 50.5539C239.36 49.4658 241.847 48.4221 244.334 47.3563C249.33 45.2467 254.349 43.1149 259.345 41.0275C259.656 40.8943 259.989 40.6056 260.345 40.8943C260.767 41.2496 260.411 41.6271 260.3 41.9602C259.878 43.2259 259.434 44.4917 258.946 45.7352C257.769 48.8663 255.615 51.0647 252.55 52.4414C246.777 55.084 240.892 57.4822 235.296 60.5244C232.587 61.99 229.967 63.5889 227.724 65.7206C226.614 66.7865 225.592 67.9412 225.392 69.6067C225.326 69.5845 225.215 69.5845 225.17 69.5401C223.261 66.7643 221.595 63.8775 221.04 60.5022C220.551 57.5488 221.195 54.7509 221.995 51.9529C224.082 44.7137 228.768 39.7618 235.429 36.4531C241.58 33.3887 247.976 30.9238 254.327 28.3479C257.702 26.9711 261.122 25.661 264.519 24.3064C264.808 24.1954 265.097 24.0621 265.385 24.0177C265.941 23.9289 266.296 24.1732 266.14 24.7727C265.119 28.5699 264.031 32.345 261.144 35.2762C259.789 36.6752 258.235 37.8743 256.459 38.7847C250.53 41.827 244.601 44.847 238.805 48.1335C237.872 48.6442 236.917 49.1327 236.762 50.5539Z" fill="#333333"/>
<path d="M78.6548 58.859C82.5186 51.6643 92.8223 52.5081 95.2427 58.8812C95.598 58.3705 95.9311 57.882 96.2864 57.3934C100.039 52.5081 109.055 52.3082 112.43 58.0596C113.452 59.8139 113.94 61.7236 113.962 63.7221C114.007 69.1626 113.962 74.6031 113.985 80.0436C113.985 80.5987 113.829 80.7542 113.274 80.732C112.008 80.6876 110.765 80.6876 109.499 80.732C108.855 80.7542 108.722 80.5543 108.722 79.9325C108.744 75.2693 108.744 70.606 108.744 65.9427C108.744 64.788 108.611 63.6555 108.3 62.5452C107.745 60.5689 106.701 58.9923 104.614 58.4815C102.326 57.9042 100.217 58.3705 98.5292 60.1248C97.0192 61.7014 96.4196 63.6777 96.3752 65.7873C96.3086 70.4728 96.3308 75.1583 96.353 79.8437C96.353 80.5543 96.1754 80.7542 95.4648 80.7098C94.2656 80.6431 93.0665 80.6653 91.8674 80.7098C91.2456 80.732 91.068 80.5543 91.068 79.9325C91.0902 75.025 91.0902 70.1175 91.0902 65.1877C91.0902 64.1885 91.0014 63.1892 90.7571 62.2121C89.8022 58.4149 85.2944 56.9715 82.0301 59.4364C79.8761 61.0796 78.9657 63.3891 78.9213 66.0094C78.8324 70.606 78.8769 75.2249 78.8991 79.8215C78.8991 80.5099 78.7658 80.7542 78.033 80.7098C76.9449 80.6431 75.8568 80.6876 74.7687 80.6876C73.6362 80.6876 73.6362 80.6876 73.6362 79.5995C73.6362 73.8259 73.6362 68.0523 73.6362 62.2788C73.6362 59.8805 73.6362 57.4822 73.4364 55.084C73.392 54.6621 73.5252 54.5511 73.9249 54.5511C75.2351 54.5733 76.5452 54.5733 77.8554 54.5511C78.3217 54.5511 78.4105 54.7509 78.4105 55.1506C78.4994 56.3719 78.5882 57.5489 78.6548 58.859Z" fill="#333333"/>
<path d="M180.536 54.6622C182.401 54.6622 184.178 54.6844 185.932 54.6622C186.443 54.6622 186.51 54.973 186.643 55.3061C189.13 61.6126 191.639 67.9414 194.148 74.2479C194.259 74.5588 194.415 74.8474 194.593 75.2916C195.436 72.9155 196.236 70.6727 197.013 68.4299C198.545 64.0997 200.077 59.7695 201.565 55.4172C201.765 54.8176 202.054 54.6177 202.698 54.6399C204.23 54.6844 205.762 54.6622 207.339 54.6622C207.317 55.2617 207.006 55.7503 206.828 56.2388C202.787 66.5424 198.723 76.8682 194.659 87.1718C193.815 89.3258 192.772 91.3465 190.751 92.6567C188.575 94.0779 186.176 94.1223 183.712 93.9002C182.068 93.7448 182.068 93.6782 182.313 92.0349C182.424 91.3243 182.557 90.5915 182.557 89.8809C182.557 89.1925 182.823 89.1925 183.356 89.348C184.267 89.6145 185.222 89.6811 186.176 89.5478C187.287 89.3924 188.131 88.815 188.775 87.8824C189.796 86.3946 190.24 84.6403 190.995 83.0415C191.684 81.5759 191.573 80.3101 190.929 78.8223C187.487 71.028 184.178 63.1671 180.803 55.3505C180.714 55.1507 180.647 54.973 180.536 54.6622Z" fill="#333333"/>
<path d="M34.9753 69.851C34.9753 73.2263 34.9531 76.6016 34.9975 79.9769C34.9975 80.5765 34.9087 80.8207 34.2425 80.7763C33.0212 80.7097 31.7776 80.7097 30.5563 80.7763C29.9123 80.7985 29.7791 80.5987 29.7791 79.9991C29.8013 73.2929 29.7791 66.6089 29.8013 59.9027C29.8013 59.1921 29.6903 58.9256 28.9131 58.97C27.6695 59.0366 26.4038 58.97 25.138 58.9922C24.7161 58.9922 24.5385 58.9034 24.5607 58.4371C24.5829 57.349 24.5829 56.2609 24.5607 55.1728C24.5385 54.7064 24.7383 54.6176 25.138 54.6176C26.426 54.6398 27.7139 54.5732 29.0019 54.6398C29.6903 54.6842 29.8013 54.4178 29.8013 53.796C29.8235 51.42 29.6681 49.0661 29.9345 46.6901C30.5341 41.5161 34.0204 38.385 39.2167 38.385C40.2603 38.385 41.2818 38.4072 42.3033 38.6071C42.703 38.6737 42.9251 38.8069 42.814 39.3177C42.6142 40.3613 42.4809 41.405 42.3699 42.4709C42.3033 43.0483 42.1257 43.1593 41.5705 43.0039C40.6601 42.7374 39.7052 42.693 38.7503 42.8262C36.6852 43.1593 35.5083 44.4028 35.1752 46.6679C34.8199 49.1549 35.0197 51.6864 34.9753 54.1957C34.9531 54.6842 35.264 54.6398 35.5749 54.6398C37.1959 54.6398 38.817 54.662 40.438 54.6176C40.9487 54.6176 41.1264 54.7509 41.1042 55.2838C41.0598 56.3053 41.082 57.349 41.1042 58.3704C41.1264 58.8368 40.9709 58.9922 40.4824 58.9922C38.8836 58.97 37.2847 59.0144 35.7081 58.97C35.1085 58.9478 34.9531 59.1254 34.9753 59.7028C34.9975 63.0781 34.9753 66.4756 34.9753 69.851Z" fill="#333333"/>
<path d="M219.396 55.0396C218.286 50.1321 216.843 45.4244 214.267 41.1609C213.423 39.7397 212.446 38.4295 211.18 37.3414C209.826 36.1867 208.404 35.2096 206.472 35.1208C206.806 34.5435 207.294 34.2992 207.783 34.0327C208.671 33.5664 209.404 32.9446 209.959 32.123C212.002 29.103 214.977 28.9031 217.553 29.969C220.706 31.2792 223.416 33.2777 225.969 35.5205C226.769 36.2311 227.524 36.9417 228.257 37.7411C228.701 38.2297 228.701 38.6516 228.212 39.0069C223.06 42.8485 221.239 48.5555 219.663 54.3734C219.641 54.4845 219.596 54.5955 219.574 54.6843C219.485 54.7954 219.463 54.862 219.396 55.0396Z" fill="#333333"/>
<path d="M226.613 71.2057C226.613 69.8289 227.213 68.9184 227.946 68.0968C230.277 65.5653 233.164 63.8555 236.317 62.5897C237.006 62.3232 237.072 62.5897 237.095 63.2115C237.361 69.2959 238.338 75.2249 240.914 80.7987C241.625 82.3531 242.535 83.7743 243.645 85.0844C243.956 85.4397 244.267 85.795 243.868 86.2391C243.49 86.6611 243.113 86.4168 242.757 86.1725C237.095 82.3975 231.854 78.1339 227.435 72.9377C226.991 72.3826 226.591 71.783 226.613 71.2057Z" fill="#333333"/>
<path d="M149.27 64.8991C148.271 58.3261 143.074 53.3964 135.524 53.7961C132.371 53.9738 129.684 55.1507 127.597 57.5489C127.352 57.8376 127.13 58.1485 126.753 58.637C126.753 57.3491 126.731 56.3054 126.775 55.2617C126.797 54.7288 126.62 54.5955 126.109 54.6177C124.954 54.6622 123.822 54.6844 122.667 54.6177C121.845 54.5733 121.601 54.7732 121.601 55.6392C121.645 65.0324 121.623 74.4477 121.623 83.8409C121.623 86.9719 121.645 90.0808 121.601 93.2118C121.601 93.8558 121.801 94.0112 122.4 93.989C123.6 93.9446 124.799 93.9224 125.998 93.989C126.708 94.0335 126.864 93.8114 126.864 93.123C126.842 88.0156 126.842 82.9082 126.842 77.8008C126.842 77.5122 126.842 77.2235 126.842 76.7794C127.441 77.4455 127.863 78.0007 128.374 78.467C132.415 82.2198 139.477 82.5085 144.096 78.9778C148.781 75.4248 150.114 70.4728 149.27 64.8991ZM140.432 75.4692C136.768 78.1561 131.461 77.4011 128.64 73.826C125.731 70.162 125.842 64.566 128.951 61.0797C131.394 58.3484 134.481 57.5933 137.945 58.526C141.298 59.4364 143.097 61.8791 143.829 65.1656C144.007 65.965 144.074 66.7644 144.074 67.5861C144.007 70.7393 143.074 73.5151 140.432 75.4692Z" fill="#333333"/>
<path d="M66.4633 80.2211C66.2413 79.022 66.1747 77.7785 66.1747 76.5571C66.1747 72.1825 66.2635 67.7857 66.1303 63.4111C66.0192 59.7249 64.5314 56.7271 61.0673 54.9729C58.9355 53.8848 56.6483 53.6627 54.2944 53.7737C50.7637 53.9514 47.5882 55.0839 44.8569 57.3933C44.4794 57.7042 44.4127 57.9263 44.768 58.3038C45.4786 59.081 46.1448 59.9026 46.811 60.7464C47.0997 61.1239 47.2773 61.1017 47.6548 60.7908C49.8532 58.9255 52.3847 58.0373 55.2937 58.1261C58.9577 58.2593 61.1339 60.3467 61.1783 63.722C61.1783 64.2772 61.0895 64.5214 60.4677 64.477C58.7578 64.3882 57.0702 64.5437 55.3603 64.6547C53.0509 64.8101 50.7637 65.1432 48.5653 65.9648C46.4557 66.7421 44.5238 67.8746 43.5689 70.0063C42.1477 73.1818 42.5919 78.0227 47.1885 80.2433C49.9643 81.5757 52.8733 81.7533 55.8489 80.9539C58.1139 80.3543 59.8682 78.9554 61.2893 76.979C61.4448 78.1337 61.578 79.1108 61.689 80.1101C61.7335 80.532 61.8889 80.7541 62.3774 80.7319C63.5988 80.6874 64.8423 80.7096 66.0636 80.7319C66.4411 80.7763 66.53 80.643 66.4633 80.2211ZM61.1339 69.8953C61.0229 73.6037 58.9799 76.3795 55.7378 77.1567C54.2278 77.512 52.6734 77.5342 51.1856 77.0679C49.609 76.5793 48.4987 75.5801 48.2544 73.8702C48.0101 72.1159 48.7429 70.7836 50.2529 69.8953C51.8962 68.9182 53.7615 68.6296 55.6046 68.4297C56.7371 68.2965 57.8918 68.2965 59.0243 68.2299V68.2521C59.1576 68.2521 59.313 68.2521 59.4462 68.2521C61.1783 68.2076 61.1783 68.2077 61.1339 69.8953Z" fill="#333333"/>
<path d="M177.316 80.2434C177.072 78.9776 177.027 77.6897 177.027 76.4239C177.027 72.0938 177.072 67.7858 176.983 63.4556C176.872 58.7257 174.141 55.306 169.722 54.1957C167.59 53.6628 165.414 53.6406 163.237 53.9958C160.55 54.4178 158.108 55.4614 155.976 57.1935C155.399 57.6598 155.221 57.9929 155.821 58.5925C156.487 59.2587 157.064 60.0359 157.641 60.7687C157.908 61.124 158.086 61.1906 158.485 60.8575C160.639 58.9922 163.171 58.104 166.035 58.1928C169.788 58.2816 172.098 60.5022 172.009 63.9442C172.009 64.4105 171.876 64.5659 171.409 64.5437C169.144 64.4993 166.879 64.6325 164.636 64.8768C162.149 65.1433 159.729 65.654 157.53 66.8976C153.067 69.4513 152.29 75.3581 156.02 78.911C158.507 81.2871 161.661 81.6868 164.925 81.3537C167.923 81.065 170.277 79.5772 172.12 77.0235C172.275 78.2004 172.408 79.1997 172.542 80.2212C172.586 80.6209 172.764 80.7763 173.186 80.7763C174.407 80.7541 175.651 80.7541 176.872 80.7763C177.272 80.7763 177.405 80.6875 177.316 80.2434ZM172.009 69.7843C171.964 71.4942 171.565 73.093 170.565 74.5142C168.789 77.0013 166.257 77.5787 163.393 77.3344C162.593 77.2678 161.794 77.0679 161.083 76.6682C158.574 75.2248 158.374 71.9161 160.706 70.184C162.438 68.9183 164.503 68.6296 166.546 68.4076C167.656 68.2743 168.767 68.2743 169.877 68.2077V68.2299C170.077 68.2299 170.277 68.2299 170.454 68.2299C172.031 68.1855 172.053 68.1855 172.009 69.7843Z" fill="#333333"/>
</svg>
