<svg width="180" height="29" viewBox="0 0 180 29" fill="none" xmlns="http://www.w3.org/2000/svg">
<g clip-path="url(#clip0_2_2004)">
<path d="M14.7573 4.45854L29.1886 0.28125L24.9778 14.5001L29.1886 28.6788L14.7573 24.5416L0.285156 28.6788L4.53687 14.5001L0.285156 0.28125L14.7573 4.45854Z" fill="white"/>
</g>
<path d="M40.1099 24.9722V2.41663H49.2272C50.6266 2.41663 51.8728 2.69589 52.966 3.2544C54.0811 3.79144 54.9447 4.56477 55.5569 5.5744C56.191 6.56255 56.508 7.75477 56.508 9.15107V9.56996C56.508 10.9663 56.1801 12.1692 55.5241 13.1788C54.8901 14.1885 54.0264 14.9618 52.9332 15.4988C51.84 16.0359 50.6047 16.3044 49.2272 16.3044H43.6519V24.9722H40.1099ZM43.6519 13.1466H48.8665C50.1127 13.1466 51.1076 12.8244 51.8509 12.18C52.5943 11.5355 52.966 10.6548 52.966 9.53774V9.21552C52.966 8.077 52.5943 7.18552 51.8509 6.54107C51.1076 5.89663 50.1127 5.5744 48.8665 5.5744H43.6519V13.1466Z" fill="white"/>
<path d="M67.0969 25.4233C65.4789 25.4233 64.0359 25.1011 62.7678 24.4566C61.5215 23.7907 60.5376 22.8455 59.8161 21.6211C59.0946 20.3966 58.7338 18.9466 58.7338 17.2711V16.7877C58.7338 15.1122 59.0946 13.6729 59.8161 12.47C60.5376 11.2455 61.5215 10.3003 62.7678 9.6344C64.0359 8.96848 65.4789 8.63552 67.0969 8.63552C68.7148 8.63552 70.1579 8.96848 71.426 9.6344C72.6941 10.3003 73.6889 11.2455 74.4105 12.47C75.132 13.6729 75.4927 15.1122 75.4927 16.7877V17.2711C75.4927 18.9466 75.132 20.3966 74.4105 21.6211C73.6889 22.8455 72.6941 23.7907 71.426 24.4566C70.1579 25.1011 68.7148 25.4233 67.0969 25.4233ZM67.0969 22.4589C68.5836 22.4589 69.7862 21.997 70.7045 21.0733C71.6446 20.1281 72.1147 18.8285 72.1147 17.1744V16.8844C72.1147 15.2303 71.6556 13.9414 70.7373 13.0177C69.819 12.0726 68.6055 11.6 67.0969 11.6C65.632 11.6 64.4294 12.0726 63.4893 13.0177C62.571 13.9414 62.1118 15.2303 62.1118 16.8844V17.1744C62.1118 18.8285 62.571 20.1281 63.4893 21.0733C64.4294 21.997 65.632 22.4589 67.0969 22.4589Z" fill="white"/>
<path d="M86.3232 25.4233C84.268 25.4233 82.5626 24.9722 81.207 24.07C79.8514 23.1677 79.0206 21.8037 78.7145 19.9777L81.8629 19.2366C82.0378 20.1174 82.333 20.8155 82.7484 21.3311C83.1638 21.8466 83.6776 22.2118 84.2898 22.4266C84.9239 22.6414 85.6017 22.7488 86.3232 22.7488C87.3946 22.7488 88.2145 22.5448 88.7829 22.1366C89.3733 21.7285 89.6684 21.2022 89.6684 20.5577C89.6684 19.9133 89.3951 19.4407 88.8485 19.14C88.3019 18.8392 87.493 18.5922 86.4216 18.3989L85.3065 18.2055C84.2133 18.0122 83.2185 17.7329 82.3221 17.3677C81.4256 17.0026 80.715 16.4977 80.1903 15.8533C79.6656 15.2088 79.4032 14.3818 79.4032 13.3722C79.4032 11.8685 79.9717 10.7085 81.1086 9.89218C82.2455 9.0544 83.7542 8.63552 85.6345 8.63552C87.4492 8.63552 88.936 9.04366 90.0948 9.85996C91.2755 10.6548 92.0407 11.7396 92.3905 13.1144L89.2421 13.9844C89.0453 13.0177 88.6299 12.3411 87.9958 11.9544C87.3618 11.5463 86.5747 11.3422 85.6345 11.3422C84.7162 11.3422 83.9947 11.514 83.4699 11.8577C82.9452 12.18 82.6828 12.6418 82.6828 13.2433C82.6828 13.8877 82.9343 14.3603 83.4371 14.6611C83.9619 14.9618 84.6615 15.1874 85.5361 15.3377L86.684 15.5311C87.8428 15.7244 88.9032 15.9929 89.8652 16.3366C90.8272 16.6803 91.5816 17.1744 92.1282 17.8188C92.6966 18.4633 92.9809 19.3226 92.9809 20.3966C92.9809 21.9863 92.3796 23.2214 91.1771 24.1022C89.9745 24.9829 88.3566 25.4233 86.3232 25.4233Z" fill="white"/>
<path d="M96.9292 24.9722V9.08663H100.307V24.9722H96.9292ZM98.6347 6.92774C97.9787 6.92774 97.4212 6.72366 96.962 6.31552C96.5248 5.88589 96.3061 5.33811 96.3061 4.67218C96.3061 4.00626 96.5248 3.46922 96.962 3.06107C97.4212 2.63144 97.9787 2.41663 98.6347 2.41663C99.3124 2.41663 99.87 2.63144 100.307 3.06107C100.745 3.46922 100.963 4.00626 100.963 4.67218C100.963 5.33811 100.745 5.88589 100.307 6.31552C99.87 6.72366 99.3124 6.92774 98.6347 6.92774Z" fill="white"/>
<path d="M111.388 24.9722C110.404 24.9722 109.617 24.6822 109.026 24.1022C108.458 23.5222 108.174 22.7489 108.174 21.7822V11.89H103.713V9.08663H108.174V3.8344H111.552V9.08663H116.373V11.89H111.552V21.2022C111.552 21.8466 111.858 22.1689 112.47 22.1689H115.848V24.9722H111.388Z" fill="white"/>
<path d="M120.341 24.9722V9.08663H123.719V24.9722H120.341ZM122.047 6.92774C121.391 6.92774 120.833 6.72366 120.374 6.31552C119.937 5.88589 119.718 5.33811 119.718 4.67218C119.718 4.00626 119.937 3.46922 120.374 3.06107C120.833 2.63144 121.391 2.41663 122.047 2.41663C122.725 2.41663 123.282 2.63144 123.719 3.06107C124.157 3.46922 124.375 4.00626 124.375 4.67218C124.375 5.33811 124.157 5.88589 123.719 6.31552C123.282 6.72366 122.725 6.92774 122.047 6.92774Z" fill="white"/>
<path d="M132.471 24.9722L127.027 9.08663H130.602L134.898 22.5233H135.423L139.719 9.08663H143.294L137.85 24.9722H132.471Z" fill="white"/>
<path d="M152.771 25.2622C151.546 25.2622 150.453 24.9937 149.491 24.4566C148.529 23.9196 147.775 23.157 147.228 22.1689C146.681 21.1807 146.408 19.9992 146.408 18.6244V9.08663H149.786V18.3989C149.786 19.7737 150.136 20.794 150.836 21.46C151.535 22.1044 152.508 22.4266 153.755 22.4266C155.132 22.4266 156.236 21.9755 157.067 21.0733C157.92 20.1496 158.346 18.8285 158.346 17.11V9.08663H161.724V24.9722H158.412V22.5877H157.887C157.581 23.2322 157.034 23.8444 156.247 24.4244C155.46 24.9829 154.301 25.2622 152.771 25.2622Z" fill="white"/>
<path d="M173.342 25.4233C171.287 25.4233 169.582 24.9722 168.226 24.07C166.871 23.1677 166.04 21.8037 165.734 19.9777L168.882 19.2366C169.057 20.1174 169.352 20.8155 169.768 21.3311C170.183 21.8466 170.697 22.2118 171.309 22.4266C171.943 22.6414 172.621 22.7488 173.342 22.7488C174.414 22.7488 175.234 22.5448 175.802 22.1366C176.392 21.7285 176.688 21.2022 176.688 20.5577C176.688 19.9133 176.414 19.4407 175.868 19.14C175.321 18.8392 174.512 18.5922 173.441 18.3989L172.326 18.2055C171.232 18.0122 170.238 17.7329 169.341 17.3677C168.445 17.0026 167.734 16.4977 167.209 15.8533C166.685 15.2088 166.422 14.3818 166.422 13.3722C166.422 11.8685 166.991 10.7085 168.128 9.89218C169.265 9.0544 170.773 8.63552 172.654 8.63552C174.468 8.63552 175.955 9.04366 177.114 9.85996C178.295 10.6548 179.06 11.7396 179.41 13.1144L176.261 13.9844C176.064 13.0177 175.649 12.3411 175.015 11.9544C174.381 11.5463 173.594 11.3422 172.654 11.3422C171.735 11.3422 171.014 11.514 170.489 11.8577C169.964 12.18 169.702 12.6418 169.702 13.2433C169.702 13.8877 169.953 14.3603 170.456 14.6611C170.981 14.9618 171.681 15.1874 172.555 15.3377L173.703 15.5311C174.862 15.7244 175.922 15.9929 176.884 16.3366C177.846 16.6803 178.601 17.1744 179.147 17.8188C179.716 18.4633 180 19.3226 180 20.3966C180 21.9863 179.399 23.2214 178.196 24.1022C176.994 24.9829 175.376 25.4233 173.342 25.4233Z" fill="white"/>
<defs>
<clipPath id="clip0_2_2004">
<rect width="29.5167" height="29" fill="white"/>
</clipPath>
</defs>
</svg>
