<svg width="341" height="54" viewBox="0 0 341 54" fill="none" xmlns="http://www.w3.org/2000/svg">
<path d="M39.2264 1.35849C39.2264 0.608217 38.6182 0 37.8679 0H13.0755C5.85409 0 0 5.85409 0 13.0755C0 18.7174 3.5734 23.5248 8.58041 25.3578C8.61731 25.3713 8.65179 25.3909 8.68203 25.416L10.8902 27.2481C11.1349 27.4511 10.9913 27.8491 10.6733 27.8491H1.35849C0.608217 27.8491 0 28.4573 0 29.2075V52.6415C0 53.3918 0.608218 54 1.35849 54H26.1509C33.3723 54 39.2264 48.1459 39.2264 40.9245C39.2264 34.9462 35.2143 29.905 29.7358 28.3466C29.6898 28.3335 29.6468 28.3111 29.6099 28.2805L27.7675 26.7519C27.5228 26.5489 27.6664 26.1509 27.9844 26.1509H37.8679C38.6182 26.1509 39.2264 25.5427 39.2264 24.7925V1.35849Z" fill="white"/>
<path d="M65.4513 42.7848C55.9151 42.7848 50.1004 39.389 50.1004 31.481V31.2019H58.8457V32.1787C58.8457 34.2721 59.59 34.8303 65.4513 34.8303C70.7543 34.8303 71.3125 34.4116 71.3125 33.0161C71.3125 31.8996 70.7078 31.4345 68.1493 31.1088L58.3806 29.8063C52.5658 29.0155 49.6352 25.8988 49.6352 20.8749C49.6352 15.8975 53.4962 10.6875 64.7535 10.6875C74.6618 10.6875 79.4066 15.0137 79.4066 21.9913V22.2704H70.6613V21.5727C70.6613 19.3398 69.6844 18.5955 63.8231 18.5955C59.3574 18.5955 58.3806 19.2003 58.3806 20.5493C58.3806 21.5262 58.9388 21.9913 60.6134 22.2239L70.3822 23.666C78.0111 24.7824 80.0579 28.6899 80.0579 32.6904C80.0579 38.04 75.9643 42.7848 65.4513 42.7848Z" fill="white"/>
<path d="M95.2968 42.7848C86.9701 42.7848 81.6671 38.1796 81.6671 30.5971C81.6671 22.9682 86.9701 18.4095 95.2968 18.4095C103.298 18.4095 108.415 22.503 108.415 28.7829V29.5272H99.716V29.1551C99.716 26.7362 97.9483 26.2245 95.1108 26.2245C91.901 26.2245 90.3659 26.9222 90.3659 30.5971C90.3659 34.2255 91.901 34.9233 95.1108 34.9233C97.9483 34.9233 99.716 34.4581 99.716 32.0392V31.6205H108.415V32.4113C108.415 38.6447 103.298 42.7848 95.2968 42.7848Z" fill="white"/>
<path d="M118.334 42.7848C113.031 42.7848 110.054 40.3659 110.054 36.3654C110.054 33.0626 112.333 30.6902 117.636 30.1785L127.172 29.2481V28.7829C127.172 26.4105 126.149 26.0384 123.032 26.0384C120.148 26.0384 119.264 26.5966 119.264 28.5504V28.7364H110.519V28.6434C110.519 22.41 115.729 18.4095 123.684 18.4095C131.871 18.4095 135.825 22.41 135.825 28.969V42.3196H127.638V37.3887H127.172C126.289 40.6915 123.405 42.7848 118.334 42.7848ZM118.846 35.8071C118.846 36.5514 119.59 36.691 120.939 36.691C125.172 36.691 126.893 36.1793 127.126 34.086L119.962 34.9233C119.171 35.0163 118.846 35.2954 118.846 35.8071Z" fill="white"/>
<path d="M149.163 42.3196H140.417V26.0384H137.254V18.8746H140.603C141.534 14.4554 145.86 11.1527 153.535 11.1527H155.396V17.3861H152.14C149.721 17.3861 148.558 17.6187 148.604 18.8746H155.396V26.0384H149.163V42.3196ZM168.002 42.3196H159.257V26.0384H156.094V18.8746H159.443C160.373 14.4554 164.7 11.1527 172.375 11.1527H174.236V17.3861H170.98C168.561 17.3861 167.398 17.6187 167.444 18.8746H174.236V26.0384H168.002V42.3196Z" fill="white"/>
<path d="M189.055 42.7848C180.914 42.7848 175.379 38.1796 175.379 30.5971C175.379 22.9682 180.914 18.4095 189.055 18.4095C197.196 18.4095 202.731 22.9682 202.731 30.5971C202.731 38.1796 197.196 42.7848 189.055 42.7848ZM189.055 35.0629C193.009 35.0629 194.079 33.9929 194.079 30.5971C194.079 27.2013 193.009 26.0849 189.055 26.0849C185.101 26.0849 184.031 27.2013 184.031 30.5971C184.031 33.9929 185.101 35.0629 189.055 35.0629Z" fill="white"/>
<path d="M213.578 42.3196H204.832V11.1527H213.578V42.3196Z" fill="white"/>
<path d="M227.023 42.7848C219.86 42.7848 215.906 38.1796 215.906 30.5971C215.906 22.9682 219.767 18.4095 226.651 18.4095C232.187 18.4095 234.792 21.0145 235.49 24.922H235.955V11.1527H244.7V42.3196H236.513V35.9932H236.048C235.304 40.645 232.513 42.7848 227.023 42.7848ZM224.744 30.5971C224.744 33.7138 226.14 34.7837 230.187 34.7837C234.094 34.7837 235.955 34.0395 235.955 30.6437V30.318C235.955 27.0153 234.094 26.364 230.187 26.364C226.14 26.364 224.744 27.4804 224.744 30.5971Z" fill="white"/>
<path d="M262.561 42.7848C252.745 42.7848 247.024 36.4584 247.024 26.7362C247.024 17.0139 253.722 10.6875 265.072 10.6875C275.632 10.6875 281.912 15.3393 281.912 23.0612V23.3869H272.143V23.0612C272.143 20.1771 270.375 19.0607 264.84 19.0607C258.141 19.0607 256.327 20.5493 256.327 26.7362C256.327 32.923 258.048 34.4116 264.375 34.4116C270.841 34.4116 272.701 34.086 273.12 31.7136H263.537V25.2941H281.958V42.3196H273.818V35.6676H273.353C272.515 39.296 269.864 42.7848 262.561 42.7848Z" fill="white"/>
<path d="M297.629 42.7848C289.675 42.7848 284.092 39.389 284.092 30.5971C284.092 22.9682 289.628 18.4095 297.443 18.4095C305.537 18.4095 310.701 22.4565 310.701 29.9924C310.701 30.7832 310.654 31.3879 310.561 32.2253H292.187C292.326 35.0629 293.582 35.8537 297.304 35.8537C300.839 35.8537 301.769 35.2489 301.769 33.8534V33.3417H310.515V33.8999C310.515 39.1099 305.537 42.7848 297.629 42.7848ZM297.257 25.108C294.047 25.108 292.698 25.8058 292.326 27.8061H302.234C301.909 25.8058 300.513 25.108 297.257 25.108Z" fill="white"/>
<path d="M321.786 42.3196H313.041V18.8746H321.228V25.9919H321.693C322.205 22.0844 324.763 18.4095 331.043 18.4095C337.37 18.4095 340.347 22.2239 340.347 27.2944V42.3196H331.601V30.5041C331.601 27.2479 330.392 26.2245 326.577 26.2245C322.716 26.2245 321.786 27.2013 321.786 30.225V42.3196Z" fill="white"/>
</svg>
