<svg width="131" height="36" viewBox="0 0 131 36" fill="none" xmlns="http://www.w3.org/2000/svg">
<g clip-path="url(#clip0_149_384)">
<path d="M25.9576 11.7937C25.8919 11.5203 25.6787 11.3067 25.4056 11.2399L18.1542 9.47393L15.4749 2.17087C15.3745 1.89783 15.1254 1.7074 14.8359 1.68207C14.5464 1.65674 14.2684 1.80106 14.1218 2.05249L10.215 8.77934L2.76707 9.25966C2.48656 9.27765 2.23985 9.45144 2.12733 9.70924C2.01522 9.9667 2.05646 10.2654 2.23466 10.4832L7.09547 16.4258L5.15687 24.0498C5.08584 24.3282 5.18013 24.6229 5.39998 24.8078C5.52055 24.9098 5.66708 24.9689 5.818 24.9821C5.94203 24.993 6.06955 24.9725 6.18779 24.9204L13.0699 21.8639L19.3166 26.069C19.424 26.1409 19.5461 26.1832 19.6701 26.194C19.821 26.2072 19.976 26.1745 20.112 26.0949C20.3606 25.9511 20.5047 25.6772 20.4831 25.3907L19.8978 17.5459L25.7167 12.5376C25.9304 12.3538 26.0233 12.0668 25.9576 11.7937Z" fill="#F0E35A"/>
</g>
<g clip-path="url(#clip1_149_384)">
<path d="M51.8586 14.0598C51.793 13.7864 51.5798 13.5728 51.3067 13.506L44.0553 11.74L41.3759 4.43692C41.2756 4.16389 41.0265 3.97345 40.737 3.94812C40.4475 3.92279 40.1695 4.06711 40.0229 4.31854L36.1161 11.0454L28.6681 11.5257C28.3876 11.5437 28.1409 11.7175 28.0284 11.9753C27.9163 12.2327 27.9575 12.5315 28.1357 12.7492L32.9965 18.6919L31.0579 26.3159C30.9869 26.5943 31.0812 26.889 31.301 27.0739C31.4216 27.1759 31.5681 27.235 31.7191 27.2482C31.8431 27.259 31.9706 27.2386 32.0889 27.1864L38.9709 24.13L45.2177 28.3351C45.3251 28.407 45.4471 28.4492 45.5712 28.4601C45.7221 28.4733 45.877 28.4406 46.0131 28.361C46.2617 28.2171 46.4057 27.9432 46.3841 27.6568L45.7989 19.8119L51.6178 14.8036C51.8315 14.6198 51.9244 14.3328 51.8586 14.0598Z" fill="#F0E35A"/>
</g>
<g clip-path="url(#clip2_149_384)">
<path d="M77.7597 16.3258C77.694 16.0525 77.4808 15.8388 77.2078 15.772L69.9563 14.006L67.277 6.70297C67.1767 6.42994 66.9276 6.2395 66.6381 6.21417C66.3485 6.18884 66.0705 6.33316 65.9239 6.58459L62.0172 13.3114L54.5692 13.7918C54.2887 13.8098 54.042 13.9835 53.9295 14.2413C53.8173 14.4988 53.8586 14.7975 54.0368 15.0153L58.8976 20.9579L56.959 28.582C56.888 28.8603 56.9823 29.155 57.2021 29.3399C57.3227 29.4419 57.4692 29.501 57.6201 29.5142C57.7442 29.5251 57.8717 29.5046 57.9899 29.4525L64.872 26.396L71.1188 30.6011C71.2262 30.673 71.3482 30.7153 71.4722 30.7262C71.6231 30.7394 71.7781 30.7066 71.9142 30.627C72.1628 30.4832 72.3068 30.2093 72.2852 29.9228L71.6999 22.078L77.5188 17.0697C77.7325 16.8859 77.8254 16.5989 77.7597 16.3258Z" fill="#F0E35A"/>
</g>
<g clip-path="url(#clip3_149_384)">
<path d="M103.661 18.5919C103.595 18.3185 103.382 18.1048 103.109 18.038L95.8574 16.2721L93.1781 8.96901C93.0777 8.69598 92.8286 8.50554 92.5391 8.48021C92.2496 8.45488 91.9716 8.5992 91.825 8.85063L87.9182 15.5775L80.4703 16.0578C80.1897 16.0758 79.943 16.2496 79.8305 16.5074C79.7184 16.7648 79.7596 17.0636 79.9378 17.2813L84.7987 23.2239L82.8601 30.848C82.789 31.1264 82.8833 31.4211 83.1032 31.6059C83.2237 31.708 83.3703 31.7671 83.5212 31.7803C83.6452 31.7911 83.7727 31.7707 83.891 31.7185L90.7731 28.6621L97.0198 32.8672C97.1272 32.939 97.2492 32.9813 97.3733 32.9922C97.5242 33.0054 97.6791 32.9726 97.8152 32.8931C98.0638 32.7492 98.2079 32.4753 98.1863 32.1889L97.601 24.344L103.42 19.3357C103.634 19.1519 103.726 18.8649 103.661 18.5919Z" fill="#F0E35A"/>
</g>
<g clip-path="url(#clip4_149_384)">
<path d="M129.562 20.8579C129.496 20.5845 129.283 20.3709 129.01 20.3041L121.758 18.5381L119.079 11.2351C118.979 10.962 118.73 10.7716 118.44 10.7463C118.151 10.7209 117.873 10.8653 117.726 11.1167L113.819 17.8435L106.371 18.3239C106.091 18.3418 105.844 18.5156 105.732 18.7734C105.619 19.0309 105.661 19.3296 105.839 19.5474L110.7 25.49L108.761 33.114C108.69 33.3924 108.784 33.6871 109.004 33.872C109.125 33.974 109.271 34.0331 109.422 34.0463C109.546 34.0572 109.674 34.0367 109.792 33.9846L116.674 30.9281L122.921 35.1332C123.028 35.2051 123.15 35.2474 123.274 35.2582C123.425 35.2714 123.58 35.2387 123.716 35.1591C123.965 35.0152 124.109 34.7414 124.087 34.4549L123.502 26.6101L129.321 21.6018C129.535 21.4179 129.628 21.1309 129.562 20.8579Z" fill="#F0E35A"/>
</g>
<defs>
<clipPath id="clip0_149_384">
<rect width="24" height="24" fill="white" transform="translate(2.88235 0.636261) rotate(5)"/>
</clipPath>
<clipPath id="clip1_149_384">
<rect width="24" height="24" fill="white" transform="translate(28.7834 2.90231) rotate(5)"/>
</clipPath>
<clipPath id="clip2_149_384">
<rect width="24" height="24" fill="white" transform="translate(54.6845 5.16837) rotate(5)"/>
</clipPath>
<clipPath id="clip3_149_384">
<rect width="24" height="24" fill="white" transform="translate(80.5855 7.4344) rotate(5)"/>
</clipPath>
<clipPath id="clip4_149_384">
<rect width="24" height="24" fill="white" transform="translate(106.487 9.70045) rotate(5)"/>
</clipPath>
</defs>
</svg>
