<svg width="308" height="36" viewBox="0 0 308 36" fill="none" xmlns="http://www.w3.org/2000/svg">
<path d="M22.3983 33.4717C12.7288 33.4717 6.83266 30.0284 6.83266 22.0097V21.7267H15.7004V22.7172C15.7004 24.8398 16.4551 25.4058 22.3983 25.4058C27.7756 25.4058 28.3416 24.9813 28.3416 23.5663C28.3416 22.4342 27.7284 21.9625 25.1341 21.6323L15.2287 20.3116C9.3326 19.5097 6.36097 16.3494 6.36097 11.2552C6.36097 6.20816 10.276 0.925267 21.6908 0.925267C31.7377 0.925267 36.549 5.31196 36.549 12.3873V12.6703H27.6812V11.9627C27.6812 9.69865 26.6907 8.94395 20.7474 8.94395C16.2192 8.94395 15.2287 9.55714 15.2287 10.925C15.2287 11.9156 15.7947 12.3873 17.4928 12.6231L27.3982 14.0853C35.1339 15.2174 37.2093 19.1796 37.2093 23.2361C37.2093 28.6605 33.0585 33.4717 22.3983 33.4717ZM52.6615 33.4717C44.2183 33.4717 38.8411 28.802 38.8411 21.1135C38.8411 13.3778 44.2183 8.75528 52.6615 8.75528C60.7745 8.75528 65.9631 12.9061 65.9631 19.2739V20.0286H57.1425V19.6513C57.1425 17.1985 55.3501 16.6796 52.4728 16.6796C49.2182 16.6796 47.6616 17.3872 47.6616 21.1135C47.6616 24.7926 49.2182 25.5002 52.4728 25.5002C55.3501 25.5002 57.1425 25.0285 57.1425 22.5757V22.1512H65.9631V22.9531C65.9631 29.2737 60.7745 33.4717 52.6615 33.4717ZM76.0211 33.4717C70.6438 33.4717 67.625 31.0189 67.625 26.9624C67.625 23.6134 69.9363 21.2078 75.3135 20.689L84.9831 19.7456V19.2739C84.9831 16.8683 83.9454 16.4909 80.7851 16.4909C77.8607 16.4909 76.9644 17.057 76.9644 19.0381V19.2267H68.0967V19.1324C68.0967 12.8118 73.3796 8.75528 81.4455 8.75528C89.7472 8.75528 93.7565 12.8118 93.7565 19.4626V33H85.4548V28.0001H84.9831C84.0869 31.3491 81.1625 33.4717 76.0211 33.4717ZM76.5399 26.3964C76.5399 27.1511 77.2946 27.2926 78.6625 27.2926C82.9549 27.2926 84.7001 26.7737 84.936 24.6511L77.672 25.5002C76.8701 25.5945 76.5399 25.8775 76.5399 26.3964ZM107.281 33H98.4133V16.4909H95.2058V9.22696H98.602C99.5454 4.74593 103.932 1.39695 111.715 1.39695H113.602V7.71756H110.3C107.847 7.71756 106.668 7.95341 106.715 9.22696H113.602V16.4909H107.281V33ZM126.384 33H117.517V16.4909H114.309V9.22696H117.705C118.649 4.74593 123.035 1.39695 130.818 1.39695H132.705V7.71756H129.403C126.95 7.71756 125.771 7.95341 125.818 9.22696H132.705V16.4909H126.384V33ZM147.732 33.4717C139.477 33.4717 133.864 28.802 133.864 21.1135C133.864 13.3778 139.477 8.75528 147.732 8.75528C155.986 8.75528 161.599 13.3778 161.599 21.1135C161.599 28.802 155.986 33.4717 147.732 33.4717ZM147.732 25.6417C151.741 25.6417 152.826 24.5568 152.826 21.1135C152.826 17.6702 151.741 16.5381 147.732 16.5381C143.722 16.5381 142.637 17.6702 142.637 21.1135C142.637 24.5568 143.722 25.6417 147.732 25.6417ZM172.597 33H163.729V1.39695H172.597V33ZM186.231 33.4717C178.967 33.4717 174.958 28.802 174.958 21.1135C174.958 13.3778 178.873 8.75528 185.854 8.75528C191.467 8.75528 194.108 11.3967 194.816 15.3589H195.288V1.39695H204.155V33H195.854V26.5851H195.382C194.627 31.3019 191.797 33.4717 186.231 33.4717ZM183.92 21.1135C183.92 24.2738 185.335 25.3587 189.439 25.3587C193.401 25.3587 195.288 24.604 195.288 21.1606V20.8305C195.288 17.4815 193.401 16.8211 189.439 16.8211C185.335 16.8211 183.92 17.9532 183.92 21.1135ZM222.265 33.4717C212.313 33.4717 206.511 27.0567 206.511 17.1985C206.511 7.34021 213.303 0.925267 224.813 0.925267C235.52 0.925267 241.888 5.64214 241.888 13.4721V13.8023H231.982V13.4721C231.982 10.5477 230.19 9.41564 224.577 9.41564C217.784 9.41564 215.945 10.925 215.945 17.1985C215.945 23.4719 217.69 24.9813 224.105 24.9813C230.662 24.9813 232.548 24.6511 232.973 22.2455H223.256V15.7362H241.935V33H233.68V26.2549H233.209C232.36 29.934 229.671 33.4717 222.265 33.4717ZM257.825 33.4717C249.759 33.4717 244.099 30.0284 244.099 21.1135C244.099 13.3778 249.712 8.75528 257.636 8.75528C265.843 8.75528 271.079 12.859 271.079 20.5003C271.079 21.3022 271.032 21.9153 270.938 22.7644H252.306C252.448 25.6417 253.721 26.4435 257.495 26.4435C261.079 26.4435 262.023 25.8304 262.023 24.4153V23.8964H270.891V24.4625C270.891 29.7454 265.843 33.4717 257.825 33.4717ZM257.447 15.5476C254.193 15.5476 252.825 16.2551 252.448 18.2834H262.495C262.164 16.2551 260.749 15.5476 257.447 15.5476ZM282.32 33H273.452V9.22696H281.754V16.4438H282.225C282.744 12.4816 285.339 8.75528 291.706 8.75528C298.121 8.75528 301.14 12.6231 301.14 17.7645V33H292.272V21.0191C292.272 17.7173 291.046 16.6796 287.178 16.6796C283.263 16.6796 282.32 17.6702 282.32 20.7361V33Z" fill="#FA6C25"/>
</svg>
