<svg width="464" height="118" viewBox="0 0 464 118" fill="none" xmlns="http://www.w3.org/2000/svg">
<g clip-path="url(#clip0_170_366)">
<path d="M95.4475 35.095C95.4475 31.4375 98.6098 28.6813 102.371 28.6813C103.242 28.6494 104.112 28.7913 104.929 29.0986C105.745 29.406 106.493 29.8727 107.127 30.4715C107.758 31.0665 108.262 31.7823 108.61 32.5764C108.958 33.3704 109.142 34.2264 109.152 35.0933C109.064 38.7175 106.03 41.5858 102.371 41.507C98.608 41.507 95.4458 38.602 95.4458 35.0933L95.4475 35.095ZM96.8038 46.8025H107.946V81.5628H96.8038V46.8025ZM147.93 62.8395V81.5628H136.786V64.11C136.786 58.7375 133.473 56.7215 130.682 56.7215C127.67 56.7215 123.91 58.2913 123.91 64.11V81.561H112.766V46.8025H123.908V52.9975C125.115 48.0468 130.682 45.9275 134.002 45.9275C143.333 45.9118 147.93 52.1768 147.93 62.8395ZM187.463 62.8395V81.5628H176.319V64.11C176.319 58.7375 173.008 56.7215 170.216 56.7215C167.203 56.7215 163.442 58.2913 163.442 64.11V81.561H152.298V46.8025H163.442V52.9975C164.648 48.0468 170.215 45.9275 173.527 45.9275C182.865 45.9118 187.463 52.1768 187.463 62.8395ZM189.797 64.1118C189.797 53.0745 198.834 45.9118 208.849 45.9118C218.865 45.9118 228.01 53.0465 228.01 64.1118C228.01 75.177 218.901 82.2348 208.886 82.2348C198.871 82.2348 189.797 75.072 189.797 64.1118ZM216.602 64.1118C216.602 59.3395 213.14 56.13 208.849 56.13C204.56 56.13 201.09 59.3395 201.09 64.1118C201.09 68.884 204.553 72.0165 208.849 72.0165C213.147 72.0165 216.588 68.884 216.588 64.1118H216.602ZM264.723 46.8043L249.812 81.5628H240.096L225.189 46.8025H237.325L245.008 67.463L252.61 46.8025H264.723V46.8043ZM301.165 46.8043V81.5628H290.116V77.6095C287.552 80.8908 282.804 82.2348 279.192 82.2348C270.463 82.2348 262.175 75.3695 262.175 64.1118C262.175 52.8558 270.448 45.9765 279.178 45.9765C282.79 45.9765 287.538 47.3188 290.1 50.6V46.7955L301.165 46.8025V46.8043ZM289.643 64.1118C289.678 62.5114 289.232 60.9374 288.364 59.5925C287.496 58.2476 286.246 57.1934 284.773 56.5658C283.295 55.9304 281.662 55.7464 280.08 56.0369C278.498 56.3274 277.037 57.0795 275.881 58.1985C274.733 59.3099 273.946 60.7411 273.622 62.306C273.298 63.8709 273.452 65.4971 274.065 66.973C274.686 68.4538 275.733 69.7167 277.073 70.601C278.413 71.4853 279.986 71.9512 281.592 71.9395C285.984 71.9518 289.573 68.464 289.643 64.1118ZM303.958 64.0348C303.958 52.9975 313.065 45.9118 323.31 45.9118C330.082 45.9118 335.28 49.193 338.671 54.114L330.105 59.4865C329.317 58.454 328.303 57.6149 327.142 57.0332C325.98 56.4516 324.701 56.1427 323.403 56.13C318.284 56.13 315.272 59.707 315.272 64.0348C315.272 68.3608 318.284 72.0165 323.403 72.0165C324.701 71.9995 325.979 71.6886 327.139 71.1069C328.3 70.5253 329.314 69.6881 330.105 68.6583L338.671 74.0255C335.28 78.9745 330.105 82.233 323.31 82.233C313.065 82.233 303.957 75.072 303.957 64.033L303.958 64.0348ZM338.215 64.0348C338.215 52.9975 347.332 45.9118 357.568 45.9118C364.349 45.9118 369.547 49.193 372.929 54.114L364.363 59.4865C363.574 58.4543 362.561 57.6156 361.4 57.0339C360.238 56.4523 358.959 56.1432 357.661 56.13C352.542 56.13 349.53 59.707 349.53 64.0348C349.53 68.3608 352.54 72.0165 357.661 72.0165C358.959 71.9995 360.236 71.6886 361.397 71.1069C362.558 70.5253 363.572 69.6881 364.363 68.6583L372.929 74.0255C369.547 78.9745 364.363 82.233 357.568 82.233C347.33 82.233 338.215 75.072 338.215 64.033V64.0348ZM409.758 67.393H384.058C385.108 70.6743 388.048 72.6115 392.26 72.6115C395.534 72.6201 398.698 71.4242 401.148 69.2515L406.858 76.416C403.39 80.1488 397.373 82.2348 391.418 82.2348C380.353 82.2348 372.445 74.8533 372.445 64.2623C372.445 52.9468 381.331 45.9118 391.418 45.9118C401.505 45.9118 409.944 52.8488 409.944 63.4398C409.979 64.4093 409.909 65.6745 409.758 67.393ZM398.835 60.9005C398.765 57.4723 395.672 55.2463 391.696 55.2463C388.307 55.2463 385.144 56.7373 384.016 60.9023L398.835 60.9005ZM439.347 46.953L436.712 57.4723C435.177 56.5887 433.436 56.1257 431.665 56.13C427.297 56.13 423.685 59.707 423.685 70.0023V81.5628H412.541V46.8025H423.534V54.114C425.569 48.374 429.782 45.9118 434.078 45.9118C435.891 45.8384 437.696 46.1945 439.345 46.9513L439.347 46.953Z" fill="#333333"/>
<path fill-rule="evenodd" clip-rule="evenodd" d="M40.4101 66.2275L25.1379 89.1053C24.8336 89.56 24.6594 90.0892 24.6341 90.6358C24.6088 91.1823 24.7334 91.7254 24.9944 92.2063C25.5281 93.188 26.5606 93.7988 27.6859 93.7988H58.2321C59.3556 93.7988 60.3899 93.188 60.9219 92.2063C61.1832 91.7256 61.3081 91.1826 61.2831 90.636C61.2581 90.0895 61.0842 89.5601 60.7801 89.1053L45.5114 66.217C45.2293 65.7991 44.8486 65.4571 44.403 65.2212C43.9574 64.9853 43.4606 64.8627 42.9564 64.8643C41.9309 64.8643 40.9736 65.377 40.4066 66.224L40.4101 66.2275Z" fill="#333333"/>
<path opacity="0.2" fill-rule="evenodd" clip-rule="evenodd" d="M40.4099 51.5835L25.1377 28.6935C24.8336 28.2386 24.6597 27.7093 24.6347 27.1628C24.6097 26.6162 24.7346 26.0732 24.9959 25.5925C25.5297 24.6125 26.5622 24 27.6874 24H58.2337C59.3572 24 60.3914 24.6125 60.9234 25.5925C61.4572 26.5742 61.4012 27.766 60.7817 28.6953L45.5129 51.5835C45.2325 52.0033 44.8527 52.3473 44.4072 52.5848C43.9618 52.8224 43.4645 52.9461 42.9597 52.945C42.4551 52.9458 41.9582 52.8219 41.5131 52.5844C41.0679 52.3469 40.6884 52.0031 40.4082 51.5835H40.4099Z" fill="#333333"/>
<path opacity="0.4" fill-rule="evenodd" clip-rule="evenodd" d="M62.7801 30.279L47.5113 53.1672C47.2075 53.6232 47.0338 54.1535 47.0092 54.7009C46.9845 55.2483 47.1097 55.792 47.3713 56.2735C47.9051 57.2552 48.9411 57.8677 50.0663 57.8695H80.6038C81.1548 57.8693 81.6955 57.7207 82.1691 57.4392C82.6428 57.1577 83.0318 56.7538 83.2953 56.27C83.5562 55.7889 83.6811 55.2459 83.6564 54.6992C83.6318 54.1525 83.4585 53.6228 83.1553 53.1672L67.8848 30.2772C67.6032 29.8592 67.2229 29.5169 66.7776 29.2807C66.3323 29.0444 65.8357 28.9215 65.3316 28.9227C64.3061 28.9227 63.3471 29.4302 62.7801 30.279Z" fill="#333333"/>
<path opacity="0.7" fill-rule="evenodd" clip-rule="evenodd" d="M67.8851 87.7928L83.1538 64.9028C83.457 64.4472 83.6303 63.9175 83.6549 63.3708C83.6796 62.8241 83.5548 62.2811 83.2938 61.8C83.0304 61.317 82.6418 60.9138 82.1688 60.6327C81.6959 60.3516 81.156 60.2029 80.6058 60.2023H50.0683C48.9413 60.2023 47.9053 60.8148 47.3733 61.7983C47.1115 62.2796 46.9859 62.8232 47.0103 63.3706C47.0347 63.918 47.208 64.4484 47.5116 64.9045L62.7803 87.7928C63.3473 88.6398 64.3063 89.149 65.3318 89.149C66.3591 89.149 67.3181 88.6398 67.8851 87.7928Z" fill="#333333"/>
</g>
<defs>
<clipPath id="clip0_170_366">
<rect width="414.75" height="70" fill="white" transform="translate(24.625 24)"/>
</clipPath>
</defs>
</svg>
