<svg width="125" height="24" viewBox="0 0 125 24" fill="none" xmlns="http://www.w3.org/2000/svg">
<path d="M16.6399 0.576273C16.6399 0.258006 16.3819 0 16.0636 0H5.54663C2.48331 0 0 2.48331 0 5.54663C0 7.93997 1.51584 9.97926 3.63982 10.7568C3.65547 10.7625 3.6701 10.7709 3.68293 10.7815L4.61962 11.5587C4.72344 11.6448 4.66253 11.8136 4.52763 11.8136H0.576274C0.258006 11.8136 0 12.0716 0 12.3899V22.3306C0 22.6489 0.258007 22.9069 0.576274 22.9069H11.0933C14.1566 22.9069 16.6399 20.4236 16.6399 17.3602C16.6399 14.8242 14.938 12.6858 12.614 12.0247C12.5944 12.0191 12.5762 12.0096 12.5606 11.9966L11.779 11.3482C11.6752 11.2621 11.7361 11.0933 11.871 11.0933H16.0636C16.3819 11.0933 16.6399 10.8353 16.6399 10.517V0.576273Z" fill="#D6D2CD"/>
<path d="M30.0635 11.1528C26.9317 11.1528 25.0221 10.0375 25.0221 7.44043V7.34877H27.8942V7.66959C27.8942 8.35706 28.1386 8.54039 30.0635 8.54039C31.8051 8.54039 31.9884 8.40289 31.9884 7.94458C31.9884 7.57793 31.7898 7.42516 30.9496 7.31822L27.7414 6.89046C25.8318 6.63075 24.8693 5.60718 24.8693 3.95725C24.8693 2.3226 26.1373 0.611566 29.8344 0.611566C33.0884 0.611566 34.6466 2.03234 34.6466 4.3239V4.41557H31.7745V4.18641C31.7745 3.45311 31.4537 3.20867 29.5288 3.20867C28.0622 3.20867 27.7414 3.40728 27.7414 3.85031C27.7414 4.17113 27.9247 4.3239 28.4747 4.40029L31.6829 4.87388C34.1883 5.24053 34.8605 6.52381 34.8605 7.83764C34.8605 9.59451 33.5161 11.1528 30.0635 11.1528ZM39.8652 11.1528C37.1306 11.1528 35.389 9.64034 35.389 7.15017C35.389 4.64472 37.1306 3.14757 39.8652 3.14757C42.4929 3.14757 44.1734 4.49195 44.1734 6.55436V6.79879H41.3165V6.67658C41.3165 5.88217 40.736 5.71412 39.8041 5.71412C38.75 5.71412 38.2458 5.94328 38.2458 7.15017C38.2458 8.34178 38.75 8.57094 39.8041 8.57094C40.736 8.57094 41.3165 8.41817 41.3165 7.62376V7.48626H44.1734V7.74598C44.1734 9.79311 42.4929 11.1528 39.8652 11.1528ZM47.431 11.1528C45.6894 11.1528 44.7116 10.3584 44.7116 9.04453C44.7116 7.95986 45.4602 7.18072 47.2018 7.01267L50.3336 6.70713V6.55436C50.3336 5.77523 49.9975 5.65301 48.9739 5.65301C48.0268 5.65301 47.7365 5.83634 47.7365 6.47798V6.53908H44.8644V6.50853C44.8644 4.4614 46.5754 3.14757 49.1878 3.14757C51.8766 3.14757 53.1752 4.4614 53.1752 6.61547V11H50.4864V9.38063H50.3336C50.0433 10.4653 49.0962 11.1528 47.431 11.1528ZM47.599 8.8612C47.599 9.10564 47.8434 9.15147 48.2865 9.15147C49.6767 9.15147 50.2419 8.98342 50.3183 8.29595L47.9657 8.57094C47.7059 8.60149 47.599 8.69316 47.599 8.8612ZM57.5555 11H54.6834V5.65301H53.6446V3.30034H54.7445C55.0501 1.84901 56.4708 0.764337 58.9916 0.764337H59.6026V2.81147H58.5332C57.7388 2.81147 57.3569 2.88785 57.3722 3.30034H59.6026V5.65301H57.5555V11ZM63.7427 11H60.8706V5.65301H59.8318V3.30034H60.9317C61.2373 1.84901 62.6581 0.764337 65.1788 0.764337H65.7899V2.81147H64.7205C63.9261 2.81147 63.5441 2.88785 63.5594 3.30034H65.7899V5.65301H63.7427V11ZM70.6567 11.1528C67.9832 11.1528 66.1652 9.64034 66.1652 7.15017C66.1652 4.64472 67.9832 3.14757 70.6567 3.14757C73.3302 3.14757 75.1482 4.64472 75.1482 7.15017C75.1482 9.64034 73.3302 11.1528 70.6567 11.1528ZM70.6567 8.61677C71.9553 8.61677 72.3066 8.2654 72.3066 7.15017C72.3066 6.03494 71.9553 5.66829 70.6567 5.66829C69.3581 5.66829 69.0068 6.03494 69.0068 7.15017C69.0068 8.2654 69.3581 8.61677 70.6567 8.61677ZM78.7102 11H75.8381V0.764337H78.7102V11ZM83.126 11.1528C80.7734 11.1528 79.4748 9.64034 79.4748 7.15017C79.4748 4.64472 80.7428 3.14757 83.0038 3.14757C84.8218 3.14757 85.6773 4.00308 85.9065 5.28636H86.0593V0.764337H88.9313V11H86.2426V8.92231H86.0898C85.8454 10.45 84.9287 11.1528 83.126 11.1528ZM82.3775 7.15017C82.3775 8.17373 82.8358 8.52511 84.1649 8.52511C85.4482 8.52511 86.0593 8.28067 86.0593 7.16545V7.05851C86.0593 5.97383 85.4482 5.75995 84.1649 5.75995C82.8358 5.75995 82.3775 6.1266 82.3775 7.15017ZM94.7969 11.1528C91.5735 11.1528 89.6944 9.07508 89.6944 5.88217C89.6944 2.68925 91.8943 0.611566 95.6219 0.611566C99.0898 0.611566 101.152 2.13928 101.152 4.67528V4.78222H97.944V4.67528C97.944 3.7281 97.3635 3.36145 95.5455 3.36145C93.3456 3.36145 92.7498 3.85031 92.7498 5.88217C92.7498 7.91402 93.315 8.40289 95.3927 8.40289C97.5162 8.40289 98.1273 8.29595 98.2648 7.51682H95.1177V5.40858H101.167V11H98.494V8.81537H98.3412C98.0662 10.007 97.1954 11.1528 94.7969 11.1528ZM106.314 11.1528C103.702 11.1528 101.868 10.0375 101.868 7.15017C101.868 4.64472 103.686 3.14757 106.253 3.14757C108.911 3.14757 110.607 4.47667 110.607 6.95157C110.607 7.21128 110.592 7.40988 110.561 7.68487H104.527C104.572 8.61677 104.985 8.87648 106.207 8.87648C107.368 8.87648 107.674 8.67788 107.674 8.21957V8.05152H110.546V8.23484C110.546 9.94588 108.911 11.1528 106.314 11.1528ZM106.192 5.34747C105.138 5.34747 104.695 5.57663 104.572 6.23354H107.826C107.719 5.57663 107.261 5.34747 106.192 5.34747ZM114.247 11H111.375V3.30034H114.064V5.63773H114.217C114.385 4.35446 115.225 3.14757 117.288 3.14757C119.365 3.14757 120.343 4.40029 120.343 6.06549V11H117.471V7.11961C117.471 6.05022 117.074 5.71412 115.821 5.71412C114.553 5.71412 114.247 6.03494 114.247 7.02795V11ZM30.5982 23.1528C27.0386 23.1528 24.9457 21.0751 24.9457 17.8822C24.9457 14.6893 27.0386 12.6116 30.5982 12.6116C34.0356 12.6116 36.098 14.2462 36.098 16.9808V17.2405H32.8898V16.9808C32.8898 15.8198 32.3398 15.3614 30.644 15.3614C28.5664 15.3614 28.0011 15.8503 28.0011 17.8822C28.0011 19.914 28.5664 20.4029 30.644 20.4029C32.3398 20.4029 32.8898 19.9446 32.8898 18.7835V18.5238H36.098V18.7835C36.098 21.5181 34.0356 23.1528 30.5982 23.1528ZM45.639 23H36.8547V12.7643H39.7268V20.4182H45.639V23ZM49.275 23H46.4029V12.7643H49.275V23Z" fill="#D6D2CD"/>
</svg>
