<svg width="302" height="214" viewBox="0 0 302 214" fill="none" xmlns="http://www.w3.org/2000/svg">
<path d="M0.377894 92.1649C6.68399 92.0387 11.1613 90.9036 13.8099 88.7596C16.5846 86.6155 17.9719 83.3994 17.9719 79.1112C17.9719 76.0843 17.3413 70.0305 16.0801 60.9497C15.4495 57.0399 14.8819 53.004 14.3774 48.842C13.8729 44.5538 13.6207 40.7702 13.6207 37.491C13.6207 25.8878 17.1521 16.8701 24.2149 10.4379C31.4039 4.00567 41.0522 0.78956 53.1599 0.78956H67.1594V30.8696H60.3488C56.3129 30.8696 53.4121 31.7525 51.6464 33.5182C49.8807 35.2839 48.9979 37.9324 48.9979 41.4639C48.9979 43.8602 49.5024 49.4726 50.5113 58.3011C51.6464 69.6521 52.214 77.0302 52.214 80.4355C52.214 87.6245 50.5113 93.5522 47.106 98.2187C43.8269 102.885 38.782 105.849 31.9714 107.11V107.489C38.782 108.75 43.8269 111.714 47.106 116.38C50.5113 121.047 52.214 126.974 52.214 134.163C52.214 137.569 51.6464 144.947 50.5113 156.298C49.5024 165.126 48.9979 170.802 48.9979 173.324C48.9979 176.73 49.8807 179.315 51.6464 181.081C53.4121 182.846 56.3129 183.729 60.3488 183.729H67.1594V213.809H53.1599C41.0522 213.809 31.4039 210.593 24.2149 204.161C17.1521 197.729 13.6207 188.711 13.6207 177.108C13.6207 173.829 13.8729 170.108 14.3774 165.946C14.8819 161.658 15.4495 157.559 16.0801 153.649C17.3413 144.568 17.9719 138.578 17.9719 135.677C17.9719 127.101 12.1072 122.623 0.377894 122.245V92.1649ZM85.1673 105.029C85.1673 91.9126 87.8789 80.2463 93.3021 70.0305C98.8515 59.6885 106.671 51.6797 116.761 46.0043C126.851 40.2026 138.454 37.3018 151.57 37.3018C168.219 37.3018 182.218 41.7792 193.569 50.7338C204.92 59.5623 212.235 71.607 215.514 86.8677H175.597C173.2 81.8229 169.858 77.9761 165.57 75.3276C161.408 72.679 156.552 71.3547 151.003 71.3547C142.427 71.3547 135.553 74.4447 130.382 80.6247C125.337 86.6786 122.815 94.8134 122.815 105.029C122.815 115.371 125.337 123.632 130.382 129.812C135.553 135.866 142.427 138.893 151.003 138.893C156.552 138.893 161.408 137.569 165.57 134.92C169.858 132.272 173.2 128.425 175.597 123.38H215.514C212.235 138.641 204.92 150.748 193.569 159.703C182.218 168.532 168.219 172.946 151.57 172.946C138.454 172.946 126.851 170.108 116.761 164.433C106.671 158.631 98.8515 150.622 93.3021 140.406C87.8789 130.064 85.1673 118.272 85.1673 105.029ZM301.179 122.245C289.449 122.623 283.585 127.101 283.585 135.677C283.585 138.578 284.215 144.568 285.476 153.649C286.107 157.559 286.675 161.658 287.179 165.946C287.684 170.108 287.936 173.829 287.936 177.108C287.936 188.711 284.341 197.729 277.152 204.161C270.09 210.593 260.504 213.809 248.397 213.809H234.397V183.729H241.208C245.244 183.729 248.144 182.846 249.91 181.081C251.676 179.315 252.559 176.73 252.559 173.324C252.559 170.802 252.054 165.126 251.045 156.298C249.91 144.947 249.342 137.569 249.342 134.163C249.342 126.974 250.982 121.047 254.261 116.38C257.667 111.714 262.774 108.75 269.585 107.489V107.11C262.774 105.849 257.667 102.885 254.261 98.2187C250.982 93.5522 249.342 87.6245 249.342 80.4355C249.342 77.0302 249.91 69.6521 251.045 58.3011C252.054 49.4726 252.559 43.8602 252.559 41.4639C252.559 37.9324 251.676 35.2839 249.91 33.5182C248.144 31.7525 245.244 30.8696 241.208 30.8696H234.397V0.78956H248.397C260.504 0.78956 270.09 4.00567 277.152 10.4379C284.341 16.8701 287.936 25.8878 287.936 37.491C287.936 40.7702 287.684 44.5538 287.179 48.842C286.675 53.004 286.107 57.0399 285.476 60.9497C284.215 70.0305 283.585 76.0843 283.585 79.1112C283.585 83.3994 284.909 86.6155 287.557 88.7596C290.332 90.9036 294.872 92.0387 301.179 92.1649V122.245Z" fill="white"/>
</svg>
