<svg width="179" height="186" viewBox="0 0 179 186" fill="none" xmlns="http://www.w3.org/2000/svg">
<path d="M31.9765 81.809L31.9768 59.1243C31.9765 45.2013 43.2636 33.9141 57.1863 33.9148L77.7401 33.9154L77.7397 25.2085C77.7394 11.2855 89.0265 -0.000976563 102.949 -0.000976563L107.991 -0.000976563C121.914 -0.000648029 133.2 11.2858 133.201 25.2088L133.2 33.9158L153.754 33.9154C167.676 33.9154 178.963 45.2026 178.964 59.1246L178.963 81.8093L178.964 137.271L178.963 159.955C178.964 173.879 167.677 185.164 153.755 185.164L133.201 185.164L77.7401 185.165H57.1863C43.2636 185.165 31.9765 173.878 31.9769 159.955L31.9765 137.27L25.2101 137.271C11.2868 137.27 0.000983964 125.984 0 112.061L0.000319854 107.019C0.000975234 93.0964 11.2868 81.8093 25.2101 81.8093L31.9765 81.809Z" fill="url(#paint0_linear_2270_94)"/>
<path d="M59.3389 80.7057L88.9515 110.319L59.3389 139.93L72.0567 152.649L114.387 110.319L72.0567 67.9878L59.3389 80.7057Z" fill="white"/>
<path d="M155.626 155.283H110.662V137.297H155.626V155.283Z" fill="white"/>
<defs>
<linearGradient id="paint0_linear_2270_94" x1="178.964" y1="-0.000975996" x2="81.1003" y2="194.072" gradientUnits="userSpaceOnUse">
<stop stop-color="#0D47A1"/>
<stop offset="1" stop-color="#2196F3"/>
</linearGradient>
</defs>
</svg>
