<svg width="258" height="118" viewBox="0 0 258 118" fill="none" xmlns="http://www.w3.org/2000/svg">
<g clip-path="url(#clip0_170_340)">
<path d="M233.232 24V76.2771H221.348V24H233.232ZM216.973 41.6433V76.3726H206.409V73.379C205.073 74.6847 203.545 75.672 201.859 76.3726C200.157 77.1051 198.311 77.4873 196.339 77.4873C193.857 77.4873 191.55 77.0255 189.434 76.1019C187.318 75.1306 185.473 73.8089 183.914 72.1529C182.339 70.4809 181.098 68.5382 180.175 66.3248C179.3 64.0637 178.87 61.6274 178.87 59.0318C178.87 56.4363 179.3 54.0318 180.175 51.8185C181.098 49.5573 182.339 47.5828 183.914 45.9108C185.469 44.2516 187.348 42.9292 189.434 42.0255C191.55 41.0541 193.857 40.5605 196.339 40.5605C198.311 40.5605 200.157 40.9267 201.859 41.6751C203.561 42.3758 205.089 43.363 206.409 44.6688V41.6751H216.973V41.6433ZM198.248 66.914C200.411 66.914 202.177 66.1815 203.561 64.6847C204.993 63.2038 205.709 61.3089 205.709 59C205.709 56.6911 204.993 54.7803 203.561 53.3153C202.177 51.8344 200.395 51.086 198.248 51.086C196.1 51.086 194.286 51.8185 192.855 53.3153C191.47 54.7962 190.786 56.6911 190.786 59C190.786 61.3089 191.486 63.2197 192.855 64.6847C194.286 66.1656 196.084 66.914 198.248 66.914ZM161.911 24C165.045 24 167.718 24.4459 169.93 25.3217C172.141 26.1975 174.002 27.4236 175.53 29C177.089 30.6242 178.314 32.4713 179.189 34.5573C180.064 36.6433 180.493 38.8885 180.493 41.293C180.493 43.6975 180.064 45.9427 179.189 48.0287C178.33 50.0954 177.088 51.981 175.53 53.586C174.018 55.1624 172.141 56.3885 169.93 57.2643C167.718 58.1401 165.045 58.586 161.911 58.586H156.184V76.3567H144.093V24H161.911ZM160.177 47.8217C161.8 47.8217 163.025 47.6624 163.916 47.328C164.839 46.9618 165.602 46.4841 166.191 45.9427C167.432 44.7802 168.052 43.2357 168.052 41.293C168.052 39.3503 167.432 37.8057 166.191 36.6433C165.586 36.086 164.839 35.6401 163.916 35.3216C163.041 34.9554 161.8 34.7643 160.177 34.7643H156.168V47.8217H160.177ZM99.5478 41.6433H112.673L121.582 58.2994H121.725L129.664 41.6433H141.818L115.775 94H103.684L115.568 70.0509L99.5478 41.6433ZM97.2091 41.6433V76.3726H86.6455V73.379C85.3091 74.6847 83.7818 75.672 82.0955 76.3726C80.3932 77.1051 78.5478 77.4873 76.575 77.4873C74.0932 77.4873 71.7864 77.0255 69.6705 76.1019C67.5546 75.1306 65.7091 73.8089 64.15 72.1529C62.5909 70.4809 61.3341 68.5382 60.4114 66.3248C59.5364 64.0637 59.1068 61.6274 59.1068 59.0318C59.1068 56.4363 59.5364 54.0318 60.4114 51.8185C61.3341 49.5573 62.575 47.5828 64.15 45.9108C65.7024 44.2481 67.5821 42.9252 69.6705 42.0255C71.7864 41.0541 74.0932 40.5605 76.575 40.5605C78.5478 40.5605 80.3932 40.9267 82.0955 41.6751C83.7978 42.3758 85.325 43.363 86.6455 44.6688V41.6751H97.2091V41.6433ZM78.4841 66.914C80.6478 66.914 82.4137 66.1815 83.8137 64.6847C85.2455 63.2038 85.9614 61.3089 85.9614 59C85.9614 56.6911 85.2455 54.7803 83.8137 53.3153C82.4296 51.8344 80.6478 51.086 78.4841 51.086C76.3205 51.086 74.5228 51.8185 73.0909 53.3153C71.7068 54.7962 71.0228 56.6911 71.0228 59C71.0228 61.3089 71.7227 63.2197 73.0909 64.6847C74.5228 66.1656 76.3205 66.914 78.4841 66.914ZM42.6409 24C45.775 24 48.4478 24.4459 50.6591 25.3217C52.8705 26.1975 54.7318 27.4236 56.2591 29C57.8182 30.6242 59.0432 32.4713 59.9182 34.5573C60.7932 36.6433 61.2228 38.8885 61.2228 41.293C61.2228 43.6975 60.7932 45.9427 59.9182 48.0287C59.0594 50.0954 57.8179 51.981 56.2591 53.586C54.7478 55.1624 52.8705 56.3885 50.6591 57.2643C48.4478 58.1401 45.775 58.586 42.6409 58.586H36.9137V76.3567H24.8228V24H42.6409ZM40.9227 47.8217C42.5455 47.8217 43.7705 47.6624 44.6614 47.328C45.5841 46.9618 46.3477 46.4841 46.9364 45.9427C48.1773 44.7802 48.7978 43.2357 48.7978 41.293C48.7978 39.3503 48.1773 37.8057 46.9364 36.6433C46.3318 36.086 45.5841 35.6401 44.6614 35.3216C43.7864 34.9554 42.5455 34.7643 40.9227 34.7643H36.9137V47.8217H40.9227Z" fill="#333333"/>
</g>
<defs>
<clipPath id="clip0_170_340">
<rect width="208.409" height="70" fill="white" transform="translate(24.8228 24)"/>
</clipPath>
</defs>
</svg>
