<svg width="60" height="60" viewBox="0 0 60 60" fill="none" xmlns="http://www.w3.org/2000/svg">
<path fill-rule="evenodd" clip-rule="evenodd" d="M47.5 20.9216V24.5C47.5 30.6283 47.5 33.6925 45.4497 35.5962C43.3995 37.5 40.0997 37.5 33.5 37.5H31.875V45C31.875 45.1197 31.8638 45.2368 31.8423 45.3503C33.111 45.8535 34.1247 46.8608 34.6365 48.125H35H53.125C54.1605 48.125 55 48.9645 55 50C55 51.0355 54.1605 51.875 53.125 51.875H35H34.6365C33.8947 53.7075 32.0985 55 30 55C27.9018 55 26.1053 53.7075 25.3635 51.875H25H6.875C5.83948 51.875 5 51.0355 5 50C5 48.9645 5.83948 48.125 6.875 48.125H25H25.3635C25.8753 46.8608 26.889 45.8535 28.1577 45.3503C28.1362 45.2368 28.125 45.1197 28.125 45V37.5H26.5C19.9004 37.5 16.6005 37.5 14.5503 35.5962C12.5 33.6925 12.5001 30.6283 12.5001 24.5V13.0433C12.5001 11.6092 12.5001 10.8922 12.6214 10.2949C13.1557 7.6655 15.3706 5.6088 18.2022 5.1127C18.8454 5 19.6177 5 21.1621 5C21.8388 5 22.1771 5 22.5023 5.02823C23.9042 5.14998 25.234 5.66143 26.318 6.49583C26.5692 6.68938 26.8085 6.91152 27.287 7.35585L28.25 8.25C29.6778 9.57565 30.3915 10.2384 31.2462 10.6801C31.7157 10.9226 32.214 11.1142 32.7308 11.251C33.6713 11.5 34.6808 11.5 36.6998 11.5H37.3537C41.9602 11.5 44.2638 11.5 45.7608 12.7504C45.8985 12.8654 46.0295 12.9871 46.1535 13.115C47.5 14.5052 47.5 16.644 47.5 20.9216ZM31.875 18.75C31.875 17.7145 32.7145 16.875 33.75 16.875H41.25C42.2855 16.875 43.125 17.7145 43.125 18.75C43.125 19.7855 42.2855 20.625 41.25 20.625H33.75C32.7145 20.625 31.875 19.7855 31.875 18.75Z" fill="#48AEF3"/>
</svg>
