<svg width="153" height="150" viewBox="0 0 153 150" fill="none" xmlns="http://www.w3.org/2000/svg">
<path d="M131.78 150H39.4727L60.2412 110.845H152.55L131.78 150ZM39.4727 39.0674V150L0.242188 125.04V14.1074L39.4727 39.0674ZM71.7422 64C77.8173 64 82.7422 68.9249 82.7422 75C82.7422 81.0751 77.8173 86 71.7422 86C65.6671 86 60.7422 81.0751 60.7422 75C60.7422 68.9249 65.6671 64 71.7422 64ZM111.742 64C117.817 64 122.742 68.9249 122.742 75C122.742 81.0751 117.817 86 111.742 86C105.667 86 100.742 81.0751 100.742 75C100.742 68.9249 105.667 64 111.742 64ZM131.78 39.1553H39.4727L60.2412 0H152.55L131.78 39.1553Z" fill="url(#paint0_linear_2014_66)"/>
<defs>
<linearGradient id="paint0_linear_2014_66" x1="0.580642" y1="1.09465e-05" x2="183.357" y2="82.4837" gradientUnits="userSpaceOnUse">
<stop stop-color="#396AFC"/>
<stop offset="1" stop-color="#2948FF"/>
</linearGradient>
</defs>
</svg>
